<?xml version="1.0" encoding="UTF-8" standalone="no"?><svg xmlns="http://www.w3.org/2000/svg" xmlns:xlink="http://www.w3.org/1999/xlink" contentScriptType="application/ecmascript" contentStyleType="text/css" height="1434px" preserveAspectRatio="none" style="width:1753px;height:1434px;background:#FFFFFF;" version="1.1" viewBox="0 0 1753 1434" width="1753px" zoomAndPan="magnify"><defs><filter height="300%" id="f25k34axb1fa7" width="300%" x="-1" y="-1"><feGaussianBlur result="blurOut" stdDeviation="2.0"/><feColorMatrix in="blurOut" result="blurOut2" type="matrix" values="0 0 0 0 0 0 0 0 0 0 0 0 0 0 0 0 0 0 .4 0"/><feOffset dx="4.0" dy="4.0" in="blurOut2" result="blurOut3"/><feBlend in="SourceGraphic" in2="blurOut3" mode="normal"/></filter></defs><g><!--MD5=[6b13f1b330d33795af281e5c1dfe1e98]
class Resource--><rect codeLine="3" fill="#FEFECE" filter="url(#f25k34axb1fa7)" height="89.5078" id="Resource" style="stroke:#A80036;stroke-width:1.5;" width="385" x="1308" y="1146.5"/><ellipse cx="1469.25" cy="1162.5" fill="#ADD1B2" rx="11" ry="11" style="stroke:#A80036;stroke-width:1.0;"/><path d="M1471.25,1159 Q1471.4531,1158.5 1471.6875,1158.25 Q1471.9219,1158 1472.1875,1158 Q1472.6563,1158 1472.9531,1158.2813 Q1473.25,1158.5625 1473.25,1159.2188 L1473.25,1160.7813 Q1473.25,1161.4375 1472.9688,1161.7188 Q1472.6875,1162 1472.25,1162 Q1471.8594,1162 1471.6094,1161.8281 Q1471.3594,1161.6563 1471.25,1161.2031 Q1471.2031,1160.8906 1471.0313,1160.7188 Q1470.7188,1160.3906 1470.1563,1160.2031 Q1469.5938,1160 1469.0313,1160 Q1468.3281,1160 1467.7344,1160.2813 Q1467.1563,1160.5625 1466.7031,1161.1875 Q1466.25,1161.8125 1466.25,1162.6719 L1466.25,1163.5938 Q1466.25,1164.625 1467.0938,1165.3125 Q1467.9375,1166 1469.4375,1166 Q1470.3281,1166 1470.9531,1165.7969 Q1471.3125,1165.6875 1471.7188,1165.3281 Q1471.9844,1165.125 1472.125,1165.0625 Q1472.2656,1165 1472.4375,1165 Q1472.7656,1165 1473,1165.2656 Q1473.25,1165.5156 1473.25,1165.875 Q1473.25,1166.2188 1472.9063,1166.625 Q1472.4063,1167.2188 1471.6094,1167.5469 Q1470.5625,1168 1469.2813,1168 Q1467.7813,1168 1466.5781,1167.4063 Q1465.6094,1166.9375 1464.9219,1165.9219 Q1464.25,1164.9063 1464.25,1163.7031 L1464.25,1162.6094 Q1464.25,1161.3594 1464.8438,1160.2656 Q1465.4531,1159.1719 1466.5,1158.5938 Q1467.5625,1158 1468.75,1158 Q1469.4688,1158 1470.0938,1158.25 Q1470.7188,1158.5 1471.25,1159 Z " fill="#000000"/><text fill="#000000" font-family="sans-serif" font-size="12" lengthAdjust="spacing" textLength="54" x="1489.75" y="1167.4102">Resource</text><line style="stroke:#A80036;stroke-width:1.5;" x1="1309" x2="1692" y1="1178.5" y2="1178.5"/><text fill="#000000" font-family="sans-serif" font-size="11" lengthAdjust="spacing" textLength="56" x="1314" y="1193.9189">-amount: int</text><line style="stroke:#A80036;stroke-width:1.5;" x1="1309" x2="1692" y1="1200.3359" y2="1200.3359"/><text fill="#000000" font-family="sans-serif" font-size="11" lengthAdjust="spacing" textLength="110" x="1314" y="1215.7549">+collect(inv: Inventory)</text><text fill="#000000" font-family="sans-serif" font-size="11" lengthAdjust="spacing" text-decoration="underline" textLength="373" x="1314" y="1229.5908">getResourceByType(resources: Resource[], type: ResourceType): Resource</text><!--MD5=[b9dabdda4f25f9168d749d6d9e332bee]
class Collectable--><rect codeLine="87" fill="#FEFECE" filter="url(#f25k34axb1fa7)" height="61.8359" id="Collectable" style="stroke:#A80036;stroke-width:1.5;" width="122" x="1026.5" y="546"/><ellipse cx="1053.65" cy="562" fill="#B4A7E5" rx="11" ry="11" style="stroke:#A80036;stroke-width:1.0;"/><path d="M1054.65,559 L1054.65,565 L1056.65,565 L1057.1344,565 L1057.65,565.625 L1057.65,566 L1057.65,566.375 L1057.1344,567 L1056.65,567 L1050.65,567 L1050.1656,567 L1049.65,566.375 L1049.65,566 L1049.65,565.625 L1050.1656,565 L1050.65,565 L1052.65,565 L1052.65,559 L1050.65,559 L1050.1656,559 L1049.65,558.375 L1049.65,558 L1049.65,557.625 L1050.1656,557 L1050.65,557 L1056.65,557 L1057.1344,557 L1057.65,557.625 L1057.65,558 L1057.65,558.375 L1057.1344,559 L1056.65,559 L1054.65,559 Z " fill="#000000"/><text fill="#000000" font-family="sans-serif" font-size="12" font-style="italic" lengthAdjust="spacing" textLength="63" x="1070.35" y="566.9102">Collectable</text><line style="stroke:#A80036;stroke-width:1.5;" x1="1027.5" x2="1147.5" y1="578" y2="578"/><line style="stroke:#A80036;stroke-width:1.5;" x1="1027.5" x2="1147.5" y1="586" y2="586"/><text fill="#000000" font-family="sans-serif" font-size="11" lengthAdjust="spacing" textLength="110" x="1032.5" y="601.4189">+collect(inv: Inventory)</text><!--MD5=[047ad69fa5569e11f99d9c52b6049560]
class ResourceType--><rect codeLine="9" fill="#FEFECE" filter="url(#f25k34axb1fa7)" height="75.6719" id="ResourceType" style="stroke:#A80036;stroke-width:1.5;" width="112" x="1444.5" y="1338"/><ellipse cx="1459.5" cy="1354" fill="#EB937F" rx="11" ry="11" style="stroke:#A80036;stroke-width:1.0;"/><path d="M1458,1355 L1458,1357 L1462,1357 L1462,1356 L1462,1355.5156 L1462.625,1355 L1463,1355 L1463.375,1355 L1464,1355.5156 L1464,1356 L1464,1359 L1456,1359 L1455.5156,1359 L1455,1358.375 L1455,1358 L1455,1357.625 L1455.5156,1357 L1456,1357 L1456,1357 L1456,1351 L1456,1351 L1455.5156,1351 L1455,1350.375 L1455,1350 L1455,1349.625 L1455.5156,1349 L1456,1349 L1464,1349 L1464,1352 L1464,1352.4844 L1463.375,1353 L1463,1353 L1462.625,1353 L1462,1352.4844 L1462,1352 L1462,1351 L1458,1351 L1458,1353 L1459,1353 L1459,1352.5156 L1459,1352.5156 L1459.625,1352 L1460,1352 L1460.375,1352 L1461,1352.5156 L1461,1353 L1461,1355 L1461,1355.4844 L1460.375,1356 L1460.375,1356 L1460,1356 L1459.625,1356 L1459,1355.4844 L1459,1355.4844 L1459,1355 L1458,1355 Z " fill="#000000"/><text fill="#000000" font-family="sans-serif" font-size="12" lengthAdjust="spacing" textLength="80" x="1473.5" y="1358.9102">ResourceType</text><line style="stroke:#A80036;stroke-width:1.5;" x1="1445.5" x2="1555.5" y1="1370" y2="1370"/><text fill="#000000" font-family="sans-serif" font-size="11" lengthAdjust="spacing" textLength="52" x="1450.5" y="1385.4189">AminoAcid</text><text fill="#000000" font-family="sans-serif" font-size="11" lengthAdjust="spacing" textLength="50" x="1450.5" y="1399.2549">Nucleotide</text><line style="stroke:#A80036;stroke-width:1.5;" x1="1445.5" x2="1555.5" y1="1405.6719" y2="1405.6719"/><!--MD5=[9d44916250b776386006c440668bcfbb]
class Agent--><rect codeLine="15" fill="#FEFECE" filter="url(#f25k34axb1fa7)" height="158.6875" id="Agent" style="stroke:#A80036;stroke-width:1.5;" width="301" x="361" y="1112"/><ellipse cx="491.25" cy="1128" fill="#A9DCDF" rx="11" ry="11" style="stroke:#A80036;stroke-width:1.0;"/><path d="M493,1129.5 L489.7031,1129.5 L489.2656,1130.5 L489.2656,1130.5 L489.7344,1130.5 L490.25,1131.125 L490.25,1131.5 L490.25,1131.875 L489.7344,1132.5 L489.2656,1132.5 L487.375,1132.5 L486.7656,1132.5 L486.25,1131.875 L486.25,1131.5 L486.25,1131.125 L486.7656,1130.5 L487.375,1130.5 L489.6875,1124.5 L488.8125,1124.5 L487.7656,1124.5 L487.25,1123.875 L487.25,1123.5 L487.25,1123.125 L487.7656,1122.5 L488.8125,1122.5 L492.4844,1122.5 L495.1719,1130.5 L495.7344,1130.5 L495.7344,1130.5 L496.25,1131.125 L496.25,1131.5 L496.25,1131.875 L495.7344,1132.5 L495.1719,1132.5 L493.2813,1132.5 L492.7656,1132.5 L492.25,1131.875 L492.25,1131.5 L492.25,1131.125 L492.7656,1130.5 L493.2813,1130.5 L493.2813,1130.5 L493,1129.5 Z M492.4531,1127.5 L491.25,1123.9219 L490.2188,1127.5 L492.4531,1127.5 Z " fill="#000000"/><text fill="#000000" font-family="sans-serif" font-size="12" font-style="italic" lengthAdjust="spacing" textLength="32" x="511.75" y="1132.9102">Agent</text><line style="stroke:#A80036;stroke-width:1.5;" x1="362" x2="661" y1="1144" y2="1144"/><text fill="#000000" font-family="sans-serif" font-size="11" lengthAdjust="spacing" textLength="76" x="367" y="1159.4189">#roundsLeft: int</text><line style="stroke:#A80036;stroke-width:1.5;" x1="362" x2="661" y1="1165.8359" y2="1165.8359"/><text fill="#000000" font-family="sans-serif" font-size="11" lengthAdjust="spacing" textLength="171" x="367" y="1181.2549">+use(from: Virologist, to: Virologist)</text><text fill="#000000" font-family="sans-serif" font-size="11" font-style="italic" lengthAdjust="spacing" text-decoration="underline" textLength="79" x="367" y="1195.0908">+create(): Agent</text><text fill="#000000" font-family="sans-serif" font-size="11" lengthAdjust="spacing" textLength="165" x="367" y="1208.9268">+onTurnImpact(to: Virologist): void</text><text fill="#000000" font-family="sans-serif" font-size="11" lengthAdjust="spacing" textLength="171" x="367" y="1222.7627">+endTurnImpact(to: Virologist): void</text><text fill="#000000" font-family="sans-serif" font-size="11" lengthAdjust="spacing" textLength="289" x="367" y="1236.5986">+counterImpact(agent: Agent, from: Virologist, to: Virologist)</text><text fill="#000000" font-family="sans-serif" font-size="11" lengthAdjust="spacing" textLength="122" x="367" y="1250.4346">+allowStealing(): boolean</text><text fill="#000000" font-family="sans-serif" font-size="11" lengthAdjust="spacing" textLength="145" x="367" y="1264.2705">+decrement(Virologist v): void</text><!--MD5=[354ba6fe2710e9f7c691253c66156a32]
class Effect--><rect codeLine="74" fill="#FEFECE" filter="url(#f25k34axb1fa7)" height="117.1797" id="Effect" style="stroke:#A80036;stroke-width:1.5;" width="301" x="345" y="709.5"/><ellipse cx="476.25" cy="725.5" fill="#B4A7E5" rx="11" ry="11" style="stroke:#A80036;stroke-width:1.0;"/><path d="M477.25,722.5 L477.25,728.5 L479.25,728.5 L479.7344,728.5 L480.25,729.125 L480.25,729.5 L480.25,729.875 L479.7344,730.5 L479.25,730.5 L473.25,730.5 L472.7656,730.5 L472.25,729.875 L472.25,729.5 L472.25,729.125 L472.7656,728.5 L473.25,728.5 L475.25,728.5 L475.25,722.5 L473.25,722.5 L472.7656,722.5 L472.25,721.875 L472.25,721.5 L472.25,721.125 L472.7656,720.5 L473.25,720.5 L479.25,720.5 L479.7344,720.5 L480.25,721.125 L480.25,721.5 L480.25,721.875 L479.7344,722.5 L479.25,722.5 L477.25,722.5 Z " fill="#000000"/><text fill="#000000" font-family="sans-serif" font-size="12" font-style="italic" lengthAdjust="spacing" textLength="30" x="496.75" y="730.4102">Effect</text><line style="stroke:#A80036;stroke-width:1.5;" x1="346" x2="645" y1="741.5" y2="741.5"/><line style="stroke:#A80036;stroke-width:1.5;" x1="346" x2="645" y1="749.5" y2="749.5"/><text fill="#000000" font-family="sans-serif" font-size="11" lengthAdjust="spacing" textLength="139" x="351" y="764.9189">+onTurnImpact(to: Virologist)</text><text fill="#000000" font-family="sans-serif" font-size="11" lengthAdjust="spacing" textLength="145" x="351" y="778.7549">+endTurnImpact(to: Virologist)</text><text fill="#000000" font-family="sans-serif" font-size="11" lengthAdjust="spacing" textLength="289" x="351" y="792.5908">+counterImpact(agent: Agent, from: Virologist, to: Virologist)</text><text fill="#000000" font-family="sans-serif" font-size="11" lengthAdjust="spacing" textLength="122" x="351" y="806.4268">+allowStealing(): boolean</text><text fill="#000000" font-family="sans-serif" font-size="11" lengthAdjust="spacing" textLength="145" x="351" y="820.2627">+decrement(Virologist v): void</text><!--MD5=[3a682b83b50cc9e2f5b9d4b8f90493ad]
class AmnesiaVirus--><rect codeLine="27" fill="#FEFECE" filter="url(#f25k34axb1fa7)" height="75.6719" id="AmnesiaVirus" style="stroke:#A80036;stroke-width:1.5;" width="151" x="343" y="1338"/><ellipse cx="376.9" cy="1354" fill="#ADD1B2" rx="11" ry="11" style="stroke:#A80036;stroke-width:1.0;"/><path d="M378.9,1350.5 Q379.1031,1350 379.3375,1349.75 Q379.5719,1349.5 379.8375,1349.5 Q380.3063,1349.5 380.6031,1349.7813 Q380.9,1350.0625 380.9,1350.7188 L380.9,1352.2813 Q380.9,1352.9375 380.6188,1353.2188 Q380.3375,1353.5 379.9,1353.5 Q379.5094,1353.5 379.2594,1353.3281 Q379.0094,1353.1563 378.9,1352.7031 Q378.8531,1352.3906 378.6813,1352.2188 Q378.3688,1351.8906 377.8063,1351.7031 Q377.2438,1351.5 376.6813,1351.5 Q375.9781,1351.5 375.3844,1351.7813 Q374.8063,1352.0625 374.3531,1352.6875 Q373.9,1353.3125 373.9,1354.1719 L373.9,1355.0938 Q373.9,1356.125 374.7438,1356.8125 Q375.5875,1357.5 377.0875,1357.5 Q377.9781,1357.5 378.6031,1357.2969 Q378.9625,1357.1875 379.3688,1356.8281 Q379.6344,1356.625 379.775,1356.5625 Q379.9156,1356.5 380.0875,1356.5 Q380.4156,1356.5 380.65,1356.7656 Q380.9,1357.0156 380.9,1357.375 Q380.9,1357.7188 380.5563,1358.125 Q380.0563,1358.7188 379.2594,1359.0469 Q378.2125,1359.5 376.9313,1359.5 Q375.4313,1359.5 374.2281,1358.9063 Q373.2594,1358.4375 372.5719,1357.4219 Q371.9,1356.4063 371.9,1355.2031 L371.9,1354.1094 Q371.9,1352.8594 372.4938,1351.7656 Q373.1031,1350.6719 374.15,1350.0938 Q375.2125,1349.5 376.4,1349.5 Q377.1188,1349.5 377.7438,1349.75 Q378.3688,1350 378.9,1350.5 Z " fill="#000000"/><text fill="#000000" font-family="sans-serif" font-size="12" lengthAdjust="spacing" textLength="77" x="395.1" y="1358.9102">AmnesiaVirus</text><line style="stroke:#A80036;stroke-width:1.5;" x1="344" x2="493" y1="1370" y2="1370"/><line style="stroke:#A80036;stroke-width:1.5;" x1="344" x2="493" y1="1378" y2="1378"/><text fill="#000000" font-family="sans-serif" font-size="11" lengthAdjust="spacing" text-decoration="underline" textLength="80" x="349" y="1393.4189">+create(): Agent</text><text fill="#000000" font-family="sans-serif" font-size="11" lengthAdjust="spacing" textLength="139" x="349" y="1407.2549">+onTurnImpact(to: Virologist)</text><!--MD5=[41e2e1e42c2a6e0ed10a6a018adf955b]
class StunVirus--><rect codeLine="32" fill="#FEFECE" filter="url(#f25k34axb1fa7)" height="89.5078" id="StunVirus" style="stroke:#A80036;stroke-width:1.5;" width="151" x="529" y="1331"/><ellipse cx="573.75" cy="1347" fill="#ADD1B2" rx="11" ry="11" style="stroke:#A80036;stroke-width:1.0;"/><path d="M575.75,1343.5 Q575.9531,1343 576.1875,1342.75 Q576.4219,1342.5 576.6875,1342.5 Q577.1563,1342.5 577.4531,1342.7813 Q577.75,1343.0625 577.75,1343.7188 L577.75,1345.2813 Q577.75,1345.9375 577.4688,1346.2188 Q577.1875,1346.5 576.75,1346.5 Q576.3594,1346.5 576.1094,1346.3281 Q575.8594,1346.1563 575.75,1345.7031 Q575.7031,1345.3906 575.5313,1345.2188 Q575.2188,1344.8906 574.6563,1344.7031 Q574.0938,1344.5 573.5313,1344.5 Q572.8281,1344.5 572.2344,1344.7813 Q571.6563,1345.0625 571.2031,1345.6875 Q570.75,1346.3125 570.75,1347.1719 L570.75,1348.0938 Q570.75,1349.125 571.5938,1349.8125 Q572.4375,1350.5 573.9375,1350.5 Q574.8281,1350.5 575.4531,1350.2969 Q575.8125,1350.1875 576.2188,1349.8281 Q576.4844,1349.625 576.625,1349.5625 Q576.7656,1349.5 576.9375,1349.5 Q577.2656,1349.5 577.5,1349.7656 Q577.75,1350.0156 577.75,1350.375 Q577.75,1350.7188 577.4063,1351.125 Q576.9063,1351.7188 576.1094,1352.0469 Q575.0625,1352.5 573.7813,1352.5 Q572.2813,1352.5 571.0781,1351.9063 Q570.1094,1351.4375 569.4219,1350.4219 Q568.75,1349.4063 568.75,1348.2031 L568.75,1347.1094 Q568.75,1345.8594 569.3438,1344.7656 Q569.9531,1343.6719 571,1343.0938 Q572.0625,1342.5 573.25,1342.5 Q573.9688,1342.5 574.5938,1342.75 Q575.2188,1343 575.75,1343.5 Z " fill="#000000"/><text fill="#000000" font-family="sans-serif" font-size="12" lengthAdjust="spacing" textLength="53" x="594.25" y="1351.9102">StunVirus</text><line style="stroke:#A80036;stroke-width:1.5;" x1="530" x2="679" y1="1363" y2="1363"/><line style="stroke:#A80036;stroke-width:1.5;" x1="530" x2="679" y1="1371" y2="1371"/><text fill="#000000" font-family="sans-serif" font-size="11" lengthAdjust="spacing" text-decoration="underline" textLength="80" x="535" y="1386.4189">+create(): Agent</text><text fill="#000000" font-family="sans-serif" font-size="11" lengthAdjust="spacing" textLength="139" x="535" y="1400.2549">+onTurnImpact(to: Virologist)</text><text fill="#000000" font-family="sans-serif" font-size="11" lengthAdjust="spacing" textLength="122" x="535" y="1414.0908">+allowStealing(): boolean</text><!--MD5=[b95407c940de934d839e4cd6fd328c70]
class VitusDanceVirus--><rect codeLine="37" fill="#FEFECE" filter="url(#f25k34axb1fa7)" height="75.6719" id="VitusDanceVirus" style="stroke:#A80036;stroke-width:1.5;" width="151" x="715" y="1338"/><ellipse cx="742.6" cy="1354" fill="#ADD1B2" rx="11" ry="11" style="stroke:#A80036;stroke-width:1.0;"/><path d="M744.6,1350.5 Q744.8031,1350 745.0375,1349.75 Q745.2719,1349.5 745.5375,1349.5 Q746.0063,1349.5 746.3031,1349.7813 Q746.6,1350.0625 746.6,1350.7188 L746.6,1352.2813 Q746.6,1352.9375 746.3188,1353.2188 Q746.0375,1353.5 745.6,1353.5 Q745.2094,1353.5 744.9594,1353.3281 Q744.7094,1353.1563 744.6,1352.7031 Q744.5531,1352.3906 744.3813,1352.2188 Q744.0688,1351.8906 743.5063,1351.7031 Q742.9438,1351.5 742.3813,1351.5 Q741.6781,1351.5 741.0844,1351.7813 Q740.5063,1352.0625 740.0531,1352.6875 Q739.6,1353.3125 739.6,1354.1719 L739.6,1355.0938 Q739.6,1356.125 740.4438,1356.8125 Q741.2875,1357.5 742.7875,1357.5 Q743.6781,1357.5 744.3031,1357.2969 Q744.6625,1357.1875 745.0688,1356.8281 Q745.3344,1356.625 745.475,1356.5625 Q745.6156,1356.5 745.7875,1356.5 Q746.1156,1356.5 746.35,1356.7656 Q746.6,1357.0156 746.6,1357.375 Q746.6,1357.7188 746.2563,1358.125 Q745.7563,1358.7188 744.9594,1359.0469 Q743.9125,1359.5 742.6313,1359.5 Q741.1313,1359.5 739.9281,1358.9063 Q738.9594,1358.4375 738.2719,1357.4219 Q737.6,1356.4063 737.6,1355.2031 L737.6,1354.1094 Q737.6,1352.8594 738.1938,1351.7656 Q738.8031,1350.6719 739.85,1350.0938 Q740.9125,1349.5 742.1,1349.5 Q742.8188,1349.5 743.4438,1349.75 Q744.0688,1350 744.6,1350.5 Z " fill="#000000"/><text fill="#000000" font-family="sans-serif" font-size="12" lengthAdjust="spacing" textLength="91" x="759.4" y="1358.9102">VitusDanceVirus</text><line style="stroke:#A80036;stroke-width:1.5;" x1="716" x2="865" y1="1370" y2="1370"/><line style="stroke:#A80036;stroke-width:1.5;" x1="716" x2="865" y1="1378" y2="1378"/><text fill="#000000" font-family="sans-serif" font-size="11" lengthAdjust="spacing" text-decoration="underline" textLength="80" x="721" y="1393.4189">+create(): Agent</text><text fill="#000000" font-family="sans-serif" font-size="11" lengthAdjust="spacing" textLength="139" x="721" y="1407.2549">+onTurnImpact(to: Virologist)</text><!--MD5=[19e445fc4d3b48519cbe33da05496394]
class Vaccine--><rect codeLine="41" fill="#FEFECE" filter="url(#f25k34axb1fa7)" height="75.6719" id="Vaccine" style="stroke:#A80036;stroke-width:1.5;" width="301" x="7" y="1338"/><ellipse cx="131.75" cy="1354" fill="#ADD1B2" rx="11" ry="11" style="stroke:#A80036;stroke-width:1.0;"/><path d="M133.75,1350.5 Q133.9531,1350 134.1875,1349.75 Q134.4219,1349.5 134.6875,1349.5 Q135.1563,1349.5 135.4531,1349.7813 Q135.75,1350.0625 135.75,1350.7188 L135.75,1352.2813 Q135.75,1352.9375 135.4688,1353.2188 Q135.1875,1353.5 134.75,1353.5 Q134.3594,1353.5 134.1094,1353.3281 Q133.8594,1353.1563 133.75,1352.7031 Q133.7031,1352.3906 133.5313,1352.2188 Q133.2188,1351.8906 132.6563,1351.7031 Q132.0938,1351.5 131.5313,1351.5 Q130.8281,1351.5 130.2344,1351.7813 Q129.6563,1352.0625 129.2031,1352.6875 Q128.75,1353.3125 128.75,1354.1719 L128.75,1355.0938 Q128.75,1356.125 129.5938,1356.8125 Q130.4375,1357.5 131.9375,1357.5 Q132.8281,1357.5 133.4531,1357.2969 Q133.8125,1357.1875 134.2188,1356.8281 Q134.4844,1356.625 134.625,1356.5625 Q134.7656,1356.5 134.9375,1356.5 Q135.2656,1356.5 135.5,1356.7656 Q135.75,1357.0156 135.75,1357.375 Q135.75,1357.7188 135.4063,1358.125 Q134.9063,1358.7188 134.1094,1359.0469 Q133.0625,1359.5 131.7813,1359.5 Q130.2813,1359.5 129.0781,1358.9063 Q128.1094,1358.4375 127.4219,1357.4219 Q126.75,1356.4063 126.75,1355.2031 L126.75,1354.1094 Q126.75,1352.8594 127.3438,1351.7656 Q127.9531,1350.6719 129,1350.0938 Q130.0625,1349.5 131.25,1349.5 Q131.9688,1349.5 132.5938,1349.75 Q133.2188,1350 133.75,1350.5 Z " fill="#000000"/><text fill="#000000" font-family="sans-serif" font-size="12" lengthAdjust="spacing" textLength="43" x="152.25" y="1358.9102">Vaccine</text><line style="stroke:#A80036;stroke-width:1.5;" x1="8" x2="307" y1="1370" y2="1370"/><line style="stroke:#A80036;stroke-width:1.5;" x1="8" x2="307" y1="1378" y2="1378"/><text fill="#000000" font-family="sans-serif" font-size="11" lengthAdjust="spacing" text-decoration="underline" textLength="80" x="13" y="1393.4189">+create(): Agent</text><text fill="#000000" font-family="sans-serif" font-size="11" lengthAdjust="spacing" textLength="289" x="13" y="1407.2549">+counterImpact(agent: Agent, from: Virologist, to: Virologist)</text><!--MD5=[1a9529180566655e8adcb11068a11cb8]
class Virologist--><rect codeLine="46" fill="#FEFECE" filter="url(#f25k34axb1fa7)" height="200.1953" id="Virologist" style="stroke:#A80036;stroke-width:1.5;" width="196" x="822.5" y="279"/><ellipse cx="890.75" cy="295" fill="#ADD1B2" rx="11" ry="11" style="stroke:#A80036;stroke-width:1.0;"/><path d="M892.75,291.5 Q892.9531,291 893.1875,290.75 Q893.4219,290.5 893.6875,290.5 Q894.1563,290.5 894.4531,290.7813 Q894.75,291.0625 894.75,291.7188 L894.75,293.2813 Q894.75,293.9375 894.4688,294.2188 Q894.1875,294.5 893.75,294.5 Q893.3594,294.5 893.1094,294.3281 Q892.8594,294.1563 892.75,293.7031 Q892.7031,293.3906 892.5313,293.2188 Q892.2188,292.8906 891.6563,292.7031 Q891.0938,292.5 890.5313,292.5 Q889.8281,292.5 889.2344,292.7813 Q888.6563,293.0625 888.2031,293.6875 Q887.75,294.3125 887.75,295.1719 L887.75,296.0938 Q887.75,297.125 888.5938,297.8125 Q889.4375,298.5 890.9375,298.5 Q891.8281,298.5 892.4531,298.2969 Q892.8125,298.1875 893.2188,297.8281 Q893.4844,297.625 893.625,297.5625 Q893.7656,297.5 893.9375,297.5 Q894.2656,297.5 894.5,297.7656 Q894.75,298.0156 894.75,298.375 Q894.75,298.7188 894.4063,299.125 Q893.9063,299.7188 893.1094,300.0469 Q892.0625,300.5 890.7813,300.5 Q889.2813,300.5 888.0781,299.9063 Q887.1094,299.4375 886.4219,298.4219 Q885.75,297.4063 885.75,296.2031 L885.75,295.1094 Q885.75,293.8594 886.3438,292.7656 Q886.9531,291.6719 888,291.0938 Q889.0625,290.5 890.25,290.5 Q890.9688,290.5 891.5938,290.75 Q892.2188,291 892.75,291.5 Z " fill="#000000"/><text fill="#000000" font-family="sans-serif" font-size="12" lengthAdjust="spacing" textLength="51" x="911.25" y="299.9102">Virologist</text><line style="stroke:#A80036;stroke-width:1.5;" x1="823.5" x2="1017.5" y1="311" y2="311"/><text fill="#000000" font-family="sans-serif" font-size="11" lengthAdjust="spacing" textLength="75" x="828.5" y="326.4189">-actionsLeft: int</text><line style="stroke:#A80036;stroke-width:1.5;" x1="823.5" x2="1017.5" y1="332.8359" y2="332.8359"/><text fill="#000000" font-family="sans-serif" font-size="11" lengthAdjust="spacing" textLength="125" x="828.5" y="348.2549">+addEffect(effect: Effect)</text><text fill="#000000" font-family="sans-serif" font-size="11" lengthAdjust="spacing" textLength="140" x="828.5" y="362.0908">+removeEffect(effect:Effect)</text><text fill="#000000" font-family="sans-serif" font-size="11" lengthAdjust="spacing" textLength="110" x="828.5" y="375.9268">-moveTo(newTile: Tile)</text><text fill="#000000" font-family="sans-serif" font-size="11" lengthAdjust="spacing" textLength="44" x="828.5" y="389.7627">-pickUp()</text><text fill="#000000" font-family="sans-serif" font-size="11" lengthAdjust="spacing" textLength="127" x="828.5" y="403.5986">-craft(code: GeneticCode)</text><text fill="#000000" font-family="sans-serif" font-size="11" lengthAdjust="spacing" textLength="184" x="828.5" y="417.4346">-useAgent(agent: Agent, v: Virologist)</text><text fill="#000000" font-family="sans-serif" font-size="11" lengthAdjust="spacing" textLength="89" x="828.5" y="431.2705">-steal(Virologist v)</text><text fill="#000000" font-family="sans-serif" font-size="11" lengthAdjust="spacing" textLength="38" x="828.5" y="445.1064">+pass()</text><text fill="#000000" font-family="sans-serif" font-size="11" lengthAdjust="spacing" textLength="28" x="828.5" y="458.9424">-tick()</text><text fill="#000000" font-family="sans-serif" font-size="11" lengthAdjust="spacing" textLength="50" x="828.5" y="472.7783">+myTurn()</text><!--MD5=[ee084734eb3a5ffad99a0de9980f769b]
class Inventory--><rect codeLine="62" fill="#FEFECE" filter="url(#f25k34axb1fa7)" height="186.3594" id="Inventory" style="stroke:#A80036;stroke-width:1.5;" width="222" x="823.5" y="675"/><ellipse cx="906.25" cy="691" fill="#ADD1B2" rx="11" ry="11" style="stroke:#A80036;stroke-width:1.0;"/><path d="M908.25,687.5 Q908.4531,687 908.6875,686.75 Q908.9219,686.5 909.1875,686.5 Q909.6563,686.5 909.9531,686.7813 Q910.25,687.0625 910.25,687.7188 L910.25,689.2813 Q910.25,689.9375 909.9688,690.2188 Q909.6875,690.5 909.25,690.5 Q908.8594,690.5 908.6094,690.3281 Q908.3594,690.1563 908.25,689.7031 Q908.2031,689.3906 908.0313,689.2188 Q907.7188,688.8906 907.1563,688.7031 Q906.5938,688.5 906.0313,688.5 Q905.3281,688.5 904.7344,688.7813 Q904.1563,689.0625 903.7031,689.6875 Q903.25,690.3125 903.25,691.1719 L903.25,692.0938 Q903.25,693.125 904.0938,693.8125 Q904.9375,694.5 906.4375,694.5 Q907.3281,694.5 907.9531,694.2969 Q908.3125,694.1875 908.7188,693.8281 Q908.9844,693.625 909.125,693.5625 Q909.2656,693.5 909.4375,693.5 Q909.7656,693.5 910,693.7656 Q910.25,694.0156 910.25,694.375 Q910.25,694.7188 909.9063,695.125 Q909.4063,695.7188 908.6094,696.0469 Q907.5625,696.5 906.2813,696.5 Q904.7813,696.5 903.5781,695.9063 Q902.6094,695.4375 901.9219,694.4219 Q901.25,693.4063 901.25,692.2031 L901.25,691.1094 Q901.25,689.8594 901.8438,688.7656 Q902.4531,687.6719 903.5,687.0938 Q904.5625,686.5 905.75,686.5 Q906.4688,686.5 907.0938,686.75 Q907.7188,687 908.25,687.5 Z " fill="#000000"/><text fill="#000000" font-family="sans-serif" font-size="12" lengthAdjust="spacing" textLength="48" x="926.75" y="695.9102">Inventory</text><line style="stroke:#A80036;stroke-width:1.5;" x1="824.5" x2="1044.5" y1="707" y2="707"/><text fill="#000000" font-family="sans-serif" font-size="11" lengthAdjust="spacing" textLength="125" x="829.5" y="722.4189">-maxResourceAmount: int</text><line style="stroke:#A80036;stroke-width:1.5;" x1="824.5" x2="1044.5" y1="728.8359" y2="728.8359"/><text fill="#000000" font-family="sans-serif" font-size="11" lengthAdjust="spacing" textLength="174" x="829.5" y="744.2549">+addGeneticCode(gc: GeneticCode)</text><text fill="#000000" font-family="sans-serif" font-size="11" lengthAdjust="spacing" textLength="148" x="829.5" y="758.0908">+addEquipment(eq: Equipment)</text><text fill="#000000" font-family="sans-serif" font-size="11" lengthAdjust="spacing" textLength="159" x="829.5" y="771.9268">+addCraftedAgent(agent: Agent)</text><text fill="#000000" font-family="sans-serif" font-size="11" lengthAdjust="spacing" textLength="148" x="829.5" y="785.7627">+addResource(res: Resource)</text><text fill="#000000" font-family="sans-serif" font-size="11" lengthAdjust="spacing" textLength="192" x="829.5" y="799.5986">+removeGeneticCode(gc: GeneticCode)</text><text fill="#000000" font-family="sans-serif" font-size="11" lengthAdjust="spacing" textLength="210" x="829.5" y="813.4346">+removeEquipment(eq: Equipment): boolean</text><text fill="#000000" font-family="sans-serif" font-size="11" lengthAdjust="spacing" textLength="177" x="829.5" y="827.2705">+removeCraftedAgent(agent: Agent)</text><text fill="#000000" font-family="sans-serif" font-size="11" lengthAdjust="spacing" textLength="166" x="829.5" y="841.1064">+removeResource(res: Resource)</text><text fill="#000000" font-family="sans-serif" font-size="11" lengthAdjust="spacing" textLength="196" x="829.5" y="854.9424">+steal(from: Inventory, what: Equipment)</text><!--MD5=[e9ef9b1f56f2c4beba1690ce0114dda5]
class GeneticCode--><rect codeLine="81" fill="#FEFECE" filter="url(#f25k34axb1fa7)" height="89.5078" id="GeneticCode" style="stroke:#A80036;stroke-width:1.5;" width="231" x="1054" y="941.5"/><ellipse cx="1129.25" cy="957.5" fill="#ADD1B2" rx="11" ry="11" style="stroke:#A80036;stroke-width:1.0;"/><path d="M1131.25,954 Q1131.4531,953.5 1131.6875,953.25 Q1131.9219,953 1132.1875,953 Q1132.6563,953 1132.9531,953.2813 Q1133.25,953.5625 1133.25,954.2188 L1133.25,955.7813 Q1133.25,956.4375 1132.9688,956.7188 Q1132.6875,957 1132.25,957 Q1131.8594,957 1131.6094,956.8281 Q1131.3594,956.6563 1131.25,956.2031 Q1131.2031,955.8906 1131.0313,955.7188 Q1130.7188,955.3906 1130.1563,955.2031 Q1129.5938,955 1129.0313,955 Q1128.3281,955 1127.7344,955.2813 Q1127.1563,955.5625 1126.7031,956.1875 Q1126.25,956.8125 1126.25,957.6719 L1126.25,958.5938 Q1126.25,959.625 1127.0938,960.3125 Q1127.9375,961 1129.4375,961 Q1130.3281,961 1130.9531,960.7969 Q1131.3125,960.6875 1131.7188,960.3281 Q1131.9844,960.125 1132.125,960.0625 Q1132.2656,960 1132.4375,960 Q1132.7656,960 1133,960.2656 Q1133.25,960.5156 1133.25,960.875 Q1133.25,961.2188 1132.9063,961.625 Q1132.4063,962.2188 1131.6094,962.5469 Q1130.5625,963 1129.2813,963 Q1127.7813,963 1126.5781,962.4063 Q1125.6094,961.9375 1124.9219,960.9219 Q1124.25,959.9063 1124.25,958.7031 L1124.25,957.6094 Q1124.25,956.3594 1124.8438,955.2656 Q1125.4531,954.1719 1126.5,953.5938 Q1127.5625,953 1128.75,953 Q1129.4688,953 1130.0938,953.25 Q1130.7188,953.5 1131.25,954 Z " fill="#000000"/><text fill="#000000" font-family="sans-serif" font-size="12" lengthAdjust="spacing" textLength="72" x="1149.75" y="962.4102">GeneticCode</text><line style="stroke:#A80036;stroke-width:1.5;" x1="1055" x2="1284" y1="973.5" y2="973.5"/><line style="stroke:#A80036;stroke-width:1.5;" x1="1055" x2="1284" y1="981.5" y2="981.5"/><text fill="#000000" font-family="sans-serif" font-size="11" lengthAdjust="spacing" textLength="110" x="1060" y="996.9189">+collect(inv: Inventory)</text><text fill="#000000" font-family="sans-serif" font-size="11" lengthAdjust="spacing" textLength="219" x="1060" y="1010.7549">+isCraftable(resources: Resource[]): boolean</text><text fill="#000000" font-family="sans-serif" font-size="11" lengthAdjust="spacing" textLength="102" x="1060" y="1024.5908">+craft(inv: Inventory)</text><!--MD5=[18e4d9ca2a6cdced7b66e5fef94ef6f6]
class Tile--><rect codeLine="131" fill="#FEFECE" filter="url(#f25k34axb1fa7)" height="144.8516" id="Tile" style="stroke:#A80036;stroke-width:1.5;" width="194" x="1070.5" y="306.5"/><ellipse cx="1153.25" cy="322.5" fill="#A9DCDF" rx="11" ry="11" style="stroke:#A80036;stroke-width:1.0;"/><path d="M1155,324 L1151.7031,324 L1151.2656,325 L1151.2656,325 L1151.7344,325 L1152.25,325.625 L1152.25,326 L1152.25,326.375 L1151.7344,327 L1151.2656,327 L1149.375,327 L1148.7656,327 L1148.25,326.375 L1148.25,326 L1148.25,325.625 L1148.7656,325 L1149.375,325 L1151.6875,319 L1150.8125,319 L1149.7656,319 L1149.25,318.375 L1149.25,318 L1149.25,317.625 L1149.7656,317 L1150.8125,317 L1154.4844,317 L1157.1719,325 L1157.7344,325 L1157.7344,325 L1158.25,325.625 L1158.25,326 L1158.25,326.375 L1157.7344,327 L1157.1719,327 L1155.2813,327 L1154.7656,327 L1154.25,326.375 L1154.25,326 L1154.25,325.625 L1154.7656,325 L1155.2813,325 L1155.2813,325 L1155,324 Z M1154.4531,322 L1153.25,318.4219 L1152.2188,322 L1154.4531,322 Z " fill="#000000"/><text fill="#000000" font-family="sans-serif" font-size="12" font-style="italic" lengthAdjust="spacing" textLength="20" x="1173.75" y="327.4102">Tile</text><line style="stroke:#A80036;stroke-width:1.5;" x1="1071.5" x2="1263.5" y1="338.5" y2="338.5"/><text fill="#000000" font-family="sans-serif" font-size="11" lengthAdjust="spacing" textLength="31" x="1076.5" y="353.9189">#id: int</text><text fill="#000000" font-family="sans-serif" font-size="11" lengthAdjust="spacing" textLength="65" x="1076.5" y="367.7549">#name: string</text><line style="stroke:#A80036;stroke-width:1.5;" x1="1071.5" x2="1263.5" y1="374.1719" y2="374.1719"/><text fill="#000000" font-family="sans-serif" font-size="11" lengthAdjust="spacing" textLength="182" x="1076.5" y="389.5908">+getPlayersToStealFrom(): Virologist[]</text><text fill="#000000" font-family="sans-serif" font-size="11" font-style="italic" lengthAdjust="spacing" textLength="132" x="1076.5" y="403.4268">+collectItem(inv: Inventory)</text><text fill="#000000" font-family="sans-serif" font-size="11" font-style="italic" lengthAdjust="spacing" textLength="170" x="1076.5" y="417.2627">+getCollectableItem(): Collectable</text><text fill="#000000" font-family="sans-serif" font-size="11" lengthAdjust="spacing" textLength="158" x="1076.5" y="431.0986">+addVirologist(player: Virologist)</text><text fill="#000000" font-family="sans-serif" font-size="11" lengthAdjust="spacing" textLength="176" x="1076.5" y="444.9346">+removeVirologist(player: Virologist)</text><!--MD5=[ffbe56a7748d828ba7d90b566e12a2a0]
class Equipment--><rect codeLine="110" fill="#FEFECE" filter="url(#f25k34axb1fa7)" height="131.0156" id="Equipment" style="stroke:#A80036;stroke-width:1.5;" width="301" x="552" y="921"/><ellipse cx="668.25" cy="937" fill="#A9DCDF" rx="11" ry="11" style="stroke:#A80036;stroke-width:1.0;"/><path d="M670,938.5 L666.7031,938.5 L666.2656,939.5 L666.2656,939.5 L666.7344,939.5 L667.25,940.125 L667.25,940.5 L667.25,940.875 L666.7344,941.5 L666.2656,941.5 L664.375,941.5 L663.7656,941.5 L663.25,940.875 L663.25,940.5 L663.25,940.125 L663.7656,939.5 L664.375,939.5 L666.6875,933.5 L665.8125,933.5 L664.7656,933.5 L664.25,932.875 L664.25,932.5 L664.25,932.125 L664.7656,931.5 L665.8125,931.5 L669.4844,931.5 L672.1719,939.5 L672.7344,939.5 L672.7344,939.5 L673.25,940.125 L673.25,940.5 L673.25,940.875 L672.7344,941.5 L672.1719,941.5 L670.2813,941.5 L669.7656,941.5 L669.25,940.875 L669.25,940.5 L669.25,940.125 L669.7656,939.5 L670.2813,939.5 L670.2813,939.5 L670,938.5 Z M669.4531,936.5 L668.25,932.9219 L667.2188,936.5 L669.4531,936.5 Z " fill="#000000"/><text fill="#000000" font-family="sans-serif" font-size="12" font-style="italic" lengthAdjust="spacing" textLength="60" x="688.75" y="941.9102">Equipment</text><line style="stroke:#A80036;stroke-width:1.5;" x1="553" x2="852" y1="953" y2="953"/><line style="stroke:#A80036;stroke-width:1.5;" x1="553" x2="852" y1="961" y2="961"/><text fill="#000000" font-family="sans-serif" font-size="11" lengthAdjust="spacing" textLength="110" x="558" y="976.4189">+collect(inv: Inventory)</text><text fill="#000000" font-family="sans-serif" font-size="11" lengthAdjust="spacing" textLength="165" x="558" y="990.2549">+onTurnImpact(to: Virologist): void</text><text fill="#000000" font-family="sans-serif" font-size="11" lengthAdjust="spacing" textLength="171" x="558" y="1004.0908">+endTurnImpact(to: Virologist): void</text><text fill="#000000" font-family="sans-serif" font-size="11" lengthAdjust="spacing" textLength="289" x="558" y="1017.9268">+counterImpact(agent: Agent, from: Virologist, to: Virologist)</text><text fill="#000000" font-family="sans-serif" font-size="11" lengthAdjust="spacing" textLength="122" x="558" y="1031.7627">+allowStealing(): boolean</text><text fill="#000000" font-family="sans-serif" font-size="11" lengthAdjust="spacing" textLength="145" x="558" y="1045.5986">+decrement(Virologist v): void</text><!--MD5=[a76cd7b5477b13724ac4c55703ca1246]
class ProtectiveCloak--><rect codeLine="119" fill="#FEFECE" filter="url(#f25k34axb1fa7)" height="61.8359" id="ProtectiveCloak" style="stroke:#A80036;stroke-width:1.5;" width="301" x="25" y="1160.5"/><ellipse cx="128.75" cy="1176.5" fill="#ADD1B2" rx="11" ry="11" style="stroke:#A80036;stroke-width:1.0;"/><path d="M130.75,1173 Q130.9531,1172.5 131.1875,1172.25 Q131.4219,1172 131.6875,1172 Q132.1563,1172 132.4531,1172.2813 Q132.75,1172.5625 132.75,1173.2188 L132.75,1174.7813 Q132.75,1175.4375 132.4688,1175.7188 Q132.1875,1176 131.75,1176 Q131.3594,1176 131.1094,1175.8281 Q130.8594,1175.6563 130.75,1175.2031 Q130.7031,1174.8906 130.5313,1174.7188 Q130.2188,1174.3906 129.6563,1174.2031 Q129.0938,1174 128.5313,1174 Q127.8281,1174 127.2344,1174.2813 Q126.6563,1174.5625 126.2031,1175.1875 Q125.75,1175.8125 125.75,1176.6719 L125.75,1177.5938 Q125.75,1178.625 126.5938,1179.3125 Q127.4375,1180 128.9375,1180 Q129.8281,1180 130.4531,1179.7969 Q130.8125,1179.6875 131.2188,1179.3281 Q131.4844,1179.125 131.625,1179.0625 Q131.7656,1179 131.9375,1179 Q132.2656,1179 132.5,1179.2656 Q132.75,1179.5156 132.75,1179.875 Q132.75,1180.2188 132.4063,1180.625 Q131.9063,1181.2188 131.1094,1181.5469 Q130.0625,1182 128.7813,1182 Q127.2813,1182 126.0781,1181.4063 Q125.1094,1180.9375 124.4219,1179.9219 Q123.75,1178.9063 123.75,1177.7031 L123.75,1176.6094 Q123.75,1175.3594 124.3438,1174.2656 Q124.9531,1173.1719 126,1172.5938 Q127.0625,1172 128.25,1172 Q128.9688,1172 129.5938,1172.25 Q130.2188,1172.5 130.75,1173 Z " fill="#000000"/><text fill="#000000" font-family="sans-serif" font-size="12" lengthAdjust="spacing" textLength="85" x="149.25" y="1181.4102">ProtectiveCloak</text><line style="stroke:#A80036;stroke-width:1.5;" x1="26" x2="325" y1="1192.5" y2="1192.5"/><line style="stroke:#A80036;stroke-width:1.5;" x1="26" x2="325" y1="1200.5" y2="1200.5"/><text fill="#000000" font-family="sans-serif" font-size="11" lengthAdjust="spacing" textLength="289" x="31" y="1215.9189">+counterImpact(agent: Agent, from: Virologist, to: Virologist)</text><!--MD5=[ce71e8b4822a13f5ea72e94958aa0250]
class Bag--><rect codeLine="123" fill="#FEFECE" filter="url(#f25k34axb1fa7)" height="75.6719" id="Bag" style="stroke:#A80036;stroke-width:1.5;" width="183" x="697" y="1153.5"/><ellipse cx="773.25" cy="1169.5" fill="#ADD1B2" rx="11" ry="11" style="stroke:#A80036;stroke-width:1.0;"/><path d="M775.25,1166 Q775.4531,1165.5 775.6875,1165.25 Q775.9219,1165 776.1875,1165 Q776.6563,1165 776.9531,1165.2813 Q777.25,1165.5625 777.25,1166.2188 L777.25,1167.7813 Q777.25,1168.4375 776.9688,1168.7188 Q776.6875,1169 776.25,1169 Q775.8594,1169 775.6094,1168.8281 Q775.3594,1168.6563 775.25,1168.2031 Q775.2031,1167.8906 775.0313,1167.7188 Q774.7188,1167.3906 774.1563,1167.2031 Q773.5938,1167 773.0313,1167 Q772.3281,1167 771.7344,1167.2813 Q771.1563,1167.5625 770.7031,1168.1875 Q770.25,1168.8125 770.25,1169.6719 L770.25,1170.5938 Q770.25,1171.625 771.0938,1172.3125 Q771.9375,1173 773.4375,1173 Q774.3281,1173 774.9531,1172.7969 Q775.3125,1172.6875 775.7188,1172.3281 Q775.9844,1172.125 776.125,1172.0625 Q776.2656,1172 776.4375,1172 Q776.7656,1172 777,1172.2656 Q777.25,1172.5156 777.25,1172.875 Q777.25,1173.2188 776.9063,1173.625 Q776.4063,1174.2188 775.6094,1174.5469 Q774.5625,1175 773.2813,1175 Q771.7813,1175 770.5781,1174.4063 Q769.6094,1173.9375 768.9219,1172.9219 Q768.25,1171.9063 768.25,1170.7031 L768.25,1169.6094 Q768.25,1168.3594 768.8438,1167.2656 Q769.4531,1166.1719 770.5,1165.5938 Q771.5625,1165 772.75,1165 Q773.4688,1165 774.0938,1165.25 Q774.7188,1165.5 775.25,1166 Z " fill="#000000"/><text fill="#000000" font-family="sans-serif" font-size="12" lengthAdjust="spacing" textLength="22" x="793.75" y="1174.4102">Bag</text><line style="stroke:#A80036;stroke-width:1.5;" x1="698" x2="879" y1="1185.5" y2="1185.5"/><line style="stroke:#A80036;stroke-width:1.5;" x1="698" x2="879" y1="1193.5" y2="1193.5"/><text fill="#000000" font-family="sans-serif" font-size="11" lengthAdjust="spacing" textLength="165" x="703" y="1208.9189">+onTurnImpact(to: Virologist): void</text><text fill="#000000" font-family="sans-serif" font-size="11" lengthAdjust="spacing" textLength="171" x="703" y="1222.7549">+endTurnImpact(to: Virologist): void</text><!--MD5=[85e2f7b455e79529a9285138ef9d8711]
class Glove--><rect codeLine="127" fill="#FEFECE" filter="url(#f25k34axb1fa7)" height="61.8359" id="Glove" style="stroke:#A80036;stroke-width:1.5;" width="327" x="915" y="1160.5"/><ellipse cx="1058.75" cy="1176.5" fill="#ADD1B2" rx="11" ry="11" style="stroke:#A80036;stroke-width:1.0;"/><path d="M1060.75,1173 Q1060.9531,1172.5 1061.1875,1172.25 Q1061.4219,1172 1061.6875,1172 Q1062.1563,1172 1062.4531,1172.2813 Q1062.75,1172.5625 1062.75,1173.2188 L1062.75,1174.7813 Q1062.75,1175.4375 1062.4688,1175.7188 Q1062.1875,1176 1061.75,1176 Q1061.3594,1176 1061.1094,1175.8281 Q1060.8594,1175.6563 1060.75,1175.2031 Q1060.7031,1174.8906 1060.5313,1174.7188 Q1060.2188,1174.3906 1059.6563,1174.2031 Q1059.0938,1174 1058.5313,1174 Q1057.8281,1174 1057.2344,1174.2813 Q1056.6563,1174.5625 1056.2031,1175.1875 Q1055.75,1175.8125 1055.75,1176.6719 L1055.75,1177.5938 Q1055.75,1178.625 1056.5938,1179.3125 Q1057.4375,1180 1058.9375,1180 Q1059.8281,1180 1060.4531,1179.7969 Q1060.8125,1179.6875 1061.2188,1179.3281 Q1061.4844,1179.125 1061.625,1179.0625 Q1061.7656,1179 1061.9375,1179 Q1062.2656,1179 1062.5,1179.2656 Q1062.75,1179.5156 1062.75,1179.875 Q1062.75,1180.2188 1062.4063,1180.625 Q1061.9063,1181.2188 1061.1094,1181.5469 Q1060.0625,1182 1058.7813,1182 Q1057.2813,1182 1056.0781,1181.4063 Q1055.1094,1180.9375 1054.4219,1179.9219 Q1053.75,1178.9063 1053.75,1177.7031 L1053.75,1176.6094 Q1053.75,1175.3594 1054.3438,1174.2656 Q1054.9531,1173.1719 1056,1172.5938 Q1057.0625,1172 1058.25,1172 Q1058.9688,1172 1059.5938,1172.25 Q1060.2188,1172.5 1060.75,1173 Z " fill="#000000"/><text fill="#000000" font-family="sans-serif" font-size="12" lengthAdjust="spacing" textLength="31" x="1079.25" y="1181.4102">Glove</text><line style="stroke:#A80036;stroke-width:1.5;" x1="916" x2="1241" y1="1192.5" y2="1192.5"/><line style="stroke:#A80036;stroke-width:1.5;" x1="916" x2="1241" y1="1200.5" y2="1200.5"/><text fill="#000000" font-family="sans-serif" font-size="11" lengthAdjust="spacing" textLength="315" x="921" y="1215.9189">+counterImpact(agent: Agent, from: Virologist, to: Virologist): void</text><!--MD5=[0caf3a413731a0de34fc6162fe213ed9]
class Laboratory--><rect codeLine="140" fill="#FEFECE" filter="url(#f25k34axb1fa7)" height="75.6719" id="Laboratory" style="stroke:#A80036;stroke-width:1.5;" width="170" x="1222.5" y="730"/><ellipse cx="1274.25" cy="746" fill="#ADD1B2" rx="11" ry="11" style="stroke:#A80036;stroke-width:1.0;"/><path d="M1276.25,742.5 Q1276.4531,742 1276.6875,741.75 Q1276.9219,741.5 1277.1875,741.5 Q1277.6563,741.5 1277.9531,741.7813 Q1278.25,742.0625 1278.25,742.7188 L1278.25,744.2813 Q1278.25,744.9375 1277.9688,745.2188 Q1277.6875,745.5 1277.25,745.5 Q1276.8594,745.5 1276.6094,745.3281 Q1276.3594,745.1563 1276.25,744.7031 Q1276.2031,744.3906 1276.0313,744.2188 Q1275.7188,743.8906 1275.1563,743.7031 Q1274.5938,743.5 1274.0313,743.5 Q1273.3281,743.5 1272.7344,743.7813 Q1272.1563,744.0625 1271.7031,744.6875 Q1271.25,745.3125 1271.25,746.1719 L1271.25,747.0938 Q1271.25,748.125 1272.0938,748.8125 Q1272.9375,749.5 1274.4375,749.5 Q1275.3281,749.5 1275.9531,749.2969 Q1276.3125,749.1875 1276.7188,748.8281 Q1276.9844,748.625 1277.125,748.5625 Q1277.2656,748.5 1277.4375,748.5 Q1277.7656,748.5 1278,748.7656 Q1278.25,749.0156 1278.25,749.375 Q1278.25,749.7188 1277.9063,750.125 Q1277.4063,750.7188 1276.6094,751.0469 Q1275.5625,751.5 1274.2813,751.5 Q1272.7813,751.5 1271.5781,750.9063 Q1270.6094,750.4375 1269.9219,749.4219 Q1269.25,748.4063 1269.25,747.2031 L1269.25,746.1094 Q1269.25,744.8594 1269.8438,743.7656 Q1270.4531,742.6719 1271.5,742.0938 Q1272.5625,741.5 1273.75,741.5 Q1274.4688,741.5 1275.0938,741.75 Q1275.7188,742 1276.25,742.5 Z " fill="#000000"/><text fill="#000000" font-family="sans-serif" font-size="12" lengthAdjust="spacing" textLength="58" x="1294.75" y="750.9102">Laboratory</text><line style="stroke:#A80036;stroke-width:1.5;" x1="1223.5" x2="1391.5" y1="762" y2="762"/><line style="stroke:#A80036;stroke-width:1.5;" x1="1223.5" x2="1391.5" y1="770" y2="770"/><text fill="#000000" font-family="sans-serif" font-size="11" lengthAdjust="spacing" textLength="129" x="1228.5" y="785.4189">+collectItem(inv: Inventory)</text><text fill="#000000" font-family="sans-serif" font-size="11" lengthAdjust="spacing" textLength="158" x="1228.5" y="799.2549">+getCollectableItem(): Collectable</text><!--MD5=[4f7b1328bb9e016e53c6771c8cbf71a3]
class Safehouse--><rect codeLine="145" fill="#FEFECE" filter="url(#f25k34axb1fa7)" height="75.6719" id="Safehouse" style="stroke:#A80036;stroke-width:1.5;" width="170" x="630.5" y="539"/><ellipse cx="681.25" cy="555" fill="#ADD1B2" rx="11" ry="11" style="stroke:#A80036;stroke-width:1.0;"/><path d="M683.25,551.5 Q683.4531,551 683.6875,550.75 Q683.9219,550.5 684.1875,550.5 Q684.6563,550.5 684.9531,550.7813 Q685.25,551.0625 685.25,551.7188 L685.25,553.2813 Q685.25,553.9375 684.9688,554.2188 Q684.6875,554.5 684.25,554.5 Q683.8594,554.5 683.6094,554.3281 Q683.3594,554.1563 683.25,553.7031 Q683.2031,553.3906 683.0313,553.2188 Q682.7188,552.8906 682.1563,552.7031 Q681.5938,552.5 681.0313,552.5 Q680.3281,552.5 679.7344,552.7813 Q679.1563,553.0625 678.7031,553.6875 Q678.25,554.3125 678.25,555.1719 L678.25,556.0938 Q678.25,557.125 679.0938,557.8125 Q679.9375,558.5 681.4375,558.5 Q682.3281,558.5 682.9531,558.2969 Q683.3125,558.1875 683.7188,557.8281 Q683.9844,557.625 684.125,557.5625 Q684.2656,557.5 684.4375,557.5 Q684.7656,557.5 685,557.7656 Q685.25,558.0156 685.25,558.375 Q685.25,558.7188 684.9063,559.125 Q684.4063,559.7188 683.6094,560.0469 Q682.5625,560.5 681.2813,560.5 Q679.7813,560.5 678.5781,559.9063 Q677.6094,559.4375 676.9219,558.4219 Q676.25,557.4063 676.25,556.2031 L676.25,555.1094 Q676.25,553.8594 676.8438,552.7656 Q677.4531,551.6719 678.5,551.0938 Q679.5625,550.5 680.75,550.5 Q681.4688,550.5 682.0938,550.75 Q682.7188,551 683.25,551.5 Z " fill="#000000"/><text fill="#000000" font-family="sans-serif" font-size="12" lengthAdjust="spacing" textLength="60" x="701.75" y="559.9102">Safehouse</text><line style="stroke:#A80036;stroke-width:1.5;" x1="631.5" x2="799.5" y1="571" y2="571"/><line style="stroke:#A80036;stroke-width:1.5;" x1="631.5" x2="799.5" y1="579" y2="579"/><text fill="#000000" font-family="sans-serif" font-size="11" lengthAdjust="spacing" textLength="129" x="636.5" y="594.4189">+collectItem(inv: Inventory)</text><text fill="#000000" font-family="sans-serif" font-size="11" lengthAdjust="spacing" textLength="158" x="636.5" y="608.2549">+getCollectableItem(): Collectable</text><!--MD5=[c5149b4909ffd2688ff51a939867f774]
class Warehouse--><rect codeLine="149" fill="#FEFECE" filter="url(#f25k34axb1fa7)" height="75.6719" id="Warehouse" style="stroke:#A80036;stroke-width:1.5;" width="170" x="1569.5" y="730"/><ellipse cx="1618.25" cy="746" fill="#ADD1B2" rx="11" ry="11" style="stroke:#A80036;stroke-width:1.0;"/><path d="M1620.25,742.5 Q1620.4531,742 1620.6875,741.75 Q1620.9219,741.5 1621.1875,741.5 Q1621.6563,741.5 1621.9531,741.7813 Q1622.25,742.0625 1622.25,742.7188 L1622.25,744.2813 Q1622.25,744.9375 1621.9688,745.2188 Q1621.6875,745.5 1621.25,745.5 Q1620.8594,745.5 1620.6094,745.3281 Q1620.3594,745.1563 1620.25,744.7031 Q1620.2031,744.3906 1620.0313,744.2188 Q1619.7188,743.8906 1619.1563,743.7031 Q1618.5938,743.5 1618.0313,743.5 Q1617.3281,743.5 1616.7344,743.7813 Q1616.1563,744.0625 1615.7031,744.6875 Q1615.25,745.3125 1615.25,746.1719 L1615.25,747.0938 Q1615.25,748.125 1616.0938,748.8125 Q1616.9375,749.5 1618.4375,749.5 Q1619.3281,749.5 1619.9531,749.2969 Q1620.3125,749.1875 1620.7188,748.8281 Q1620.9844,748.625 1621.125,748.5625 Q1621.2656,748.5 1621.4375,748.5 Q1621.7656,748.5 1622,748.7656 Q1622.25,749.0156 1622.25,749.375 Q1622.25,749.7188 1621.9063,750.125 Q1621.4063,750.7188 1620.6094,751.0469 Q1619.5625,751.5 1618.2813,751.5 Q1616.7813,751.5 1615.5781,750.9063 Q1614.6094,750.4375 1613.9219,749.4219 Q1613.25,748.4063 1613.25,747.2031 L1613.25,746.1094 Q1613.25,744.8594 1613.8438,743.7656 Q1614.4531,742.6719 1615.5,742.0938 Q1616.5625,741.5 1617.75,741.5 Q1618.4688,741.5 1619.0938,741.75 Q1619.7188,742 1620.25,742.5 Z " fill="#000000"/><text fill="#000000" font-family="sans-serif" font-size="12" lengthAdjust="spacing" textLength="64" x="1638.75" y="750.9102">Warehouse</text><line style="stroke:#A80036;stroke-width:1.5;" x1="1570.5" x2="1738.5" y1="762" y2="762"/><line style="stroke:#A80036;stroke-width:1.5;" x1="1570.5" x2="1738.5" y1="770" y2="770"/><text fill="#000000" font-family="sans-serif" font-size="11" lengthAdjust="spacing" textLength="129" x="1575.5" y="785.4189">+collectItem(inv: Inventory)</text><text fill="#000000" font-family="sans-serif" font-size="11" lengthAdjust="spacing" textLength="158" x="1575.5" y="799.2549">+getCollectableItem(): Collectable</text><!--MD5=[1abb7632e34a21a5ebaa58d0e04b6303]
class EmptyTile--><rect codeLine="153" fill="#FEFECE" filter="url(#f25k34axb1fa7)" height="75.6719" id="EmptyTile" style="stroke:#A80036;stroke-width:1.5;" width="170" x="1254.5" y="539"/><ellipse cx="1308.25" cy="555" fill="#ADD1B2" rx="11" ry="11" style="stroke:#A80036;stroke-width:1.0;"/><path d="M1310.25,551.5 Q1310.4531,551 1310.6875,550.75 Q1310.9219,550.5 1311.1875,550.5 Q1311.6563,550.5 1311.9531,550.7813 Q1312.25,551.0625 1312.25,551.7188 L1312.25,553.2813 Q1312.25,553.9375 1311.9688,554.2188 Q1311.6875,554.5 1311.25,554.5 Q1310.8594,554.5 1310.6094,554.3281 Q1310.3594,554.1563 1310.25,553.7031 Q1310.2031,553.3906 1310.0313,553.2188 Q1309.7188,552.8906 1309.1563,552.7031 Q1308.5938,552.5 1308.0313,552.5 Q1307.3281,552.5 1306.7344,552.7813 Q1306.1563,553.0625 1305.7031,553.6875 Q1305.25,554.3125 1305.25,555.1719 L1305.25,556.0938 Q1305.25,557.125 1306.0938,557.8125 Q1306.9375,558.5 1308.4375,558.5 Q1309.3281,558.5 1309.9531,558.2969 Q1310.3125,558.1875 1310.7188,557.8281 Q1310.9844,557.625 1311.125,557.5625 Q1311.2656,557.5 1311.4375,557.5 Q1311.7656,557.5 1312,557.7656 Q1312.25,558.0156 1312.25,558.375 Q1312.25,558.7188 1311.9063,559.125 Q1311.4063,559.7188 1310.6094,560.0469 Q1309.5625,560.5 1308.2813,560.5 Q1306.7813,560.5 1305.5781,559.9063 Q1304.6094,559.4375 1303.9219,558.4219 Q1303.25,557.4063 1303.25,556.2031 L1303.25,555.1094 Q1303.25,553.8594 1303.8438,552.7656 Q1304.4531,551.6719 1305.5,551.0938 Q1306.5625,550.5 1307.75,550.5 Q1308.4688,550.5 1309.0938,550.75 Q1309.7188,551 1310.25,551.5 Z " fill="#000000"/><text fill="#000000" font-family="sans-serif" font-size="12" lengthAdjust="spacing" textLength="54" x="1328.75" y="559.9102">EmptyTile</text><line style="stroke:#A80036;stroke-width:1.5;" x1="1255.5" x2="1423.5" y1="571" y2="571"/><line style="stroke:#A80036;stroke-width:1.5;" x1="1255.5" x2="1423.5" y1="579" y2="579"/><text fill="#000000" font-family="sans-serif" font-size="11" lengthAdjust="spacing" textLength="129" x="1260.5" y="594.4189">+collectItem(inv: Inventory)</text><text fill="#000000" font-family="sans-serif" font-size="11" lengthAdjust="spacing" textLength="158" x="1260.5" y="608.2549">+getCollectableItem(): Collectable</text><!--MD5=[4dfc6a72b8dd60daa1b635d583ff79da]
class Map--><rect codeLine="158" fill="#FEFECE" filter="url(#f25k34axb1fa7)" height="61.8359" id="Map" style="stroke:#A80036;stroke-width:1.5;" width="77" x="1129" y="157"/><ellipse cx="1153.9" cy="173" fill="#ADD1B2" rx="11" ry="11" style="stroke:#A80036;stroke-width:1.0;"/><path d="M1155.9,169.5 Q1156.1031,169 1156.3375,168.75 Q1156.5719,168.5 1156.8375,168.5 Q1157.3063,168.5 1157.6031,168.7813 Q1157.9,169.0625 1157.9,169.7188 L1157.9,171.2813 Q1157.9,171.9375 1157.6188,172.2188 Q1157.3375,172.5 1156.9,172.5 Q1156.5094,172.5 1156.2594,172.3281 Q1156.0094,172.1563 1155.9,171.7031 Q1155.8531,171.3906 1155.6813,171.2188 Q1155.3688,170.8906 1154.8063,170.7031 Q1154.2438,170.5 1153.6813,170.5 Q1152.9781,170.5 1152.3844,170.7813 Q1151.8063,171.0625 1151.3531,171.6875 Q1150.9,172.3125 1150.9,173.1719 L1150.9,174.0938 Q1150.9,175.125 1151.7438,175.8125 Q1152.5875,176.5 1154.0875,176.5 Q1154.9781,176.5 1155.6031,176.2969 Q1155.9625,176.1875 1156.3688,175.8281 Q1156.6344,175.625 1156.775,175.5625 Q1156.9156,175.5 1157.0875,175.5 Q1157.4156,175.5 1157.65,175.7656 Q1157.9,176.0156 1157.9,176.375 Q1157.9,176.7188 1157.5563,177.125 Q1157.0563,177.7188 1156.2594,178.0469 Q1155.2125,178.5 1153.9313,178.5 Q1152.4313,178.5 1151.2281,177.9063 Q1150.2594,177.4375 1149.5719,176.4219 Q1148.9,175.4063 1148.9,174.2031 L1148.9,173.1094 Q1148.9,171.8594 1149.4938,170.7656 Q1150.1031,169.6719 1151.15,169.0938 Q1152.2125,168.5 1153.4,168.5 Q1154.1188,168.5 1154.7438,168.75 Q1155.3688,169 1155.9,169.5 Z " fill="#000000"/><text fill="#000000" font-family="sans-serif" font-size="12" lengthAdjust="spacing" textLength="23" x="1170.1" y="177.9102">Map</text><line style="stroke:#A80036;stroke-width:1.5;" x1="1130" x2="1205" y1="189" y2="189"/><line style="stroke:#A80036;stroke-width:1.5;" x1="1130" x2="1205" y1="197" y2="197"/><text fill="#000000" font-family="sans-serif" font-size="11" lengthAdjust="spacing" textLength="65" x="1135" y="212.4189">+createMap()</text><!--MD5=[1d7ba1c7002d54515419844fbd155368]
class Controller--><rect codeLine="169" fill="#FEFECE" filter="url(#f25k34axb1fa7)" height="89.5078" id="Controller" style="stroke:#A80036;stroke-width:1.5;" width="102" x="1116.5" y="7"/><ellipse cx="1138.7" cy="23" fill="#ADD1B2" rx="11" ry="11" style="stroke:#A80036;stroke-width:1.0;"/><path d="M1140.7,19.5 Q1140.9031,19 1141.1375,18.75 Q1141.3719,18.5 1141.6375,18.5 Q1142.1063,18.5 1142.4031,18.7813 Q1142.7,19.0625 1142.7,19.7188 L1142.7,21.2813 Q1142.7,21.9375 1142.4188,22.2188 Q1142.1375,22.5 1141.7,22.5 Q1141.3094,22.5 1141.0594,22.3281 Q1140.8094,22.1563 1140.7,21.7031 Q1140.6531,21.3906 1140.4813,21.2188 Q1140.1688,20.8906 1139.6063,20.7031 Q1139.0438,20.5 1138.4813,20.5 Q1137.7781,20.5 1137.1844,20.7813 Q1136.6063,21.0625 1136.1531,21.6875 Q1135.7,22.3125 1135.7,23.1719 L1135.7,24.0938 Q1135.7,25.125 1136.5438,25.8125 Q1137.3875,26.5 1138.8875,26.5 Q1139.7781,26.5 1140.4031,26.2969 Q1140.7625,26.1875 1141.1688,25.8281 Q1141.4344,25.625 1141.575,25.5625 Q1141.7156,25.5 1141.8875,25.5 Q1142.2156,25.5 1142.45,25.7656 Q1142.7,26.0156 1142.7,26.375 Q1142.7,26.7188 1142.3563,27.125 Q1141.8563,27.7188 1141.0594,28.0469 Q1140.0125,28.5 1138.7313,28.5 Q1137.2313,28.5 1136.0281,27.9063 Q1135.0594,27.4375 1134.3719,26.4219 Q1133.7,25.4063 1133.7,24.2031 L1133.7,23.1094 Q1133.7,21.8594 1134.2938,20.7656 Q1134.9031,19.6719 1135.95,19.0938 Q1137.0125,18.5 1138.2,18.5 Q1138.9188,18.5 1139.5438,18.75 Q1140.1688,19 1140.7,19.5 Z " fill="#000000"/><text fill="#000000" font-family="sans-serif" font-size="12" lengthAdjust="spacing" textLength="54" x="1154.3" y="27.9102">Controller</text><line style="stroke:#A80036;stroke-width:1.5;" x1="1117.5" x2="1217.5" y1="39" y2="39"/><text fill="#000000" font-family="sans-serif" font-size="11" lengthAdjust="spacing" textLength="80" x="1122.5" y="54.4189">-activePlayer: int</text><line style="stroke:#A80036;stroke-width:1.5;" x1="1117.5" x2="1217.5" y1="60.8359" y2="60.8359"/><text fill="#000000" font-family="sans-serif" font-size="11" lengthAdjust="spacing" textLength="90" x="1122.5" y="76.2549">+startGame(): void</text><text fill="#000000" font-family="sans-serif" font-size="11" lengthAdjust="spacing" textLength="90" x="1122.5" y="90.0908">-nextRound(): void</text><!--MD5=[0f8b194217655d332f3f52885d0189ea]
reverse link Collectable to Resource--><path d="M1168.42,597.6 C1258.62,620.16 1394.08,656.5 1410.5,675 C1530.97,810.72 1518.24,1048.49 1506.82,1146.43 " fill="none" id="Collectable-backto-Resource" style="stroke:#A80036;stroke-width:1.0;stroke-dasharray:7.0,7.0;"/><polygon fill="none" points="1166.52,604.34,1148.8,592.73,1169.89,590.75,1166.52,604.34" style="stroke:#A80036;stroke-width:1.0;"/><!--MD5=[4136f8c348357ffa40b650c5cee03ccd]
reverse link Resource to ResourceType--><path codeLine="13" d="M1500.5,1249.9 C1500.5,1278.69 1500.5,1312.7 1500.5,1337.99 " fill="none" id="Resource-backto-ResourceType" style="stroke:#A80036;stroke-width:1.0;"/><polygon fill="#A80036" points="1500.5,1236.68,1496.5,1242.68,1500.5,1248.68,1504.5,1242.68,1500.5,1236.68" style="stroke:#A80036;stroke-width:1.0;"/><text fill="#000000" font-family="sans-serif" font-size="13" lengthAdjust="spacing" textLength="44" x="1452.4438" y="1327.0647">-type, 1</text><!--MD5=[48a32b381bd0478f9c278840f73d7611]
reverse link Effect to Agent--><path d="M498.46,846.93 C501.32,922.42 505.65,1036.29 508.52,1111.98 " fill="none" id="Effect-backto-Agent" style="stroke:#A80036;stroke-width:1.0;stroke-dasharray:7.0,7.0;"/><polygon fill="none" points="491.45,846.98,497.69,826.72,505.44,846.44,491.45,846.98" style="stroke:#A80036;stroke-width:1.0;"/><!--MD5=[a7d5ccfb9088b8210a90e968e7801d3a]
reverse link Agent to AmnesiaVirus--><path d="M462.2,1289.24 C453.38,1306.54 444.7,1323.58 437.43,1337.86 " fill="none" id="Agent-backto-AmnesiaVirus" style="stroke:#A80036;stroke-width:1.0;"/><polygon fill="none" points="456.07,1285.86,471.38,1271.22,468.54,1292.22,456.07,1285.86" style="stroke:#A80036;stroke-width:1.0;"/><!--MD5=[a8a6346d9cc26ede44f4b6e24045c557]
reverse link Agent to StunVirus--><path d="M560.71,1289.07 C568.17,1303.71 575.54,1318.17 582.04,1330.93 " fill="none" id="Agent-backto-StunVirus" style="stroke:#A80036;stroke-width:1.0;"/><polygon fill="none" points="554.46,1292.22,551.62,1271.22,566.93,1285.86,554.46,1292.22" style="stroke:#A80036;stroke-width:1.0;"/><!--MD5=[931b35c9023dd3974f651c4f19c832dd]
reverse link Agent to VitusDanceVirus--><path d="M648.94,1282.4 C678.92,1302.01 709.02,1321.7 733.71,1337.86 " fill="none" id="Agent-backto-VitusDanceVirus" style="stroke:#A80036;stroke-width:1.0;"/><polygon fill="none" points="644.75,1288.03,631.85,1271.22,652.41,1276.31,644.75,1288.03" style="stroke:#A80036;stroke-width:1.0;"/><!--MD5=[a6904c6eaa961520987307df4c488bce]
reverse link Agent to Vaccine--><path d="M342.89,1279.43 C302.95,1300.02 262.44,1320.9 229.52,1337.87 " fill="none" id="Agent-backto-Vaccine" style="stroke:#A80036;stroke-width:1.0;"/><polygon fill="none" points="339.87,1273.1,360.86,1270.16,346.29,1285.55,339.87,1273.1" style="stroke:#A80036;stroke-width:1.0;"/><!--MD5=[a9bf2fda0d22136215a837471dd366cb]
reverse link Collectable to GeneticCode--><path d="M1108.51,626.77 C1114.41,641.99 1120.34,658.99 1124.5,675 C1148.71,768.18 1160.94,880.71 1166.19,941.44 " fill="none" id="Collectable-backto-GeneticCode" style="stroke:#A80036;stroke-width:1.0;stroke-dasharray:7.0,7.0;"/><polygon fill="none" points="1101.93,629.19,1100.92,608.02,1114.91,623.93,1101.93,629.19" style="stroke:#A80036;stroke-width:1.0;"/><!--MD5=[b6f67d9bb96388ca5a8941ecc491e681]
link Tile to Collectable--><path codeLine="91" d="M1138.28,451.59 C1125.85,482.04 1111.92,516.17 1101.8,540.96 " fill="none" id="Tile-to-Collectable" style="stroke:#A80036;stroke-width:1.0;stroke-dasharray:7.0,7.0;"/><polygon fill="#A80036" points="1099.83,545.79,1106.9481,538.9832,1101.7287,541.1645,1099.5473,535.9452,1099.83,545.79" style="stroke:#A80036;stroke-width:1.0;"/><!--MD5=[11265872cfee522af2695b44c5b87e0c]
link Collectable to Inventory--><path codeLine="92" d="M1062.92,608.37 C1049.02,625.53 1030.8,648.04 1012.47,670.68 " fill="none" id="Collectable-to-Inventory" style="stroke:#A80036;stroke-width:1.0;stroke-dasharray:7.0,7.0;"/><polygon fill="#A80036" points="1009.29,674.62,1018.0599,670.1379,1012.4343,670.7324,1011.8398,665.1069,1009.29,674.62" style="stroke:#A80036;stroke-width:1.0;"/><!--MD5=[a1dfe37600535fde98007b1f9d24b7df]
link Virologist to GeneticCode--><path codeLine="93" d="M948.96,479.23 C963.67,522.63 983.95,573.09 1009.5,615 C1028.17,645.63 1045.83,643.78 1063.5,675 C1106.09,750.24 1091.98,779.38 1120.5,861 C1129.3,886.18 1140.06,913.82 1149.26,936.65 " fill="none" id="Virologist-to-GeneticCode" style="stroke:#A80036;stroke-width:1.0;stroke-dasharray:7.0,7.0;"/><polygon fill="#A80036" points="1151.2,941.44,1151.5453,931.5972,1149.3308,936.8026,1144.1254,934.588,1151.2,941.44" style="stroke:#A80036;stroke-width:1.0;"/><!--MD5=[bdbe34e6d9a750cd1752d63814bf99ac]
link Virologist to Agent--><path codeLine="94" d="M822.46,394.7 C681.99,421.76 429.22,494.25 327.5,675 C246.98,818.09 358.96,1002.85 440.28,1107.85 " fill="none" id="Virologist-to-Agent" style="stroke:#A80036;stroke-width:1.0;stroke-dasharray:7.0,7.0;"/><polygon fill="#A80036" points="443.4,1111.86,441.0248,1102.3019,440.3273,1107.9155,434.7136,1107.2181,443.4,1111.86" style="stroke:#A80036;stroke-width:1.0;"/><!--MD5=[d03a49ab3870be4550990707d9d87bb6]
link Equipment to Agent--><path codeLine="95" d="M641.8,1052.01 C625.01,1069.86 606.55,1089.48 588.94,1108.19 " fill="none" id="Equipment-to-Agent" style="stroke:#A80036;stroke-width:1.0;stroke-dasharray:7.0,7.0;"/><polygon fill="#A80036" points="585.43,1111.92,594.5111,1108.1077,588.8568,1108.279,588.6855,1102.6247,585.43,1111.92" style="stroke:#A80036;stroke-width:1.0;"/><!--MD5=[c7feed02f19a13230698e5d952c2a497]
link Virologist to Inventory--><path codeLine="97" d="M924.09,479.16 C926.27,539.4 929.03,615.8 931.16,674.74 " fill="none" id="Virologist-Inventory" style="stroke:#A80036;stroke-width:1.0;"/><text fill="#000000" font-family="sans-serif" font-size="13" lengthAdjust="spacing" textLength="69" x="852.82" y="500.6039">-virologist, 1</text><text fill="#000000" font-family="sans-serif" font-size="13" lengthAdjust="spacing" textLength="70" x="858.1048" y="664.1656">-inventory, 1</text><!--MD5=[ce4c7899d3f1528f67a831a102741450]
reverse link Virologist to Effect--><path codeLine="98" d="M810.08,417.46 C746.17,443.55 667.7,483.67 612.5,539 C564.43,587.19 532.02,659.22 513.73,709.38 " fill="none" id="Virologist-backto-Effect" style="stroke:#A80036;stroke-width:1.0;"/><polygon fill="#A80036" points="822.25,412.59,815.193,411.1073,811.1101,417.0512,818.1671,418.5339,822.25,412.59" style="stroke:#A80036;stroke-width:1.0;"/><text fill="#000000" font-family="sans-serif" font-size="13" lengthAdjust="spacing" textLength="105" x="404.5533" y="698.7663">-activeEffects, 0..*</text><!--MD5=[830b2f6f82d2e699b299ff1dd58a454b]
reverse link Inventory to GeneticCode--><path codeLine="100" d="M1044.11,869.98 C1071.37,895.09 1099.2,920.73 1121.69,941.45 " fill="none" id="Inventory-backto-GeneticCode" style="stroke:#A80036;stroke-width:1.0;"/><polygon fill="#A80036" points="1034.5,861.13,1036.1987,868.1382,1043.3212,869.2655,1041.6224,862.2574,1034.5,861.13" style="stroke:#A80036;stroke-width:1.0;"/><text fill="#000000" font-family="sans-serif" font-size="13" lengthAdjust="spacing" textLength="101" x="1005.0218" y="930.5575">-learntCodes, 0..*</text><!--MD5=[528a28e1838f1efb263e48c7cc7185cf]
reverse link Inventory to Equipment--><path codeLine="101" d="M826.12,870.14 C807.59,887.43 788.8,904.96 771.66,920.96 " fill="none" id="Inventory-backto-Equipment" style="stroke:#A80036;stroke-width:1.0;"/><polygon fill="#A80036" points="835.77,861.13,828.6529,862.2905,826.9868,869.3065,834.1039,868.146,835.77,861.13" style="stroke:#A80036;stroke-width:1.0;"/><text fill="#000000" font-family="sans-serif" font-size="13" lengthAdjust="spacing" textLength="155" x="615.6957" y="909.9715">-pickedUpEquipments, 0..*</text><!--MD5=[027634748fd7779f3e60e24761a20163]
reverse link Inventory to Agent--><path codeLine="102" d="M935.33,874.2 C930.32,933.24 914.37,1004.38 870.5,1052 C810.21,1117.44 762.43,1079.76 679.5,1112 C673.8,1114.22 668.02,1116.54 662.2,1118.93 " fill="none" id="Inventory-backto-Agent" style="stroke:#A80036;stroke-width:1.0;"/><polygon fill="#A80036" points="936.28,861.03,931.8555,866.7242,935.41,872.9984,939.8345,867.3042,936.28,861.03" style="stroke:#A80036;stroke-width:1.0;"/><text fill="#000000" font-family="sans-serif" font-size="13" lengthAdjust="spacing" textLength="112" x="670.2742" y="1129.9158">-craftedAgents, 0..*</text><!--MD5=[608bae47da2cb26972cc24b2c3cdd6d6]
reverse link Inventory to Resource--><path codeLine="103" d="M948.08,874.15 C961.12,934.07 986.64,1006.12 1036.5,1052 C1112.03,1121.5 1161.12,1082.76 1259.5,1112 C1295.35,1122.65 1333.97,1134.89 1369.56,1146.48 " fill="none" id="Inventory-backto-Resource" style="stroke:#A80036;stroke-width:1.0;"/><polygon fill="#A80036" points="945.4,861.17,942.6961,867.855,947.8269,872.922,950.5308,866.237,945.4,861.17" style="stroke:#A80036;stroke-width:1.0;"/><text fill="#000000" font-family="sans-serif" font-size="13" lengthAdjust="spacing" textLength="78" x="1264.4758" y="1135.5923">-resources, N</text><!--MD5=[7a4c21b2d2faa4b4ddf9fcc5e3748c7e]
reverse link GeneticCode to Resource--><path codeLine="105" d="M1252.63,1038.48 C1306.79,1071.7 1376.75,1114.61 1428.53,1146.36 " fill="none" id="GeneticCode-backto-Resource" style="stroke:#A80036;stroke-width:1.0;"/><polygon fill="#A80036" points="1241.32,1031.55,1244.3454,1038.0958,1251.5512,1037.8207,1248.5259,1031.275,1241.32,1031.55" style="stroke:#A80036;stroke-width:1.0;"/><text fill="#000000" font-family="sans-serif" font-size="13" lengthAdjust="spacing" textLength="49" x="1364.758" y="1135.7827">-price, N</text><!--MD5=[7f2e90b36e87ddda7eb383d1b5361eb1]
reverse link GeneticCode to Agent--><path codeLine="106" d="M1041.12,1025.86 C1009.92,1034.8 976.59,1044.02 945.5,1052 C828.11,1082.11 794.17,1072.79 679.5,1112 C673.86,1113.93 668.17,1115.99 662.44,1118.15 " fill="none" id="GeneticCode-backto-Agent" style="stroke:#A80036;stroke-width:1.0;"/><polygon fill="#A80036" points="1053.88,1022.19,1047.0073,1020.0067,1042.3487,1025.511,1049.2214,1027.6943,1053.88,1022.19" style="stroke:#A80036;stroke-width:1.0;"/><text fill="#000000" font-family="sans-serif" font-size="13" lengthAdjust="spacing" textLength="51" x="669.8836" y="1112.2272">-agent, 1</text><!--MD5=[ed3e0a97bd33a5164104b3d64a78201c]
link Virologist to Tile--><path codeLine="108" d="M1018.91,379 C1036.04,379 1053.16,379 1070.28,379 " fill="none" id="Virologist-Tile" style="stroke:#A80036;stroke-width:1.0;"/><text fill="#000000" font-family="sans-serif" font-size="13" lengthAdjust="spacing" textLength="74" x="987.8971" y="373.0443">-players, 0..*</text><text fill="#000000" font-family="sans-serif" font-size="13" lengthAdjust="spacing" textLength="72" x="991.0716" y="397.8492">-activeTile, 1</text><!--MD5=[ee5d11a555f13a68b9537ad812a541a7]
reverse link Effect to Equipment--><path d="M564.75,841.43 C589.26,867.06 616.65,895.71 640.52,920.67 " fill="none" id="Effect-backto-Equipment" style="stroke:#A80036;stroke-width:1.0;stroke-dasharray:7.0,7.0;"/><polygon fill="none" points="559.46,846.03,550.7,826.73,569.58,836.35,559.46,846.03" style="stroke:#A80036;stroke-width:1.0;"/><!--MD5=[20e3e2d17064009f1531e1f50cb0e83a]
reverse link Collectable to Equipment--><path d="M1006.51,586.57 C944.09,597.28 859.73,621.28 806.5,675 C788.74,692.92 745.61,835.26 720.83,920.87 " fill="none" id="Collectable-backto-Equipment" style="stroke:#A80036;stroke-width:1.0;stroke-dasharray:7.0,7.0;"/><polygon fill="none" points="1005.5,579.64,1026.34,583.48,1007.66,593.48,1005.5,579.64" style="stroke:#A80036;stroke-width:1.0;"/><!--MD5=[6b3722415a383bd74dd1bdc3e0e2a09f]
reverse link Equipment to ProtectiveCloak--><path d="M532.61,1042.4 C472.38,1062.92 404.45,1087.27 343.5,1112 C307.25,1126.71 267.57,1145.14 235.88,1160.44 " fill="none" id="Equipment-backto-ProtectiveCloak" style="stroke:#A80036;stroke-width:1.0;"/><polygon fill="none" points="530.69,1035.66,551.88,1035.88,535.18,1048.92,530.69,1035.66" style="stroke:#A80036;stroke-width:1.0;"/><!--MD5=[466911e97685cb26f098cd232a5d4f54]
reverse link Equipment to Bag--><path d="M737.68,1070.53 C749.87,1099.32 762.94,1130.17 772.77,1153.37 " fill="none" id="Equipment-backto-Bag" style="stroke:#A80036;stroke-width:1.0;"/><polygon fill="none" points="731.19,1073.16,729.83,1052.01,744.08,1067.69,731.19,1073.16" style="stroke:#A80036;stroke-width:1.0;"/><!--MD5=[6427eaf747e5babacb8dcce1da559e51]
reverse link Equipment to Glove--><path d="M839.61,1061.53 C902.98,1095.74 974.7,1134.46 1022.87,1160.47 " fill="none" id="Equipment-backto-Glove" style="stroke:#A80036;stroke-width:1.0;"/><polygon fill="none" points="836.26,1067.67,821.99,1052.01,842.91,1055.35,836.26,1067.67" style="stroke:#A80036;stroke-width:1.0;"/><!--MD5=[d3b639eb352b9bd26202150644ff3fbf]
reverse link Tile to Laboratory--><path d="M1191.37,471.07 C1203.72,515.04 1219.89,568.28 1237.5,615 C1252.62,655.1 1273.55,699.45 1288.58,729.84 " fill="none" id="Tile-backto-Laboratory" style="stroke:#A80036;stroke-width:1.0;"/><polygon fill="none" points="1184.56,472.71,1185.97,451.57,1198.05,468.98,1184.56,472.71" style="stroke:#A80036;stroke-width:1.0;"/><!--MD5=[d06935ba1ab126300bd5b463f41b0931]
reverse link Tile to Safehouse--><path d="M1064.58,462.88 C1055.34,468.74 1045.91,474.22 1036.5,479 C960.86,517.45 867.3,543.56 800.74,558.92 " fill="none" id="Tile-backto-Safehouse" style="stroke:#A80036;stroke-width:1.0;"/><polygon fill="none" points="1061,456.86,1081.53,451.6,1068.76,468.51,1061,456.86" style="stroke:#A80036;stroke-width:1.0;"/><!--MD5=[f678b4eb16223263a0988bbd3a1b9d61]
reverse link Tile to Warehouse--><path d="M1282.32,436.44 C1333.61,464.1 1393.41,499.87 1442.5,539 C1516.04,597.62 1587.55,681.89 1625.82,729.85 " fill="none" id="Tile-backto-Warehouse" style="stroke:#A80036;stroke-width:1.0;"/><polygon fill="none" points="1278.94,442.57,1264.57,427.01,1285.51,430.21,1278.94,442.57" style="stroke:#A80036;stroke-width:1.0;"/><!--MD5=[ce00ed01a024100edddc6e8f253b8d16]
reverse link Tile to EmptyTile--><path d="M1243.64,466.76 C1265.88,492.11 1289.02,518.48 1306.99,538.96 " fill="none" id="Tile-backto-EmptyTile" style="stroke:#A80036;stroke-width:1.0;"/><polygon fill="none" points="1238.26,471.24,1230.33,451.59,1248.78,462.01,1238.26,471.24" style="stroke:#A80036;stroke-width:1.0;"/><!--MD5=[ebdac7d12228737842a18d4b55f78902]
reverse link Laboratory to GeneticCode--><path codeLine="162" d="M1276.74,817.26 C1253.08,854.38 1220.66,905.24 1197.67,941.3 " fill="none" id="Laboratory-backto-GeneticCode" style="stroke:#A80036;stroke-width:1.0;"/><polygon fill="#A80036" points="1283.78,806.22,1277.1807,809.1267,1277.3256,816.3363,1283.9249,813.4296,1283.78,806.22" style="stroke:#A80036;stroke-width:1.0;"/><text fill="#000000" font-family="sans-serif" font-size="13" lengthAdjust="spacing" textLength="47" x="1151.3851" y="930.7135">-code, 1</text><!--MD5=[553a3a0eb6f4fdb8440293f0eb924568]
reverse link Safehouse to Equipment--><path codeLine="163" d="M713.9,628.25 C711.54,702.06 707.15,839.8 704.56,920.99 " fill="none" id="Safehouse-backto-Equipment" style="stroke:#A80036;stroke-width:1.0;"/><polygon fill="#A80036" points="714.31,615.24,710.1207,621.1094,713.9274,627.2339,718.1166,621.3645,714.31,615.24" style="stroke:#A80036;stroke-width:1.0;"/><text fill="#000000" font-family="sans-serif" font-size="13" lengthAdjust="spacing" textLength="79" x="709.1056" y="893.6076">-equipment, 1</text><text fill="#000000" font-family="sans-serif" font-size="13" lengthAdjust="spacing" textLength="0" x="750.6056" y="909.9591"/><!--MD5=[90ae5e806468a0d95b80e6d6fe9732bc]
reverse link Warehouse to Resource--><path codeLine="164" d="M1636.47,818.35 C1606.2,901.18 1545.67,1066.88 1516.69,1146.2 " fill="none" id="Warehouse-backto-Resource" style="stroke:#A80036;stroke-width:1.0;"/><polygon fill="#A80036" points="1640.97,806.04,1635.1512,810.2992,1636.8448,817.3086,1642.6636,813.0494,1640.97,806.04" style="stroke:#A80036;stroke-width:1.0;"/><text fill="#000000" font-family="sans-serif" font-size="13" lengthAdjust="spacing" textLength="81" x="1431.9675" y="1135.5982">-collectable, 1</text><!--MD5=[ff53eace86c1d97199ea61ea19204bfe]
reverse link Map to Tile--><path codeLine="166" d="M1167.5,232.6 C1167.5,254.51 1167.5,281.62 1167.5,306.48 " fill="none" id="Map-backto-Tile" style="stroke:#A80036;stroke-width:1.0;"/><polygon fill="#A80036" points="1167.5,219.37,1163.5,225.37,1167.5,231.37,1171.5,225.37,1167.5,219.37" style="stroke:#A80036;stroke-width:1.0;"/><text fill="#000000" font-family="sans-serif" font-size="13" lengthAdjust="spacing" textLength="43" x="1122.2828" y="295.6973">-tiles, L</text><!--MD5=[a176ebf06cb10ddd6ba1768217facd81]
reverse link Tile to Tile--><path codeLine="167" d="M1269.86,345.73 C1287.37,350.27 1299.5,361.36 1299.5,379 C1299.5,398.3 1284.98,409.75 1264.78,413.37 " fill="none" id="Tile-backto-Tile" style="stroke:#A80036;stroke-width:1.0;"/><polygon fill="#A80036" points="1264.78,344.63,1272.7143,350.465,1269.6639,345.701,1274.4279,342.6507,1264.78,344.63" style="stroke:#A80036;stroke-width:1.0;"/><text fill="#000000" font-family="sans-serif" font-size="13" lengthAdjust="spacing" textLength="99" x="1272.3483" y="412.2377">-neighbours, 1..K</text><!--MD5=[c500f5464b9dc4a96a985056f627131e]
reverse link Controller to Map--><path codeLine="174" d="M1167.5,110.39 C1167.5,126.35 1167.5,143.04 1167.5,156.76 " fill="none" id="Controller-backto-Map" style="stroke:#A80036;stroke-width:1.0;"/><polygon fill="#A80036" points="1167.5,97.25,1163.5,103.25,1167.5,109.25,1171.5,103.25,1167.5,97.25" style="stroke:#A80036;stroke-width:1.0;"/><text fill="#000000" font-family="sans-serif" font-size="13" lengthAdjust="spacing" textLength="44" x="1118.9625" y="146.215">-map, 1</text><!--MD5=[78646e1ebce6eb7ea4c276a3d84eb704]
reverse link Controller to Virologist--><path codeLine="175" d="M1125.96,107.66 C1090.51,154.3 1038.64,222.55 995.89,278.8 " fill="none" id="Controller-backto-Virologist" style="stroke:#A80036;stroke-width:1.0;"/><polygon fill="#A80036" points="1133.93,97.17,1127.1169,99.5326,1126.6774,106.7303,1133.4904,104.3677,1133.93,97.17" style="stroke:#A80036;stroke-width:1.0;"/><text fill="#000000" font-family="sans-serif" font-size="13" lengthAdjust="spacing" textLength="80" x="918.5995" y="268.017">-players, 2..M</text><!--MD5=[a4b40ac3fa88b8b481ea2d5df8bf623d]
reverse link Controller to GeneticCode--><path codeLine="176" d="M1211.47,107.52 C1277.36,193.22 1398.69,367.4 1442.5,539 C1465.22,627.99 1437.63,822.32 1410.5,861 C1380.55,903.7 1331.41,932.76 1285.29,951.98 " fill="none" id="Controller-backto-GeneticCode" style="stroke:#A80036;stroke-width:1.0;"/><polygon fill="#A80036" points="1203.32,97.02,1203.8386,104.2124,1210.6772,106.5,1210.1586,99.3076,1203.32,97.02" style="stroke:#A80036;stroke-width:1.0;"/><text fill="#000000" font-family="sans-serif" font-size="13" lengthAdjust="spacing" textLength="53" x="1293.0715" y="947.1729">-codes, J</text><!--MD5=[dba4bfe7eac2164f5603ae7faf157c8e]
@startuml
'https://plantuml.com/class-diagram
skinparam classAttributeIconSize 0
class Resource implements Collectable {
    -amount: int
    +collect(inv: Inventory)
    {static} getResourceByType(resources: Resource[], type: ResourceType): Resource
}

enum ResourceType {
    AminoAcid
    Nucleotide
}
Resource *- - "-type, 1" ResourceType

abstract class Agent implements Effect {
    #roundsLeft: int
    +use(from: Virologist, to: Virologist)
    {static} {abstract} +create(): Agent
    /'             Effekt interface            '/
    +onTurnImpact(to: Virologist): void
    +endTurnImpact(to: Virologist): void
    +counterImpact(agent: Agent, from: Virologist, to: Virologist)
    +allowStealing(): boolean
    +decrement(Virologist v): void
}

class AmnesiaVirus extends Agent{
    {static} +create(): Agent
    +onTurnImpact(to: Virologist)
}

class StunVirus extends Agent{
    {static} +create(): Agent
    +onTurnImpact(to: Virologist)
    +allowStealing(): boolean
}
class VitusDanceVirus extends Agent{
    {static} +create(): Agent
    +onTurnImpact(to: Virologist)
}
class Vaccine extends Agent{
    {static} +create(): Agent
    +counterImpact(agent: Agent, from: Virologist, to: Virologist)
}

class Virologist {
    -actionsLeft: int
    +addEffect(effect: Effect)
    +removeEffect(effect:Effect)
    'az alap useCase-ek:
    -moveTo(newTile: Tile)
    -pickUp()
    -craft(code: GeneticCode)
    -useAgent(agent: Agent, v: Virologist)
    -steal(Virologist v)
    +pass()
    /' Zsombi adta hozz '/
    -tick()          /'crafted agentek idejt eggyel cskkenti'/
    +myTurn()        /' A jtkos mikor sorra kerl ezek trtnnek '/
}

class Inventory {
    -maxResourceAmount: int
    +addGeneticCode(gc: GeneticCode)
    +addEquipment(eq: Equipment)
    +addCraftedAgent(agent: Agent)
    +addResource(res: Resource)
    +removeGeneticCode(gc: GeneticCode)
    +removeEquipment(eq: Equipment): boolean
    +removeCraftedAgent(agent: Agent)
    +removeResource(res: Resource)
    +steal(from: Inventory, what: Equipment)
}
interface Effect {
    +onTurnImpact(to: Virologist)
    +endTurnImpact(to: Virologist)
    +counterImpact(agent: Agent, from: Virologist, to: Virologist)
    +allowStealing(): boolean
    +decrement(Virologist v): void
}
class GeneticCode implements Collectable {
    +collect(inv: Inventory) /'Collectable'/
    +isCraftable(resources: Resource[]): boolean
    +craft(inv: Inventory)
}

interface Collectable {
    +collect(inv: Inventory)
}

Tile ..> Collectable
Collectable ..> Inventory
Virologist ..> GeneticCode
Virologist ..> Agent
Equipment ..> Agent

Virologist "-virologist, 1" - - "-inventory, 1" Inventory
Virologist *- - "-activeEffects, 0..*" Effect

Inventory *- - "-learntCodes, 0..*" GeneticCode
Inventory *- - "-pickedUpEquipments, 0..*" Equipment
Inventory *- - "-craftedAgents, 0..*" Agent
Inventory *- - "-resources, N" Resource

GeneticCode *- - "-price, N" Resource
GeneticCode *- - "-agent, 1" Agent

Virologist "-players, 0..*" - "-activeTile, 1" Tile

abstract class Equipment implements Effect, Collectable {
    +collect(inv: Inventory)
    /'             Effekt interface            '/
    +onTurnImpact(to: Virologist): void
    +endTurnImpact(to: Virologist): void
    +counterImpact(agent: Agent, from: Virologist, to: Virologist)
    +allowStealing(): boolean
    +decrement(Virologist v): void
}
class ProtectiveCloak extends Equipment {
    +counterImpact(agent: Agent, from: Virologist, to: Virologist) /'Equipment'/
}

class Bag extends Equipment{
    +onTurnImpact(to: Virologist): void /'Equipment'/
    +endTurnImpact(to: Virologist): void /'Equipment'/
}
class Glove extends Equipment {
    +counterImpact(agent: Agent, from: Virologist, to: Virologist): void /'Equipment'/
}

abstract class Tile {
    #id: int
    #name: string
    +getPlayersToStealFrom(): Virologist[]
    {abstract} +collectItem(inv: Inventory)
    {abstract} +getCollectableItem(): Collectable
    +addVirologist(player: Virologist)
    +removeVirologist(player: Virologist)
}
class Laboratory extends Tile {
    +collectItem(inv: Inventory)
    +getCollectableItem(): Collectable
}

class Safehouse extends Tile {
    +collectItem(inv: Inventory)
    +getCollectableItem(): Collectable
}
class Warehouse extends Tile {
    +collectItem(inv: Inventory)
    +getCollectableItem(): Collectable
}
class EmptyTile extends Tile {
    +collectItem(inv: Inventory)
    +getCollectableItem(): Collectable
}

class Map {
    +createMap()
}

Laboratory *- - "-code, 1" GeneticCode
Safehouse *- - "-equipment, 1\n" Equipment
Warehouse *- - "-collectable, 1" Resource

Map  *- - "-tiles, L" Tile
Tile <- - "-neighbours, 1..K" Tile

class Controller {
    -activePlayer: int
    +startGame(): void
    -nextRound(): void
}
Controller *- - "-map, 1" Map
Controller *- - "-players, 2..M" Virologist
Controller *- - "-codes, J" GeneticCode

@enduml

@startuml
skinparam classAttributeIconSize 0
class Resource implements Collectable {
    -amount: int
    +collect(inv: Inventory)
    {static} getResourceByType(resources: Resource[], type: ResourceType): Resource
}

enum ResourceType {
    AminoAcid
    Nucleotide
}
Resource *- - "-type, 1" ResourceType

abstract class Agent implements Effect {
    #roundsLeft: int
    +use(from: Virologist, to: Virologist)
    {static} {abstract} +create(): Agent
    +onTurnImpact(to: Virologist): void
    +endTurnImpact(to: Virologist): void
    +counterImpact(agent: Agent, from: Virologist, to: Virologist)
    +allowStealing(): boolean
    +decrement(Virologist v): void
}

class AmnesiaVirus extends Agent{
    {static} +create(): Agent
    +onTurnImpact(to: Virologist)
}

class StunVirus extends Agent{
    {static} +create(): Agent
    +onTurnImpact(to: Virologist)
    +allowStealing(): boolean
}
class VitusDanceVirus extends Agent{
    {static} +create(): Agent
    +onTurnImpact(to: Virologist)
}
class Vaccine extends Agent{
    {static} +create(): Agent
    +counterImpact(agent: Agent, from: Virologist, to: Virologist)
}

class Virologist {
    -actionsLeft: int
    +addEffect(effect: Effect)
    +removeEffect(effect:Effect)
    -moveTo(newTile: Tile)
    -pickUp()
    -craft(code: GeneticCode)
    -useAgent(agent: Agent, v: Virologist)
    -steal(Virologist v)
    +pass()
    -tick()          
    +myTurn()        
}

class Inventory {
    -maxResourceAmount: int
    +addGeneticCode(gc: GeneticCode)
    +addEquipment(eq: Equipment)
    +addCraftedAgent(agent: Agent)
    +addResource(res: Resource)
    +removeGeneticCode(gc: GeneticCode)
    +removeEquipment(eq: Equipment): boolean
    +removeCraftedAgent(agent: Agent)
    +removeResource(res: Resource)
    +steal(from: Inventory, what: Equipment)
}
interface Effect {
    +onTurnImpact(to: Virologist)
    +endTurnImpact(to: Virologist)
    +counterImpact(agent: Agent, from: Virologist, to: Virologist)
    +allowStealing(): boolean
    +decrement(Virologist v): void
}
class GeneticCode implements Collectable {
    +collect(inv: Inventory) 
    +isCraftable(resources: Resource[]): boolean
    +craft(inv: Inventory)
}

interface Collectable {
    +collect(inv: Inventory)
}

Tile ..> Collectable
Collectable ..> Inventory
Virologist ..> GeneticCode
Virologist ..> Agent
Equipment ..> Agent

Virologist "-virologist, 1" - - "-inventory, 1" Inventory
Virologist *- - "-activeEffects, 0..*" Effect

Inventory *- - "-learntCodes, 0..*" GeneticCode
Inventory *- - "-pickedUpEquipments, 0..*" Equipment
Inventory *- - "-craftedAgents, 0..*" Agent
Inventory *- - "-resources, N" Resource

GeneticCode *- - "-price, N" Resource
GeneticCode *- - "-agent, 1" Agent

Virologist "-players, 0..*" - "-activeTile, 1" Tile

abstract class Equipment implements Effect, Collectable {
    +collect(inv: Inventory)
    +onTurnImpact(to: Virologist): void
    +endTurnImpact(to: Virologist): void
    +counterImpact(agent: Agent, from: Virologist, to: Virologist)
    +allowStealing(): boolean
    +decrement(Virologist v): void
}
class ProtectiveCloak extends Equipment {
    +counterImpact(agent: Agent, from: Virologist, to: Virologist) 
}

class Bag extends Equipment{
    +onTurnImpact(to: Virologist): void 
    +endTurnImpact(to: Virologist): void 
}
class Glove extends Equipment {
    +counterImpact(agent: Agent, from: Virologist, to: Virologist): void 
}

abstract class Tile {
    #id: int
    #name: string
    +getPlayersToStealFrom(): Virologist[]
    {abstract} +collectItem(inv: Inventory)
    {abstract} +getCollectableItem(): Collectable
    +addVirologist(player: Virologist)
    +removeVirologist(player: Virologist)
}
class Laboratory extends Tile {
    +collectItem(inv: Inventory)
    +getCollectableItem(): Collectable
}

class Safehouse extends Tile {
    +collectItem(inv: Inventory)
    +getCollectableItem(): Collectable
}
class Warehouse extends Tile {
    +collectItem(inv: Inventory)
    +getCollectableItem(): Collectable
}
class EmptyTile extends Tile {
    +collectItem(inv: Inventory)
    +getCollectableItem(): Collectable
}

class Map {
    +createMap()
}

Laboratory *- - "-code, 1" GeneticCode
Safehouse *- - "-equipment, 1\n" Equipment
Warehouse *- - "-collectable, 1" Resource

Map  *- - "-tiles, L" Tile
Tile <- - "-neighbours, 1..K" Tile

class Controller {
    -activePlayer: int
    +startGame(): void
    -nextRound(): void
}
Controller *- - "-map, 1" Map
Controller *- - "-players, 2..M" Virologist
Controller *- - "-codes, J" GeneticCode

@enduml

PlantUML version 1.2022.1(Tue Feb 01 19:19:58 CET 2022)
(GPL source distribution)
Java Runtime: OpenJDK Runtime Environment
JVM: OpenJDK 64-Bit Server VM
Default Encoding: Cp1252
Language: en
Country: US
--></g></svg>