<?xml version="1.0" encoding="UTF-8" standalone="no"?><svg xmlns="http://www.w3.org/2000/svg" xmlns:xlink="http://www.w3.org/1999/xlink" contentScriptType="application/ecmascript" contentStyleType="text/css" height="1725px" preserveAspectRatio="none" style="width:2121px;height:1725px;background:#FFFFFF;" version="1.1" viewBox="0 0 2121 1725" width="2121px" zoomAndPan="magnify"><defs><filter height="300%" id="f1a9h76ccg0tmw" width="300%" x="-1" y="-1"><feGaussianBlur result="blurOut" stdDeviation="2.0"/><feColorMatrix in="blurOut" result="blurOut2" type="matrix" values="0 0 0 0 0 0 0 0 0 0 0 0 0 0 0 0 0 0 .4 0"/><feOffset dx="4.0" dy="4.0" in="blurOut2" result="blurOut3"/><feBlend in="SourceGraphic" in2="blurOut3" mode="normal"/></filter></defs><g><!--MD5=[0caf3a413731a0de34fc6162fe213ed9]
class Laboratory--><rect codeLine="175" fill="#FEFECE" filter="url(#f1a9h76ccg0tmw)" height="75.6719" id="Laboratory" style="stroke:#A80036;stroke-width:1.5;" width="170" x="1712.5" y="923"/><ellipse cx="1764.25" cy="939" fill="#ADD1B2" rx="11" ry="11" style="stroke:#A80036;stroke-width:1.0;"/><path d="M1766.25,935.5 Q1766.4531,935 1766.6875,934.75 Q1766.9219,934.5 1767.1875,934.5 Q1767.6563,934.5 1767.9531,934.7813 Q1768.25,935.0625 1768.25,935.7188 L1768.25,937.2813 Q1768.25,937.9375 1767.9688,938.2188 Q1767.6875,938.5 1767.25,938.5 Q1766.8594,938.5 1766.6094,938.3281 Q1766.3594,938.1563 1766.25,937.7031 Q1766.2031,937.3906 1766.0313,937.2188 Q1765.7188,936.8906 1765.1563,936.7031 Q1764.5938,936.5 1764.0313,936.5 Q1763.3281,936.5 1762.7344,936.7813 Q1762.1563,937.0625 1761.7031,937.6875 Q1761.25,938.3125 1761.25,939.1719 L1761.25,940.0938 Q1761.25,941.125 1762.0938,941.8125 Q1762.9375,942.5 1764.4375,942.5 Q1765.3281,942.5 1765.9531,942.2969 Q1766.3125,942.1875 1766.7188,941.8281 Q1766.9844,941.625 1767.125,941.5625 Q1767.2656,941.5 1767.4375,941.5 Q1767.7656,941.5 1768,941.7656 Q1768.25,942.0156 1768.25,942.375 Q1768.25,942.7188 1767.9063,943.125 Q1767.4063,943.7188 1766.6094,944.0469 Q1765.5625,944.5 1764.2813,944.5 Q1762.7813,944.5 1761.5781,943.9063 Q1760.6094,943.4375 1759.9219,942.4219 Q1759.25,941.4063 1759.25,940.2031 L1759.25,939.1094 Q1759.25,937.8594 1759.8438,936.7656 Q1760.4531,935.6719 1761.5,935.0938 Q1762.5625,934.5 1763.75,934.5 Q1764.4688,934.5 1765.0938,934.75 Q1765.7188,935 1766.25,935.5 Z " fill="#000000"/><text fill="#000000" font-family="sans-serif" font-size="12" lengthAdjust="spacing" textLength="58" x="1784.75" y="943.9102">Laboratory</text><line style="stroke:#A80036;stroke-width:1.5;" x1="1713.5" x2="1881.5" y1="955" y2="955"/><line style="stroke:#A80036;stroke-width:1.5;" x1="1713.5" x2="1881.5" y1="963" y2="963"/><text fill="#000000" font-family="sans-serif" font-size="11" lengthAdjust="spacing" textLength="129" x="1718.5" y="978.4189">+collectItem(inv: Inventory)</text><text fill="#000000" font-family="sans-serif" font-size="11" lengthAdjust="spacing" textLength="158" x="1718.5" y="992.2549">+getCollectableItem(): Collectable</text><!--MD5=[be622d812df4ed91ff0c948605c40c5b]
class InfectedLaboratory--><rect codeLine="180" fill="#FEFECE" filter="url(#f1a9h76ccg0tmw)" height="61.8359" id="InfectedLaboratory" style="stroke:#A80036;stroke-width:1.5;" width="170" x="1712.5" y="1183.5"/><ellipse cx="1744.15" cy="1199.5" fill="#ADD1B2" rx="11" ry="11" style="stroke:#A80036;stroke-width:1.0;"/><path d="M1746.15,1196 Q1746.3531,1195.5 1746.5875,1195.25 Q1746.8219,1195 1747.0875,1195 Q1747.5563,1195 1747.8531,1195.2813 Q1748.15,1195.5625 1748.15,1196.2188 L1748.15,1197.7813 Q1748.15,1198.4375 1747.8688,1198.7188 Q1747.5875,1199 1747.15,1199 Q1746.7594,1199 1746.5094,1198.8281 Q1746.2594,1198.6563 1746.15,1198.2031 Q1746.1031,1197.8906 1745.9313,1197.7188 Q1745.6188,1197.3906 1745.0563,1197.2031 Q1744.4938,1197 1743.9313,1197 Q1743.2281,1197 1742.6344,1197.2813 Q1742.0563,1197.5625 1741.6031,1198.1875 Q1741.15,1198.8125 1741.15,1199.6719 L1741.15,1200.5938 Q1741.15,1201.625 1741.9938,1202.3125 Q1742.8375,1203 1744.3375,1203 Q1745.2281,1203 1745.8531,1202.7969 Q1746.2125,1202.6875 1746.6188,1202.3281 Q1746.8844,1202.125 1747.025,1202.0625 Q1747.1656,1202 1747.3375,1202 Q1747.6656,1202 1747.9,1202.2656 Q1748.15,1202.5156 1748.15,1202.875 Q1748.15,1203.2188 1747.8063,1203.625 Q1747.3063,1204.2188 1746.5094,1204.5469 Q1745.4625,1205 1744.1813,1205 Q1742.6813,1205 1741.4781,1204.4063 Q1740.5094,1203.9375 1739.8219,1202.9219 Q1739.15,1201.9063 1739.15,1200.7031 L1739.15,1199.6094 Q1739.15,1198.3594 1739.7438,1197.2656 Q1740.3531,1196.1719 1741.4,1195.5938 Q1742.4625,1195 1743.65,1195 Q1744.3688,1195 1744.9938,1195.25 Q1745.6188,1195.5 1746.15,1196 Z " fill="#000000"/><text fill="#000000" font-family="sans-serif" font-size="12" lengthAdjust="spacing" textLength="101" x="1761.85" y="1204.4102">InfectedLaboratory</text><line style="stroke:#A80036;stroke-width:1.5;" x1="1713.5" x2="1881.5" y1="1215.5" y2="1215.5"/><line style="stroke:#A80036;stroke-width:1.5;" x1="1713.5" x2="1881.5" y1="1223.5" y2="1223.5"/><text fill="#000000" font-family="sans-serif" font-size="11" lengthAdjust="spacing" textLength="158" x="1718.5" y="1238.9189">+addVirologist(player: Virologist)</text><!--MD5=[6b13f1b330d33795af281e5c1dfe1e98]
class Resource--><rect codeLine="4" fill="#FEFECE" filter="url(#f1a9h76ccg0tmw)" height="103.3438" id="Resource" style="stroke:#A80036;stroke-width:1.5;" width="385" x="7" y="1396"/><ellipse cx="168.25" cy="1412" fill="#ADD1B2" rx="11" ry="11" style="stroke:#A80036;stroke-width:1.0;"/><path d="M170.25,1408.5 Q170.4531,1408 170.6875,1407.75 Q170.9219,1407.5 171.1875,1407.5 Q171.6563,1407.5 171.9531,1407.7813 Q172.25,1408.0625 172.25,1408.7188 L172.25,1410.2813 Q172.25,1410.9375 171.9688,1411.2188 Q171.6875,1411.5 171.25,1411.5 Q170.8594,1411.5 170.6094,1411.3281 Q170.3594,1411.1563 170.25,1410.7031 Q170.2031,1410.3906 170.0313,1410.2188 Q169.7188,1409.8906 169.1563,1409.7031 Q168.5938,1409.5 168.0313,1409.5 Q167.3281,1409.5 166.7344,1409.7813 Q166.1563,1410.0625 165.7031,1410.6875 Q165.25,1411.3125 165.25,1412.1719 L165.25,1413.0938 Q165.25,1414.125 166.0938,1414.8125 Q166.9375,1415.5 168.4375,1415.5 Q169.3281,1415.5 169.9531,1415.2969 Q170.3125,1415.1875 170.7188,1414.8281 Q170.9844,1414.625 171.125,1414.5625 Q171.2656,1414.5 171.4375,1414.5 Q171.7656,1414.5 172,1414.7656 Q172.25,1415.0156 172.25,1415.375 Q172.25,1415.7188 171.9063,1416.125 Q171.4063,1416.7188 170.6094,1417.0469 Q169.5625,1417.5 168.2813,1417.5 Q166.7813,1417.5 165.5781,1416.9063 Q164.6094,1416.4375 163.9219,1415.4219 Q163.25,1414.4063 163.25,1413.2031 L163.25,1412.1094 Q163.25,1410.8594 163.8438,1409.7656 Q164.4531,1408.6719 165.5,1408.0938 Q166.5625,1407.5 167.75,1407.5 Q168.4688,1407.5 169.0938,1407.75 Q169.7188,1408 170.25,1408.5 Z " fill="#000000"/><text fill="#000000" font-family="sans-serif" font-size="12" lengthAdjust="spacing" textLength="54" x="188.75" y="1416.9102">Resource</text><line style="stroke:#A80036;stroke-width:1.5;" x1="8" x2="391" y1="1428" y2="1428"/><text fill="#000000" font-family="sans-serif" font-size="11" lengthAdjust="spacing" textLength="56" x="13" y="1443.4189">-amount: int</text><text fill="#000000" font-family="sans-serif" font-size="11" lengthAdjust="spacing" textLength="102" x="13" y="1457.2549">-type: ResourceType</text><line style="stroke:#A80036;stroke-width:1.5;" x1="8" x2="391" y1="1463.6719" y2="1463.6719"/><text fill="#000000" font-family="sans-serif" font-size="11" lengthAdjust="spacing" textLength="110" x="13" y="1479.0908">+collect(inv: Inventory)</text><text fill="#000000" font-family="sans-serif" font-size="11" lengthAdjust="spacing" text-decoration="underline" textLength="373" x="13" y="1492.9268">getResourceByType(resources: Resource[], type: ResourceType): Resource</text><!--MD5=[b9dabdda4f25f9168d749d6d9e332bee]
class Collectable--><rect codeLine="110" fill="#FEFECE" filter="url(#f1a9h76ccg0tmw)" height="61.8359" id="Collectable" style="stroke:#A80036;stroke-width:1.5;" width="122" x="863.5" y="725"/><ellipse cx="890.65" cy="741" fill="#B4A7E5" rx="11" ry="11" style="stroke:#A80036;stroke-width:1.0;"/><path d="M891.65,738 L891.65,744 L893.65,744 L894.1344,744 L894.65,744.625 L894.65,745 L894.65,745.375 L894.1344,746 L893.65,746 L887.65,746 L887.1656,746 L886.65,745.375 L886.65,745 L886.65,744.625 L887.1656,744 L887.65,744 L889.65,744 L889.65,738 L887.65,738 L887.1656,738 L886.65,737.375 L886.65,737 L886.65,736.625 L887.1656,736 L887.65,736 L893.65,736 L894.1344,736 L894.65,736.625 L894.65,737 L894.65,737.375 L894.1344,738 L893.65,738 L891.65,738 Z " fill="#000000"/><text fill="#000000" font-family="sans-serif" font-size="12" font-style="italic" lengthAdjust="spacing" textLength="63" x="907.35" y="745.9102">Collectable</text><line style="stroke:#A80036;stroke-width:1.5;" x1="864.5" x2="984.5" y1="757" y2="757"/><line style="stroke:#A80036;stroke-width:1.5;" x1="864.5" x2="984.5" y1="765" y2="765"/><text fill="#000000" font-family="sans-serif" font-size="11" lengthAdjust="spacing" textLength="110" x="869.5" y="780.4189">+collect(inv: Inventory)</text><!--MD5=[047ad69fa5569e11f99d9c52b6049560]
class ResourceType--><rect codeLine="12" fill="#FEFECE" filter="url(#f1a9h76ccg0tmw)" height="75.6719" id="ResourceType" style="stroke:#A80036;stroke-width:1.5;" width="112" x="143.5" y="1614.5"/><ellipse cx="158.5" cy="1630.5" fill="#EB937F" rx="11" ry="11" style="stroke:#A80036;stroke-width:1.0;"/><path d="M157,1631.5 L157,1633.5 L161,1633.5 L161,1632.5 L161,1632.0156 L161.625,1631.5 L162,1631.5 L162.375,1631.5 L163,1632.0156 L163,1632.5 L163,1635.5 L155,1635.5 L154.5156,1635.5 L154,1634.875 L154,1634.5 L154,1634.125 L154.5156,1633.5 L155,1633.5 L155,1633.5 L155,1627.5 L155,1627.5 L154.5156,1627.5 L154,1626.875 L154,1626.5 L154,1626.125 L154.5156,1625.5 L155,1625.5 L163,1625.5 L163,1628.5 L163,1628.9844 L162.375,1629.5 L162,1629.5 L161.625,1629.5 L161,1628.9844 L161,1628.5 L161,1627.5 L157,1627.5 L157,1629.5 L158,1629.5 L158,1629.0156 L158,1629.0156 L158.625,1628.5 L159,1628.5 L159.375,1628.5 L160,1629.0156 L160,1629.5 L160,1631.5 L160,1631.9844 L159.375,1632.5 L159.375,1632.5 L159,1632.5 L158.625,1632.5 L158,1631.9844 L158,1631.9844 L158,1631.5 L157,1631.5 Z " fill="#000000"/><text fill="#000000" font-family="sans-serif" font-size="12" lengthAdjust="spacing" textLength="80" x="172.5" y="1635.4102">ResourceType</text><line style="stroke:#A80036;stroke-width:1.5;" x1="144.5" x2="254.5" y1="1646.5" y2="1646.5"/><text fill="#000000" font-family="sans-serif" font-size="11" lengthAdjust="spacing" textLength="52" x="149.5" y="1661.9189">AminoAcid</text><text fill="#000000" font-family="sans-serif" font-size="11" lengthAdjust="spacing" textLength="50" x="149.5" y="1675.7549">Nucleotide</text><line style="stroke:#A80036;stroke-width:1.5;" x1="144.5" x2="254.5" y1="1682.1719" y2="1682.1719"/><!--MD5=[9d44916250b776386006c440668bcfbb]
class Agent--><rect codeLine="19" fill="#FEFECE" filter="url(#f1a9h76ccg0tmw)" height="172.5234" id="Agent" style="stroke:#A80036;stroke-width:1.5;" width="301" x="1509" y="1361"/><ellipse cx="1639.25" cy="1377" fill="#A9DCDF" rx="11" ry="11" style="stroke:#A80036;stroke-width:1.0;"/><path d="M1641,1378.5 L1637.7031,1378.5 L1637.2656,1379.5 L1637.2656,1379.5 L1637.7344,1379.5 L1638.25,1380.125 L1638.25,1380.5 L1638.25,1380.875 L1637.7344,1381.5 L1637.2656,1381.5 L1635.375,1381.5 L1634.7656,1381.5 L1634.25,1380.875 L1634.25,1380.5 L1634.25,1380.125 L1634.7656,1379.5 L1635.375,1379.5 L1637.6875,1373.5 L1636.8125,1373.5 L1635.7656,1373.5 L1635.25,1372.875 L1635.25,1372.5 L1635.25,1372.125 L1635.7656,1371.5 L1636.8125,1371.5 L1640.4844,1371.5 L1643.1719,1379.5 L1643.7344,1379.5 L1643.7344,1379.5 L1644.25,1380.125 L1644.25,1380.5 L1644.25,1380.875 L1643.7344,1381.5 L1643.1719,1381.5 L1641.2813,1381.5 L1640.7656,1381.5 L1640.25,1380.875 L1640.25,1380.5 L1640.25,1380.125 L1640.7656,1379.5 L1641.2813,1379.5 L1641.2813,1379.5 L1641,1378.5 Z M1640.4531,1376.5 L1639.25,1372.9219 L1638.2188,1376.5 L1640.4531,1376.5 Z " fill="#000000"/><text fill="#000000" font-family="sans-serif" font-size="12" font-style="italic" lengthAdjust="spacing" textLength="32" x="1659.75" y="1381.9102">Agent</text><line style="stroke:#A80036;stroke-width:1.5;" x1="1510" x2="1809" y1="1393" y2="1393"/><text fill="#000000" font-family="sans-serif" font-size="11" lengthAdjust="spacing" textLength="76" x="1515" y="1408.4189">#roundsLeft: int</text><line style="stroke:#A80036;stroke-width:1.5;" x1="1510" x2="1809" y1="1414.8359" y2="1414.8359"/><text fill="#000000" font-family="sans-serif" font-size="11" lengthAdjust="spacing" textLength="171" x="1515" y="1430.2549">+use(from: Virologist, to: Virologist)</text><text fill="#000000" font-family="sans-serif" font-size="11" font-style="italic" lengthAdjust="spacing" text-decoration="underline" textLength="79" x="1515" y="1444.0908">+create(): Agent</text><text fill="#000000" font-family="sans-serif" font-size="11" lengthAdjust="spacing" textLength="165" x="1515" y="1457.9268">+onTurnImpact(to: Virologist): void</text><text fill="#000000" font-family="sans-serif" font-size="11" lengthAdjust="spacing" textLength="171" x="1515" y="1471.7627">+endTurnImpact(to: Virologist): void</text><text fill="#000000" font-family="sans-serif" font-size="11" lengthAdjust="spacing" textLength="289" x="1515" y="1485.5986">+counterImpact(agent: Agent, from: Virologist, to: Virologist)</text><text fill="#000000" font-family="sans-serif" font-size="11" lengthAdjust="spacing" textLength="122" x="1515" y="1499.4346">+allowStealing(): boolean</text><text fill="#000000" font-family="sans-serif" font-size="11" lengthAdjust="spacing" textLength="148" x="1515" y="1513.2705">+decrement(v: Virologist): void</text><text fill="#000000" font-family="sans-serif" font-size="11" lengthAdjust="spacing" textLength="129" x="1515" y="1527.1064">+infect(infector: Virologist)</text><!--MD5=[354ba6fe2710e9f7c691253c66156a32]
class Effect--><rect codeLine="96" fill="#FEFECE" filter="url(#f1a9h76ccg0tmw)" height="131.0156" id="Effect" style="stroke:#A80036;stroke-width:1.5;" width="301" x="1234" y="895.5"/><ellipse cx="1365.25" cy="911.5" fill="#B4A7E5" rx="11" ry="11" style="stroke:#A80036;stroke-width:1.0;"/><path d="M1366.25,908.5 L1366.25,914.5 L1368.25,914.5 L1368.7344,914.5 L1369.25,915.125 L1369.25,915.5 L1369.25,915.875 L1368.7344,916.5 L1368.25,916.5 L1362.25,916.5 L1361.7656,916.5 L1361.25,915.875 L1361.25,915.5 L1361.25,915.125 L1361.7656,914.5 L1362.25,914.5 L1364.25,914.5 L1364.25,908.5 L1362.25,908.5 L1361.7656,908.5 L1361.25,907.875 L1361.25,907.5 L1361.25,907.125 L1361.7656,906.5 L1362.25,906.5 L1368.25,906.5 L1368.7344,906.5 L1369.25,907.125 L1369.25,907.5 L1369.25,907.875 L1368.7344,908.5 L1368.25,908.5 L1366.25,908.5 Z " fill="#000000"/><text fill="#000000" font-family="sans-serif" font-size="12" font-style="italic" lengthAdjust="spacing" textLength="30" x="1385.75" y="916.4102">Effect</text><line style="stroke:#A80036;stroke-width:1.5;" x1="1235" x2="1534" y1="927.5" y2="927.5"/><line style="stroke:#A80036;stroke-width:1.5;" x1="1235" x2="1534" y1="935.5" y2="935.5"/><text fill="#000000" font-family="sans-serif" font-size="11" lengthAdjust="spacing" textLength="139" x="1240" y="950.9189">+onTurnImpact(to: Virologist)</text><text fill="#000000" font-family="sans-serif" font-size="11" lengthAdjust="spacing" textLength="145" x="1240" y="964.7549">+endTurnImpact(to: Virologist)</text><text fill="#000000" font-family="sans-serif" font-size="11" lengthAdjust="spacing" textLength="289" x="1240" y="978.5908">+counterImpact(agent: Agent, from: Virologist, to: Virologist)</text><text fill="#000000" font-family="sans-serif" font-size="11" lengthAdjust="spacing" textLength="122" x="1240" y="992.4268">+allowStealing(): boolean</text><text fill="#000000" font-family="sans-serif" font-size="11" lengthAdjust="spacing" textLength="122" x="1240" y="1006.2627">+decrement(v: Virologist)</text><text fill="#000000" font-family="sans-serif" font-size="11" lengthAdjust="spacing" textLength="129" x="1240" y="1020.0986">+infect(infector: Virologist)</text><!--MD5=[3a682b83b50cc9e2f5b9d4b8f90493ad]
class AmnesiaVirus--><rect codeLine="33" fill="#FEFECE" filter="url(#f1a9h76ccg0tmw)" height="75.6719" id="AmnesiaVirus" style="stroke:#A80036;stroke-width:1.5;" width="151" x="1584" y="1614.5"/><ellipse cx="1617.9" cy="1630.5" fill="#ADD1B2" rx="11" ry="11" style="stroke:#A80036;stroke-width:1.0;"/><path d="M1619.9,1627 Q1620.1031,1626.5 1620.3375,1626.25 Q1620.5719,1626 1620.8375,1626 Q1621.3063,1626 1621.6031,1626.2813 Q1621.9,1626.5625 1621.9,1627.2188 L1621.9,1628.7813 Q1621.9,1629.4375 1621.6188,1629.7188 Q1621.3375,1630 1620.9,1630 Q1620.5094,1630 1620.2594,1629.8281 Q1620.0094,1629.6563 1619.9,1629.2031 Q1619.8531,1628.8906 1619.6813,1628.7188 Q1619.3688,1628.3906 1618.8063,1628.2031 Q1618.2438,1628 1617.6813,1628 Q1616.9781,1628 1616.3844,1628.2813 Q1615.8063,1628.5625 1615.3531,1629.1875 Q1614.9,1629.8125 1614.9,1630.6719 L1614.9,1631.5938 Q1614.9,1632.625 1615.7438,1633.3125 Q1616.5875,1634 1618.0875,1634 Q1618.9781,1634 1619.6031,1633.7969 Q1619.9625,1633.6875 1620.3688,1633.3281 Q1620.6344,1633.125 1620.775,1633.0625 Q1620.9156,1633 1621.0875,1633 Q1621.4156,1633 1621.65,1633.2656 Q1621.9,1633.5156 1621.9,1633.875 Q1621.9,1634.2188 1621.5563,1634.625 Q1621.0563,1635.2188 1620.2594,1635.5469 Q1619.2125,1636 1617.9313,1636 Q1616.4313,1636 1615.2281,1635.4063 Q1614.2594,1634.9375 1613.5719,1633.9219 Q1612.9,1632.9063 1612.9,1631.7031 L1612.9,1630.6094 Q1612.9,1629.3594 1613.4938,1628.2656 Q1614.1031,1627.1719 1615.15,1626.5938 Q1616.2125,1626 1617.4,1626 Q1618.1188,1626 1618.7438,1626.25 Q1619.3688,1626.5 1619.9,1627 Z " fill="#000000"/><text fill="#000000" font-family="sans-serif" font-size="12" lengthAdjust="spacing" textLength="77" x="1636.1" y="1635.4102">AmnesiaVirus</text><line style="stroke:#A80036;stroke-width:1.5;" x1="1585" x2="1734" y1="1646.5" y2="1646.5"/><line style="stroke:#A80036;stroke-width:1.5;" x1="1585" x2="1734" y1="1654.5" y2="1654.5"/><text fill="#000000" font-family="sans-serif" font-size="11" lengthAdjust="spacing" text-decoration="underline" textLength="80" x="1590" y="1669.9189">+create(): Agent</text><text fill="#000000" font-family="sans-serif" font-size="11" lengthAdjust="spacing" textLength="139" x="1590" y="1683.7549">+onTurnImpact(to: Virologist)</text><!--MD5=[41e2e1e42c2a6e0ed10a6a018adf955b]
class StunVirus--><rect codeLine="38" fill="#FEFECE" filter="url(#f1a9h76ccg0tmw)" height="89.5078" id="StunVirus" style="stroke:#A80036;stroke-width:1.5;" width="151" x="1770" y="1607.5"/><ellipse cx="1814.75" cy="1623.5" fill="#ADD1B2" rx="11" ry="11" style="stroke:#A80036;stroke-width:1.0;"/><path d="M1816.75,1620 Q1816.9531,1619.5 1817.1875,1619.25 Q1817.4219,1619 1817.6875,1619 Q1818.1563,1619 1818.4531,1619.2813 Q1818.75,1619.5625 1818.75,1620.2188 L1818.75,1621.7813 Q1818.75,1622.4375 1818.4688,1622.7188 Q1818.1875,1623 1817.75,1623 Q1817.3594,1623 1817.1094,1622.8281 Q1816.8594,1622.6563 1816.75,1622.2031 Q1816.7031,1621.8906 1816.5313,1621.7188 Q1816.2188,1621.3906 1815.6563,1621.2031 Q1815.0938,1621 1814.5313,1621 Q1813.8281,1621 1813.2344,1621.2813 Q1812.6563,1621.5625 1812.2031,1622.1875 Q1811.75,1622.8125 1811.75,1623.6719 L1811.75,1624.5938 Q1811.75,1625.625 1812.5938,1626.3125 Q1813.4375,1627 1814.9375,1627 Q1815.8281,1627 1816.4531,1626.7969 Q1816.8125,1626.6875 1817.2188,1626.3281 Q1817.4844,1626.125 1817.625,1626.0625 Q1817.7656,1626 1817.9375,1626 Q1818.2656,1626 1818.5,1626.2656 Q1818.75,1626.5156 1818.75,1626.875 Q1818.75,1627.2188 1818.4063,1627.625 Q1817.9063,1628.2188 1817.1094,1628.5469 Q1816.0625,1629 1814.7813,1629 Q1813.2813,1629 1812.0781,1628.4063 Q1811.1094,1627.9375 1810.4219,1626.9219 Q1809.75,1625.9063 1809.75,1624.7031 L1809.75,1623.6094 Q1809.75,1622.3594 1810.3438,1621.2656 Q1810.9531,1620.1719 1812,1619.5938 Q1813.0625,1619 1814.25,1619 Q1814.9688,1619 1815.5938,1619.25 Q1816.2188,1619.5 1816.75,1620 Z " fill="#000000"/><text fill="#000000" font-family="sans-serif" font-size="12" lengthAdjust="spacing" textLength="53" x="1835.25" y="1628.4102">StunVirus</text><line style="stroke:#A80036;stroke-width:1.5;" x1="1771" x2="1920" y1="1639.5" y2="1639.5"/><line style="stroke:#A80036;stroke-width:1.5;" x1="1771" x2="1920" y1="1647.5" y2="1647.5"/><text fill="#000000" font-family="sans-serif" font-size="11" lengthAdjust="spacing" text-decoration="underline" textLength="80" x="1776" y="1662.9189">+create(): Agent</text><text fill="#000000" font-family="sans-serif" font-size="11" lengthAdjust="spacing" textLength="139" x="1776" y="1676.7549">+onTurnImpact(to: Virologist)</text><text fill="#000000" font-family="sans-serif" font-size="11" lengthAdjust="spacing" textLength="122" x="1776" y="1690.5908">+allowStealing(): boolean</text><!--MD5=[b95407c940de934d839e4cd6fd328c70]
class VitusDanceVirus--><rect codeLine="43" fill="#FEFECE" filter="url(#f1a9h76ccg0tmw)" height="75.6719" id="VitusDanceVirus" style="stroke:#A80036;stroke-width:1.5;" width="151" x="1956" y="1614.5"/><ellipse cx="1983.6" cy="1630.5" fill="#ADD1B2" rx="11" ry="11" style="stroke:#A80036;stroke-width:1.0;"/><path d="M1985.6,1627 Q1985.8031,1626.5 1986.0375,1626.25 Q1986.2719,1626 1986.5375,1626 Q1987.0063,1626 1987.3031,1626.2813 Q1987.6,1626.5625 1987.6,1627.2188 L1987.6,1628.7813 Q1987.6,1629.4375 1987.3188,1629.7188 Q1987.0375,1630 1986.6,1630 Q1986.2094,1630 1985.9594,1629.8281 Q1985.7094,1629.6563 1985.6,1629.2031 Q1985.5531,1628.8906 1985.3813,1628.7188 Q1985.0688,1628.3906 1984.5063,1628.2031 Q1983.9438,1628 1983.3813,1628 Q1982.6781,1628 1982.0844,1628.2813 Q1981.5063,1628.5625 1981.0531,1629.1875 Q1980.6,1629.8125 1980.6,1630.6719 L1980.6,1631.5938 Q1980.6,1632.625 1981.4438,1633.3125 Q1982.2875,1634 1983.7875,1634 Q1984.6781,1634 1985.3031,1633.7969 Q1985.6625,1633.6875 1986.0688,1633.3281 Q1986.3344,1633.125 1986.475,1633.0625 Q1986.6156,1633 1986.7875,1633 Q1987.1156,1633 1987.35,1633.2656 Q1987.6,1633.5156 1987.6,1633.875 Q1987.6,1634.2188 1987.2563,1634.625 Q1986.7563,1635.2188 1985.9594,1635.5469 Q1984.9125,1636 1983.6313,1636 Q1982.1313,1636 1980.9281,1635.4063 Q1979.9594,1634.9375 1979.2719,1633.9219 Q1978.6,1632.9063 1978.6,1631.7031 L1978.6,1630.6094 Q1978.6,1629.3594 1979.1938,1628.2656 Q1979.8031,1627.1719 1980.85,1626.5938 Q1981.9125,1626 1983.1,1626 Q1983.8188,1626 1984.4438,1626.25 Q1985.0688,1626.5 1985.6,1627 Z " fill="#000000"/><text fill="#000000" font-family="sans-serif" font-size="12" lengthAdjust="spacing" textLength="91" x="2000.4" y="1635.4102">VitusDanceVirus</text><line style="stroke:#A80036;stroke-width:1.5;" x1="1957" x2="2106" y1="1646.5" y2="1646.5"/><line style="stroke:#A80036;stroke-width:1.5;" x1="1957" x2="2106" y1="1654.5" y2="1654.5"/><text fill="#000000" font-family="sans-serif" font-size="11" lengthAdjust="spacing" text-decoration="underline" textLength="80" x="1962" y="1669.9189">+create(): Agent</text><text fill="#000000" font-family="sans-serif" font-size="11" lengthAdjust="spacing" textLength="139" x="1962" y="1683.7549">+onTurnImpact(to: Virologist)</text><!--MD5=[b09926a2a1ace26b2686fa41d851bd97]
class BearDanceVirus--><rect codeLine="47" fill="#FEFECE" filter="url(#f1a9h76ccg0tmw)" height="117.1797" id="BearDanceVirus" style="stroke:#A80036;stroke-width:1.5;" width="301" x="912" y="1594"/><ellipse cx="1013.25" cy="1610" fill="#ADD1B2" rx="11" ry="11" style="stroke:#A80036;stroke-width:1.0;"/><path d="M1015.25,1606.5 Q1015.4531,1606 1015.6875,1605.75 Q1015.9219,1605.5 1016.1875,1605.5 Q1016.6563,1605.5 1016.9531,1605.7813 Q1017.25,1606.0625 1017.25,1606.7188 L1017.25,1608.2813 Q1017.25,1608.9375 1016.9688,1609.2188 Q1016.6875,1609.5 1016.25,1609.5 Q1015.8594,1609.5 1015.6094,1609.3281 Q1015.3594,1609.1563 1015.25,1608.7031 Q1015.2031,1608.3906 1015.0313,1608.2188 Q1014.7188,1607.8906 1014.1563,1607.7031 Q1013.5938,1607.5 1013.0313,1607.5 Q1012.3281,1607.5 1011.7344,1607.7813 Q1011.1563,1608.0625 1010.7031,1608.6875 Q1010.25,1609.3125 1010.25,1610.1719 L1010.25,1611.0938 Q1010.25,1612.125 1011.0938,1612.8125 Q1011.9375,1613.5 1013.4375,1613.5 Q1014.3281,1613.5 1014.9531,1613.2969 Q1015.3125,1613.1875 1015.7188,1612.8281 Q1015.9844,1612.625 1016.125,1612.5625 Q1016.2656,1612.5 1016.4375,1612.5 Q1016.7656,1612.5 1017,1612.7656 Q1017.25,1613.0156 1017.25,1613.375 Q1017.25,1613.7188 1016.9063,1614.125 Q1016.4063,1614.7188 1015.6094,1615.0469 Q1014.5625,1615.5 1013.2813,1615.5 Q1011.7813,1615.5 1010.5781,1614.9063 Q1009.6094,1614.4375 1008.9219,1613.4219 Q1008.25,1612.4063 1008.25,1611.2031 L1008.25,1610.1094 Q1008.25,1608.8594 1008.8438,1607.7656 Q1009.4531,1606.6719 1010.5,1606.0938 Q1011.5625,1605.5 1012.75,1605.5 Q1013.4688,1605.5 1014.0938,1605.75 Q1014.7188,1606 1015.25,1606.5 Z " fill="#000000"/><text fill="#000000" font-family="sans-serif" font-size="12" lengthAdjust="spacing" textLength="90" x="1033.75" y="1614.9102">BearDanceVirus</text><line style="stroke:#A80036;stroke-width:1.5;" x1="913" x2="1212" y1="1626" y2="1626"/><line style="stroke:#A80036;stroke-width:1.5;" x1="913" x2="1212" y1="1634" y2="1634"/><text fill="#000000" font-family="sans-serif" font-size="11" lengthAdjust="spacing" text-decoration="underline" textLength="80" x="918" y="1649.4189">+create(): Agent</text><text fill="#000000" font-family="sans-serif" font-size="11" lengthAdjust="spacing" textLength="139" x="918" y="1663.2549">+onTurnImpact(to: Virologist)</text><text fill="#000000" font-family="sans-serif" font-size="11" lengthAdjust="spacing" textLength="289" x="918" y="1677.0908">+counterImpact(agent: Agent, from: Virologist, to: Virologist)</text><text fill="#000000" font-family="sans-serif" font-size="11" lengthAdjust="spacing" textLength="129" x="918" y="1690.9268">+infect(infector: Virologist)</text><text fill="#000000" font-family="sans-serif" font-size="11" lengthAdjust="spacing" textLength="122" x="918" y="1704.7627">+decrement(v: Virologist)</text><!--MD5=[19e445fc4d3b48519cbe33da05496394]
class Vaccine--><rect codeLine="54" fill="#FEFECE" filter="url(#f1a9h76ccg0tmw)" height="75.6719" id="Vaccine" style="stroke:#A80036;stroke-width:1.5;" width="301" x="1248" y="1614.5"/><ellipse cx="1372.75" cy="1630.5" fill="#ADD1B2" rx="11" ry="11" style="stroke:#A80036;stroke-width:1.0;"/><path d="M1374.75,1627 Q1374.9531,1626.5 1375.1875,1626.25 Q1375.4219,1626 1375.6875,1626 Q1376.1563,1626 1376.4531,1626.2813 Q1376.75,1626.5625 1376.75,1627.2188 L1376.75,1628.7813 Q1376.75,1629.4375 1376.4688,1629.7188 Q1376.1875,1630 1375.75,1630 Q1375.3594,1630 1375.1094,1629.8281 Q1374.8594,1629.6563 1374.75,1629.2031 Q1374.7031,1628.8906 1374.5313,1628.7188 Q1374.2188,1628.3906 1373.6563,1628.2031 Q1373.0938,1628 1372.5313,1628 Q1371.8281,1628 1371.2344,1628.2813 Q1370.6563,1628.5625 1370.2031,1629.1875 Q1369.75,1629.8125 1369.75,1630.6719 L1369.75,1631.5938 Q1369.75,1632.625 1370.5938,1633.3125 Q1371.4375,1634 1372.9375,1634 Q1373.8281,1634 1374.4531,1633.7969 Q1374.8125,1633.6875 1375.2188,1633.3281 Q1375.4844,1633.125 1375.625,1633.0625 Q1375.7656,1633 1375.9375,1633 Q1376.2656,1633 1376.5,1633.2656 Q1376.75,1633.5156 1376.75,1633.875 Q1376.75,1634.2188 1376.4063,1634.625 Q1375.9063,1635.2188 1375.1094,1635.5469 Q1374.0625,1636 1372.7813,1636 Q1371.2813,1636 1370.0781,1635.4063 Q1369.1094,1634.9375 1368.4219,1633.9219 Q1367.75,1632.9063 1367.75,1631.7031 L1367.75,1630.6094 Q1367.75,1629.3594 1368.3438,1628.2656 Q1368.9531,1627.1719 1370,1626.5938 Q1371.0625,1626 1372.25,1626 Q1372.9688,1626 1373.5938,1626.25 Q1374.2188,1626.5 1374.75,1627 Z " fill="#000000"/><text fill="#000000" font-family="sans-serif" font-size="12" lengthAdjust="spacing" textLength="43" x="1393.25" y="1635.4102">Vaccine</text><line style="stroke:#A80036;stroke-width:1.5;" x1="1249" x2="1548" y1="1646.5" y2="1646.5"/><line style="stroke:#A80036;stroke-width:1.5;" x1="1249" x2="1548" y1="1654.5" y2="1654.5"/><text fill="#000000" font-family="sans-serif" font-size="11" lengthAdjust="spacing" text-decoration="underline" textLength="80" x="1254" y="1669.9189">+create(): Agent</text><text fill="#000000" font-family="sans-serif" font-size="11" lengthAdjust="spacing" textLength="289" x="1254" y="1683.7549">+counterImpact(agent: Agent, from: Virologist, to: Virologist)</text><!--MD5=[1a9529180566655e8adcb11068a11cb8]
class Virologist--><rect codeLine="59" fill="#FEFECE" filter="url(#f1a9h76ccg0tmw)" height="269.375" id="Virologist" style="stroke:#A80036;stroke-width:1.5;" width="242" x="1059.5" y="184"/><ellipse cx="1150.75" cy="200" fill="#ADD1B2" rx="11" ry="11" style="stroke:#A80036;stroke-width:1.0;"/><path d="M1152.75,196.5 Q1152.9531,196 1153.1875,195.75 Q1153.4219,195.5 1153.6875,195.5 Q1154.1563,195.5 1154.4531,195.7813 Q1154.75,196.0625 1154.75,196.7188 L1154.75,198.2813 Q1154.75,198.9375 1154.4688,199.2188 Q1154.1875,199.5 1153.75,199.5 Q1153.3594,199.5 1153.1094,199.3281 Q1152.8594,199.1563 1152.75,198.7031 Q1152.7031,198.3906 1152.5313,198.2188 Q1152.2188,197.8906 1151.6563,197.7031 Q1151.0938,197.5 1150.5313,197.5 Q1149.8281,197.5 1149.2344,197.7813 Q1148.6563,198.0625 1148.2031,198.6875 Q1147.75,199.3125 1147.75,200.1719 L1147.75,201.0938 Q1147.75,202.125 1148.5938,202.8125 Q1149.4375,203.5 1150.9375,203.5 Q1151.8281,203.5 1152.4531,203.2969 Q1152.8125,203.1875 1153.2188,202.8281 Q1153.4844,202.625 1153.625,202.5625 Q1153.7656,202.5 1153.9375,202.5 Q1154.2656,202.5 1154.5,202.7656 Q1154.75,203.0156 1154.75,203.375 Q1154.75,203.7188 1154.4063,204.125 Q1153.9063,204.7188 1153.1094,205.0469 Q1152.0625,205.5 1150.7813,205.5 Q1149.2813,205.5 1148.0781,204.9063 Q1147.1094,204.4375 1146.4219,203.4219 Q1145.75,202.4063 1145.75,201.2031 L1145.75,200.1094 Q1145.75,198.8594 1146.3438,197.7656 Q1146.9531,196.6719 1148,196.0938 Q1149.0625,195.5 1150.25,195.5 Q1150.9688,195.5 1151.5938,195.75 Q1152.2188,196 1152.75,196.5 Z " fill="#000000"/><text fill="#000000" font-family="sans-serif" font-size="12" lengthAdjust="spacing" textLength="51" x="1171.25" y="204.9102">Virologist</text><line style="stroke:#A80036;stroke-width:1.5;" x1="1060.5" x2="1300.5" y1="216" y2="216"/><text fill="#000000" font-family="sans-serif" font-size="11" lengthAdjust="spacing" textLength="75" x="1065.5" y="231.4189">-actionsLeft: int</text><line style="stroke:#A80036;stroke-width:1.5;" x1="1060.5" x2="1300.5" y1="237.8359" y2="237.8359"/><text fill="#000000" font-family="sans-serif" font-size="11" lengthAdjust="spacing" textLength="125" x="1065.5" y="253.2549">+addEffect(effect: Effect)</text><text fill="#000000" font-family="sans-serif" font-size="11" lengthAdjust="spacing" textLength="140" x="1065.5" y="267.0908">+removeEffect(effect:Effect)</text><text fill="#000000" font-family="sans-serif" font-size="11" lengthAdjust="spacing" textLength="110" x="1065.5" y="280.9268">-moveTo(newTile: Tile)</text><text fill="#000000" font-family="sans-serif" font-size="11" lengthAdjust="spacing" textLength="44" x="1065.5" y="294.7627">-pickUp()</text><text fill="#000000" font-family="sans-serif" font-size="11" lengthAdjust="spacing" textLength="127" x="1065.5" y="308.5986">-craft(code: GeneticCode)</text><text fill="#000000" font-family="sans-serif" font-size="11" lengthAdjust="spacing" textLength="150" x="1065.5" y="322.4346">-dropEquipment(eq: Equipment)</text><text fill="#000000" font-family="sans-serif" font-size="11" lengthAdjust="spacing" textLength="184" x="1065.5" y="336.2705">-useAgent(agent: Agent, v: Virologist)</text><text fill="#000000" font-family="sans-serif" font-size="11" lengthAdjust="spacing" textLength="89" x="1065.5" y="350.1064">-steal(Virologist v)</text><text fill="#000000" font-family="sans-serif" font-size="11" lengthAdjust="spacing" textLength="38" x="1065.5" y="363.9424">+pass()</text><text fill="#000000" font-family="sans-serif" font-size="11" lengthAdjust="spacing" textLength="110" x="1065.5" y="377.7783">-getNeighbours(): Tile[]</text><text fill="#000000" font-family="sans-serif" font-size="11" lengthAdjust="spacing" textLength="151" x="1065.5" y="391.6143">-getCraftables(): GeneticCode[]</text><text fill="#000000" font-family="sans-serif" font-size="11" lengthAdjust="spacing" textLength="139" x="1065.5" y="405.4502">-getCraftedAgents(): Agent[]</text><text fill="#000000" font-family="sans-serif" font-size="11" lengthAdjust="spacing" textLength="170" x="1065.5" y="419.2861">-getNearbyVirologists(): Virologist[]</text><text fill="#000000" font-family="sans-serif" font-size="11" lengthAdjust="spacing" textLength="230" x="1065.5" y="433.1221">-getNearbyVirologistsToStealFrom(): Virologist[]</text><text fill="#000000" font-family="sans-serif" font-size="11" lengthAdjust="spacing" textLength="50" x="1065.5" y="446.958">+myTurn()</text><!--MD5=[ee084734eb3a5ffad99a0de9980f769b]
class Inventory--><rect codeLine="80" fill="#FEFECE" filter="url(#f1a9h76ccg0tmw)" height="214.0313" id="Inventory" style="stroke:#A80036;stroke-width:1.5;" width="241" x="815" y="854"/><ellipse cx="907.25" cy="870" fill="#ADD1B2" rx="11" ry="11" style="stroke:#A80036;stroke-width:1.0;"/><path d="M909.25,866.5 Q909.4531,866 909.6875,865.75 Q909.9219,865.5 910.1875,865.5 Q910.6563,865.5 910.9531,865.7813 Q911.25,866.0625 911.25,866.7188 L911.25,868.2813 Q911.25,868.9375 910.9688,869.2188 Q910.6875,869.5 910.25,869.5 Q909.8594,869.5 909.6094,869.3281 Q909.3594,869.1563 909.25,868.7031 Q909.2031,868.3906 909.0313,868.2188 Q908.7188,867.8906 908.1563,867.7031 Q907.5938,867.5 907.0313,867.5 Q906.3281,867.5 905.7344,867.7813 Q905.1563,868.0625 904.7031,868.6875 Q904.25,869.3125 904.25,870.1719 L904.25,871.0938 Q904.25,872.125 905.0938,872.8125 Q905.9375,873.5 907.4375,873.5 Q908.3281,873.5 908.9531,873.2969 Q909.3125,873.1875 909.7188,872.8281 Q909.9844,872.625 910.125,872.5625 Q910.2656,872.5 910.4375,872.5 Q910.7656,872.5 911,872.7656 Q911.25,873.0156 911.25,873.375 Q911.25,873.7188 910.9063,874.125 Q910.4063,874.7188 909.6094,875.0469 Q908.5625,875.5 907.2813,875.5 Q905.7813,875.5 904.5781,874.9063 Q903.6094,874.4375 902.9219,873.4219 Q902.25,872.4063 902.25,871.2031 L902.25,870.1094 Q902.25,868.8594 902.8438,867.7656 Q903.4531,866.6719 904.5,866.0938 Q905.5625,865.5 906.75,865.5 Q907.4688,865.5 908.0938,865.75 Q908.7188,866 909.25,866.5 Z " fill="#000000"/><text fill="#000000" font-family="sans-serif" font-size="12" lengthAdjust="spacing" textLength="48" x="927.75" y="874.9102">Inventory</text><line style="stroke:#A80036;stroke-width:1.5;" x1="816" x2="1055" y1="886" y2="886"/><text fill="#000000" font-family="sans-serif" font-size="11" lengthAdjust="spacing" textLength="125" x="821" y="901.4189">-maxResourceAmount: int</text><line style="stroke:#A80036;stroke-width:1.5;" x1="816" x2="1055" y1="907.8359" y2="907.8359"/><text fill="#000000" font-family="sans-serif" font-size="11" lengthAdjust="spacing" textLength="174" x="821" y="923.2549">+addGeneticCode(gc: GeneticCode)</text><text fill="#000000" font-family="sans-serif" font-size="11" lengthAdjust="spacing" textLength="148" x="821" y="937.0908">+addEquipment(eq: Equipment)</text><text fill="#000000" font-family="sans-serif" font-size="11" lengthAdjust="spacing" textLength="159" x="821" y="950.9268">+addCraftedAgent(agent: Agent)</text><text fill="#000000" font-family="sans-serif" font-size="11" lengthAdjust="spacing" textLength="148" x="821" y="964.7627">+addResource(res: Resource)</text><text fill="#000000" font-family="sans-serif" font-size="11" lengthAdjust="spacing" textLength="211" x="821" y="978.5986">+addUsableEquipment(UsableEquipment ue)</text><text fill="#000000" font-family="sans-serif" font-size="11" lengthAdjust="spacing" textLength="192" x="821" y="992.4346">+removeGeneticCode(gc: GeneticCode)</text><text fill="#000000" font-family="sans-serif" font-size="11" lengthAdjust="spacing" textLength="210" x="821" y="1006.2705">+removeEquipment(eq: Equipment): boolean</text><text fill="#000000" font-family="sans-serif" font-size="11" lengthAdjust="spacing" textLength="177" x="821" y="1020.1064">+removeCraftedAgent(agent: Agent)</text><text fill="#000000" font-family="sans-serif" font-size="11" lengthAdjust="spacing" textLength="166" x="821" y="1033.9424">+removeResource(res: Resource)</text><text fill="#000000" font-family="sans-serif" font-size="11" lengthAdjust="spacing" textLength="229" x="821" y="1047.7783">+removeUsableEquipment(UsableEquipment ue)</text><text fill="#000000" font-family="sans-serif" font-size="11" lengthAdjust="spacing" textLength="196" x="821" y="1061.6143">+steal(from: Inventory, what: Equipment)</text><!--MD5=[e9ef9b1f56f2c4beba1690ce0114dda5]
class GeneticCode--><rect codeLine="104" fill="#FEFECE" filter="url(#f1a9h76ccg0tmw)" height="89.5078" id="GeneticCode" style="stroke:#A80036;stroke-width:1.5;" width="187" x="1252" y="1169.5"/><ellipse cx="1305.25" cy="1185.5" fill="#ADD1B2" rx="11" ry="11" style="stroke:#A80036;stroke-width:1.0;"/><path d="M1307.25,1182 Q1307.4531,1181.5 1307.6875,1181.25 Q1307.9219,1181 1308.1875,1181 Q1308.6563,1181 1308.9531,1181.2813 Q1309.25,1181.5625 1309.25,1182.2188 L1309.25,1183.7813 Q1309.25,1184.4375 1308.9688,1184.7188 Q1308.6875,1185 1308.25,1185 Q1307.8594,1185 1307.6094,1184.8281 Q1307.3594,1184.6563 1307.25,1184.2031 Q1307.2031,1183.8906 1307.0313,1183.7188 Q1306.7188,1183.3906 1306.1563,1183.2031 Q1305.5938,1183 1305.0313,1183 Q1304.3281,1183 1303.7344,1183.2813 Q1303.1563,1183.5625 1302.7031,1184.1875 Q1302.25,1184.8125 1302.25,1185.6719 L1302.25,1186.5938 Q1302.25,1187.625 1303.0938,1188.3125 Q1303.9375,1189 1305.4375,1189 Q1306.3281,1189 1306.9531,1188.7969 Q1307.3125,1188.6875 1307.7188,1188.3281 Q1307.9844,1188.125 1308.125,1188.0625 Q1308.2656,1188 1308.4375,1188 Q1308.7656,1188 1309,1188.2656 Q1309.25,1188.5156 1309.25,1188.875 Q1309.25,1189.2188 1308.9063,1189.625 Q1308.4063,1190.2188 1307.6094,1190.5469 Q1306.5625,1191 1305.2813,1191 Q1303.7813,1191 1302.5781,1190.4063 Q1301.6094,1189.9375 1300.9219,1188.9219 Q1300.25,1187.9063 1300.25,1186.7031 L1300.25,1185.6094 Q1300.25,1184.3594 1300.8438,1183.2656 Q1301.4531,1182.1719 1302.5,1181.5938 Q1303.5625,1181 1304.75,1181 Q1305.4688,1181 1306.0938,1181.25 Q1306.7188,1181.5 1307.25,1182 Z " fill="#000000"/><text fill="#000000" font-family="sans-serif" font-size="12" lengthAdjust="spacing" textLength="72" x="1325.75" y="1190.4102">GeneticCode</text><line style="stroke:#A80036;stroke-width:1.5;" x1="1253" x2="1438" y1="1201.5" y2="1201.5"/><line style="stroke:#A80036;stroke-width:1.5;" x1="1253" x2="1438" y1="1209.5" y2="1209.5"/><text fill="#000000" font-family="sans-serif" font-size="11" lengthAdjust="spacing" textLength="110" x="1258" y="1224.9189">+collect(inv: Inventory)</text><text fill="#000000" font-family="sans-serif" font-size="11" lengthAdjust="spacing" textLength="175" x="1258" y="1238.7549">+isCraftable(inv: Inventory): boolean</text><text fill="#000000" font-family="sans-serif" font-size="11" lengthAdjust="spacing" textLength="102" x="1258" y="1252.5908">+craft(inv: Inventory)</text><!--MD5=[18e4d9ca2a6cdced7b66e5fef94ef6f6]
class Tile--><rect codeLine="164" fill="#FEFECE" filter="url(#f1a9h76ccg0tmw)" height="144.8516" id="Tile" style="stroke:#A80036;stroke-width:1.5;" width="194" x="827.5" y="513"/><ellipse cx="910.25" cy="529" fill="#A9DCDF" rx="11" ry="11" style="stroke:#A80036;stroke-width:1.0;"/><path d="M912,530.5 L908.7031,530.5 L908.2656,531.5 L908.2656,531.5 L908.7344,531.5 L909.25,532.125 L909.25,532.5 L909.25,532.875 L908.7344,533.5 L908.2656,533.5 L906.375,533.5 L905.7656,533.5 L905.25,532.875 L905.25,532.5 L905.25,532.125 L905.7656,531.5 L906.375,531.5 L908.6875,525.5 L907.8125,525.5 L906.7656,525.5 L906.25,524.875 L906.25,524.5 L906.25,524.125 L906.7656,523.5 L907.8125,523.5 L911.4844,523.5 L914.1719,531.5 L914.7344,531.5 L914.7344,531.5 L915.25,532.125 L915.25,532.5 L915.25,532.875 L914.7344,533.5 L914.1719,533.5 L912.2813,533.5 L911.7656,533.5 L911.25,532.875 L911.25,532.5 L911.25,532.125 L911.7656,531.5 L912.2813,531.5 L912.2813,531.5 L912,530.5 Z M911.4531,528.5 L910.25,524.9219 L909.2188,528.5 L911.4531,528.5 Z " fill="#000000"/><text fill="#000000" font-family="sans-serif" font-size="12" font-style="italic" lengthAdjust="spacing" textLength="20" x="930.75" y="533.9102">Tile</text><line style="stroke:#A80036;stroke-width:1.5;" x1="828.5" x2="1020.5" y1="545" y2="545"/><text fill="#000000" font-family="sans-serif" font-size="11" lengthAdjust="spacing" textLength="31" x="833.5" y="560.4189">#id: int</text><text fill="#000000" font-family="sans-serif" font-size="11" lengthAdjust="spacing" textLength="65" x="833.5" y="574.2549">#name: string</text><line style="stroke:#A80036;stroke-width:1.5;" x1="828.5" x2="1020.5" y1="580.6719" y2="580.6719"/><text fill="#000000" font-family="sans-serif" font-size="11" lengthAdjust="spacing" textLength="182" x="833.5" y="596.0908">+getPlayersToStealFrom(): Virologist[]</text><text fill="#000000" font-family="sans-serif" font-size="11" font-style="italic" lengthAdjust="spacing" textLength="132" x="833.5" y="609.9268">+collectItem(inv: Inventory)</text><text fill="#000000" font-family="sans-serif" font-size="11" font-style="italic" lengthAdjust="spacing" textLength="170" x="833.5" y="623.7627">+getCollectableItem(): Collectable</text><text fill="#000000" font-family="sans-serif" font-size="11" lengthAdjust="spacing" textLength="158" x="833.5" y="637.5986">+addVirologist(player: Virologist)</text><text fill="#000000" font-family="sans-serif" font-size="11" lengthAdjust="spacing" textLength="176" x="833.5" y="651.4346">+removeVirologist(player: Virologist)</text><!--MD5=[ffbe56a7748d828ba7d90b566e12a2a0]
class Equipment--><rect codeLine="133" fill="#FEFECE" filter="url(#f1a9h76ccg0tmw)" height="172.5234" id="Equipment" style="stroke:#A80036;stroke-width:1.5;" width="301" x="677" y="1128"/><ellipse cx="793.25" cy="1144" fill="#A9DCDF" rx="11" ry="11" style="stroke:#A80036;stroke-width:1.0;"/><path d="M795,1145.5 L791.7031,1145.5 L791.2656,1146.5 L791.2656,1146.5 L791.7344,1146.5 L792.25,1147.125 L792.25,1147.5 L792.25,1147.875 L791.7344,1148.5 L791.2656,1148.5 L789.375,1148.5 L788.7656,1148.5 L788.25,1147.875 L788.25,1147.5 L788.25,1147.125 L788.7656,1146.5 L789.375,1146.5 L791.6875,1140.5 L790.8125,1140.5 L789.7656,1140.5 L789.25,1139.875 L789.25,1139.5 L789.25,1139.125 L789.7656,1138.5 L790.8125,1138.5 L794.4844,1138.5 L797.1719,1146.5 L797.7344,1146.5 L797.7344,1146.5 L798.25,1147.125 L798.25,1147.5 L798.25,1147.875 L797.7344,1148.5 L797.1719,1148.5 L795.2813,1148.5 L794.7656,1148.5 L794.25,1147.875 L794.25,1147.5 L794.25,1147.125 L794.7656,1146.5 L795.2813,1146.5 L795.2813,1146.5 L795,1145.5 Z M794.4531,1143.5 L793.25,1139.9219 L792.2188,1143.5 L794.4531,1143.5 Z " fill="#000000"/><text fill="#000000" font-family="sans-serif" font-size="12" font-style="italic" lengthAdjust="spacing" textLength="60" x="813.75" y="1148.9102">Equipment</text><line style="stroke:#A80036;stroke-width:1.5;" x1="678" x2="977" y1="1160" y2="1160"/><text fill="#000000" font-family="sans-serif" font-size="11" lengthAdjust="spacing" textLength="66" x="683" y="1175.4189">#usesLeft: int</text><line style="stroke:#A80036;stroke-width:1.5;" x1="678" x2="977" y1="1181.8359" y2="1181.8359"/><text fill="#000000" font-family="sans-serif" font-size="11" lengthAdjust="spacing" textLength="110" x="683" y="1197.2549">+collect(inv: Inventory)</text><text fill="#000000" font-family="sans-serif" font-size="11" lengthAdjust="spacing" textLength="139" x="683" y="1211.0908">+onTurnImpact(to: Virologist)</text><text fill="#000000" font-family="sans-serif" font-size="11" lengthAdjust="spacing" textLength="145" x="683" y="1224.9268">+endTurnImpact(to: Virologist)</text><text fill="#000000" font-family="sans-serif" font-size="11" lengthAdjust="spacing" textLength="129" x="683" y="1238.7627">+infect(infector: Virologist)</text><text fill="#000000" font-family="sans-serif" font-size="11" lengthAdjust="spacing" textLength="289" x="683" y="1252.5986">+counterImpact(agent: Agent, from: Virologist, to: Virologist)</text><text fill="#000000" font-family="sans-serif" font-size="11" lengthAdjust="spacing" textLength="122" x="683" y="1266.4346">+allowStealing(): boolean</text><text fill="#000000" font-family="sans-serif" font-size="11" lengthAdjust="spacing" textLength="119" x="683" y="1280.2705">+decrement(Virologist v)</text><text fill="#000000" font-family="sans-serif" font-size="11" lengthAdjust="spacing" textLength="167" x="683" y="1294.1064">+durabilityDecreases(v: Virologist)</text><!--MD5=[a76cd7b5477b13724ac4c55703ca1246]
class ProtectiveCloak--><rect codeLine="145" fill="#FEFECE" filter="url(#f1a9h76ccg0tmw)" height="61.8359" id="ProtectiveCloak" style="stroke:#A80036;stroke-width:1.5;" width="301" x="981" y="1416.5"/><ellipse cx="1084.75" cy="1432.5" fill="#ADD1B2" rx="11" ry="11" style="stroke:#A80036;stroke-width:1.0;"/><path d="M1086.75,1429 Q1086.9531,1428.5 1087.1875,1428.25 Q1087.4219,1428 1087.6875,1428 Q1088.1563,1428 1088.4531,1428.2813 Q1088.75,1428.5625 1088.75,1429.2188 L1088.75,1430.7813 Q1088.75,1431.4375 1088.4688,1431.7188 Q1088.1875,1432 1087.75,1432 Q1087.3594,1432 1087.1094,1431.8281 Q1086.8594,1431.6563 1086.75,1431.2031 Q1086.7031,1430.8906 1086.5313,1430.7188 Q1086.2188,1430.3906 1085.6563,1430.2031 Q1085.0938,1430 1084.5313,1430 Q1083.8281,1430 1083.2344,1430.2813 Q1082.6563,1430.5625 1082.2031,1431.1875 Q1081.75,1431.8125 1081.75,1432.6719 L1081.75,1433.5938 Q1081.75,1434.625 1082.5938,1435.3125 Q1083.4375,1436 1084.9375,1436 Q1085.8281,1436 1086.4531,1435.7969 Q1086.8125,1435.6875 1087.2188,1435.3281 Q1087.4844,1435.125 1087.625,1435.0625 Q1087.7656,1435 1087.9375,1435 Q1088.2656,1435 1088.5,1435.2656 Q1088.75,1435.5156 1088.75,1435.875 Q1088.75,1436.2188 1088.4063,1436.625 Q1087.9063,1437.2188 1087.1094,1437.5469 Q1086.0625,1438 1084.7813,1438 Q1083.2813,1438 1082.0781,1437.4063 Q1081.1094,1436.9375 1080.4219,1435.9219 Q1079.75,1434.9063 1079.75,1433.7031 L1079.75,1432.6094 Q1079.75,1431.3594 1080.3438,1430.2656 Q1080.9531,1429.1719 1082,1428.5938 Q1083.0625,1428 1084.25,1428 Q1084.9688,1428 1085.5938,1428.25 Q1086.2188,1428.5 1086.75,1429 Z " fill="#000000"/><text fill="#000000" font-family="sans-serif" font-size="12" lengthAdjust="spacing" textLength="85" x="1105.25" y="1437.4102">ProtectiveCloak</text><line style="stroke:#A80036;stroke-width:1.5;" x1="982" x2="1281" y1="1448.5" y2="1448.5"/><line style="stroke:#A80036;stroke-width:1.5;" x1="982" x2="1281" y1="1456.5" y2="1456.5"/><text fill="#000000" font-family="sans-serif" font-size="11" lengthAdjust="spacing" textLength="289" x="987" y="1471.9189">+counterImpact(agent: Agent, from: Virologist, to: Virologist)</text><!--MD5=[ce71e8b4822a13f5ea72e94958aa0250]
class Bag--><rect codeLine="149" fill="#FEFECE" filter="url(#f1a9h76ccg0tmw)" height="75.6719" id="Bag" style="stroke:#A80036;stroke-width:1.5;" width="183" x="427" y="1409.5"/><ellipse cx="503.25" cy="1425.5" fill="#ADD1B2" rx="11" ry="11" style="stroke:#A80036;stroke-width:1.0;"/><path d="M505.25,1422 Q505.4531,1421.5 505.6875,1421.25 Q505.9219,1421 506.1875,1421 Q506.6563,1421 506.9531,1421.2813 Q507.25,1421.5625 507.25,1422.2188 L507.25,1423.7813 Q507.25,1424.4375 506.9688,1424.7188 Q506.6875,1425 506.25,1425 Q505.8594,1425 505.6094,1424.8281 Q505.3594,1424.6563 505.25,1424.2031 Q505.2031,1423.8906 505.0313,1423.7188 Q504.7188,1423.3906 504.1563,1423.2031 Q503.5938,1423 503.0313,1423 Q502.3281,1423 501.7344,1423.2813 Q501.1563,1423.5625 500.7031,1424.1875 Q500.25,1424.8125 500.25,1425.6719 L500.25,1426.5938 Q500.25,1427.625 501.0938,1428.3125 Q501.9375,1429 503.4375,1429 Q504.3281,1429 504.9531,1428.7969 Q505.3125,1428.6875 505.7188,1428.3281 Q505.9844,1428.125 506.125,1428.0625 Q506.2656,1428 506.4375,1428 Q506.7656,1428 507,1428.2656 Q507.25,1428.5156 507.25,1428.875 Q507.25,1429.2188 506.9063,1429.625 Q506.4063,1430.2188 505.6094,1430.5469 Q504.5625,1431 503.2813,1431 Q501.7813,1431 500.5781,1430.4063 Q499.6094,1429.9375 498.9219,1428.9219 Q498.25,1427.9063 498.25,1426.7031 L498.25,1425.6094 Q498.25,1424.3594 498.8438,1423.2656 Q499.4531,1422.1719 500.5,1421.5938 Q501.5625,1421 502.75,1421 Q503.4688,1421 504.0938,1421.25 Q504.7188,1421.5 505.25,1422 Z " fill="#000000"/><text fill="#000000" font-family="sans-serif" font-size="12" lengthAdjust="spacing" textLength="22" x="523.75" y="1430.4102">Bag</text><line style="stroke:#A80036;stroke-width:1.5;" x1="428" x2="609" y1="1441.5" y2="1441.5"/><line style="stroke:#A80036;stroke-width:1.5;" x1="428" x2="609" y1="1449.5" y2="1449.5"/><text fill="#000000" font-family="sans-serif" font-size="11" lengthAdjust="spacing" textLength="165" x="433" y="1464.9189">+onTurnImpact(to: Virologist): void</text><text fill="#000000" font-family="sans-serif" font-size="11" lengthAdjust="spacing" textLength="171" x="433" y="1478.7549">+endTurnImpact(to: Virologist): void</text><!--MD5=[85e2f7b455e79529a9285138ef9d8711]
class Glove--><rect codeLine="153" fill="#FEFECE" filter="url(#f1a9h76ccg0tmw)" height="75.6719" id="Glove" style="stroke:#A80036;stroke-width:1.5;" width="301" x="645" y="1409.5"/><ellipse cx="775.75" cy="1425.5" fill="#ADD1B2" rx="11" ry="11" style="stroke:#A80036;stroke-width:1.0;"/><path d="M777.75,1422 Q777.9531,1421.5 778.1875,1421.25 Q778.4219,1421 778.6875,1421 Q779.1563,1421 779.4531,1421.2813 Q779.75,1421.5625 779.75,1422.2188 L779.75,1423.7813 Q779.75,1424.4375 779.4688,1424.7188 Q779.1875,1425 778.75,1425 Q778.3594,1425 778.1094,1424.8281 Q777.8594,1424.6563 777.75,1424.2031 Q777.7031,1423.8906 777.5313,1423.7188 Q777.2188,1423.3906 776.6563,1423.2031 Q776.0938,1423 775.5313,1423 Q774.8281,1423 774.2344,1423.2813 Q773.6563,1423.5625 773.2031,1424.1875 Q772.75,1424.8125 772.75,1425.6719 L772.75,1426.5938 Q772.75,1427.625 773.5938,1428.3125 Q774.4375,1429 775.9375,1429 Q776.8281,1429 777.4531,1428.7969 Q777.8125,1428.6875 778.2188,1428.3281 Q778.4844,1428.125 778.625,1428.0625 Q778.7656,1428 778.9375,1428 Q779.2656,1428 779.5,1428.2656 Q779.75,1428.5156 779.75,1428.875 Q779.75,1429.2188 779.4063,1429.625 Q778.9063,1430.2188 778.1094,1430.5469 Q777.0625,1431 775.7813,1431 Q774.2813,1431 773.0781,1430.4063 Q772.1094,1429.9375 771.4219,1428.9219 Q770.75,1427.9063 770.75,1426.7031 L770.75,1425.6094 Q770.75,1424.3594 771.3438,1423.2656 Q771.9531,1422.1719 773,1421.5938 Q774.0625,1421 775.25,1421 Q775.9688,1421 776.5938,1421.25 Q777.2188,1421.5 777.75,1422 Z " fill="#000000"/><text fill="#000000" font-family="sans-serif" font-size="12" lengthAdjust="spacing" textLength="31" x="796.25" y="1430.4102">Glove</text><line style="stroke:#A80036;stroke-width:1.5;" x1="646" x2="945" y1="1441.5" y2="1441.5"/><line style="stroke:#A80036;stroke-width:1.5;" x1="646" x2="945" y1="1449.5" y2="1449.5"/><text fill="#000000" font-family="sans-serif" font-size="11" lengthAdjust="spacing" textLength="289" x="651" y="1464.9189">+counterImpact(agent: Agent, from: Virologist, to: Virologist)</text><text fill="#000000" font-family="sans-serif" font-size="11" lengthAdjust="spacing" textLength="167" x="651" y="1478.7549">+durabilityDecreases(v: Virologist)</text><!--MD5=[d4c268010a899f37973e32384a25843a]
class Axe--><rect codeLine="158" fill="#FEFECE" filter="url(#f1a9h76ccg0tmw)" height="89.5078" id="Axe" style="stroke:#A80036;stroke-width:1.5;" width="157" x="1317" y="1402.5"/><ellipse cx="1381.75" cy="1418.5" fill="#ADD1B2" rx="11" ry="11" style="stroke:#A80036;stroke-width:1.0;"/><path d="M1383.75,1415 Q1383.9531,1414.5 1384.1875,1414.25 Q1384.4219,1414 1384.6875,1414 Q1385.1563,1414 1385.4531,1414.2813 Q1385.75,1414.5625 1385.75,1415.2188 L1385.75,1416.7813 Q1385.75,1417.4375 1385.4688,1417.7188 Q1385.1875,1418 1384.75,1418 Q1384.3594,1418 1384.1094,1417.8281 Q1383.8594,1417.6563 1383.75,1417.2031 Q1383.7031,1416.8906 1383.5313,1416.7188 Q1383.2188,1416.3906 1382.6563,1416.2031 Q1382.0938,1416 1381.5313,1416 Q1380.8281,1416 1380.2344,1416.2813 Q1379.6563,1416.5625 1379.2031,1417.1875 Q1378.75,1417.8125 1378.75,1418.6719 L1378.75,1419.5938 Q1378.75,1420.625 1379.5938,1421.3125 Q1380.4375,1422 1381.9375,1422 Q1382.8281,1422 1383.4531,1421.7969 Q1383.8125,1421.6875 1384.2188,1421.3281 Q1384.4844,1421.125 1384.625,1421.0625 Q1384.7656,1421 1384.9375,1421 Q1385.2656,1421 1385.5,1421.2656 Q1385.75,1421.5156 1385.75,1421.875 Q1385.75,1422.2188 1385.4063,1422.625 Q1384.9063,1423.2188 1384.1094,1423.5469 Q1383.0625,1424 1381.7813,1424 Q1380.2813,1424 1379.0781,1423.4063 Q1378.1094,1422.9375 1377.4219,1421.9219 Q1376.75,1420.9063 1376.75,1419.7031 L1376.75,1418.6094 Q1376.75,1417.3594 1377.3438,1416.2656 Q1377.9531,1415.1719 1379,1414.5938 Q1380.0625,1414 1381.25,1414 Q1381.9688,1414 1382.5938,1414.25 Q1383.2188,1414.5 1383.75,1415 Z " fill="#000000"/><text fill="#000000" font-family="sans-serif" font-size="12" lengthAdjust="spacing" textLength="19" x="1402.25" y="1423.4102">Axe</text><line style="stroke:#A80036;stroke-width:1.5;" x1="1318" x2="1473" y1="1434.5" y2="1434.5"/><line style="stroke:#A80036;stroke-width:1.5;" x1="1318" x2="1473" y1="1442.5" y2="1442.5"/><text fill="#000000" font-family="sans-serif" font-size="11" lengthAdjust="spacing" textLength="89" x="1323" y="1457.9189">+use(v: Virologist)</text><text fill="#000000" font-family="sans-serif" font-size="11" lengthAdjust="spacing" textLength="135" x="1323" y="1471.7549">+onTurnImpact(to: Virologist</text><text fill="#000000" font-family="sans-serif" font-size="11" lengthAdjust="spacing" textLength="145" x="1323" y="1485.5908">+endTurnImpact(to: Virologist)</text><!--MD5=[e2377ddc708351e849a71a4cfe199bf4]
class UsableEquipment--><rect codeLine="219" fill="#FEFECE" filter="url(#f1a9h76ccg0tmw)" height="61.8359" id="UsableEquipment" style="stroke:#A80036;stroke-width:1.5;" width="132" x="1013.5" y="1183.5"/><ellipse cx="1028.5" cy="1199.5" fill="#B4A7E5" rx="11" ry="11" style="stroke:#A80036;stroke-width:1.0;"/><path d="M1029.5,1196.5 L1029.5,1202.5 L1031.5,1202.5 L1031.9844,1202.5 L1032.5,1203.125 L1032.5,1203.5 L1032.5,1203.875 L1031.9844,1204.5 L1031.5,1204.5 L1025.5,1204.5 L1025.0156,1204.5 L1024.5,1203.875 L1024.5,1203.5 L1024.5,1203.125 L1025.0156,1202.5 L1025.5,1202.5 L1027.5,1202.5 L1027.5,1196.5 L1025.5,1196.5 L1025.0156,1196.5 L1024.5,1195.875 L1024.5,1195.5 L1024.5,1195.125 L1025.0156,1194.5 L1025.5,1194.5 L1031.5,1194.5 L1031.9844,1194.5 L1032.5,1195.125 L1032.5,1195.5 L1032.5,1195.875 L1031.9844,1196.5 L1031.5,1196.5 L1029.5,1196.5 Z " fill="#000000"/><text fill="#000000" font-family="sans-serif" font-size="12" font-style="italic" lengthAdjust="spacing" textLength="100" x="1042.5" y="1204.4102">UsableEquipment</text><line style="stroke:#A80036;stroke-width:1.5;" x1="1014.5" x2="1144.5" y1="1215.5" y2="1215.5"/><line style="stroke:#A80036;stroke-width:1.5;" x1="1014.5" x2="1144.5" y1="1223.5" y2="1223.5"/><text fill="#000000" font-family="sans-serif" font-size="11" lengthAdjust="spacing" textLength="83" x="1019.5" y="1238.9189">use(v: Virologist)</text><!--MD5=[4f7b1328bb9e016e53c6771c8cbf71a3]
class Safehouse--><rect codeLine="187" fill="#FEFECE" filter="url(#f1a9h76ccg0tmw)" height="75.6719" id="Safehouse" style="stroke:#A80036;stroke-width:1.5;" width="170" x="453.5" y="718"/><ellipse cx="504.25" cy="734" fill="#ADD1B2" rx="11" ry="11" style="stroke:#A80036;stroke-width:1.0;"/><path d="M506.25,730.5 Q506.4531,730 506.6875,729.75 Q506.9219,729.5 507.1875,729.5 Q507.6563,729.5 507.9531,729.7813 Q508.25,730.0625 508.25,730.7188 L508.25,732.2813 Q508.25,732.9375 507.9688,733.2188 Q507.6875,733.5 507.25,733.5 Q506.8594,733.5 506.6094,733.3281 Q506.3594,733.1563 506.25,732.7031 Q506.2031,732.3906 506.0313,732.2188 Q505.7188,731.8906 505.1563,731.7031 Q504.5938,731.5 504.0313,731.5 Q503.3281,731.5 502.7344,731.7813 Q502.1563,732.0625 501.7031,732.6875 Q501.25,733.3125 501.25,734.1719 L501.25,735.0938 Q501.25,736.125 502.0938,736.8125 Q502.9375,737.5 504.4375,737.5 Q505.3281,737.5 505.9531,737.2969 Q506.3125,737.1875 506.7188,736.8281 Q506.9844,736.625 507.125,736.5625 Q507.2656,736.5 507.4375,736.5 Q507.7656,736.5 508,736.7656 Q508.25,737.0156 508.25,737.375 Q508.25,737.7188 507.9063,738.125 Q507.4063,738.7188 506.6094,739.0469 Q505.5625,739.5 504.2813,739.5 Q502.7813,739.5 501.5781,738.9063 Q500.6094,738.4375 499.9219,737.4219 Q499.25,736.4063 499.25,735.2031 L499.25,734.1094 Q499.25,732.8594 499.8438,731.7656 Q500.4531,730.6719 501.5,730.0938 Q502.5625,729.5 503.75,729.5 Q504.4688,729.5 505.0938,729.75 Q505.7188,730 506.25,730.5 Z " fill="#000000"/><text fill="#000000" font-family="sans-serif" font-size="12" lengthAdjust="spacing" textLength="60" x="524.75" y="738.9102">Safehouse</text><line style="stroke:#A80036;stroke-width:1.5;" x1="454.5" x2="622.5" y1="750" y2="750"/><line style="stroke:#A80036;stroke-width:1.5;" x1="454.5" x2="622.5" y1="758" y2="758"/><text fill="#000000" font-family="sans-serif" font-size="11" lengthAdjust="spacing" textLength="129" x="459.5" y="773.4189">+collectItem(inv: Inventory)</text><text fill="#000000" font-family="sans-serif" font-size="11" lengthAdjust="spacing" textLength="158" x="459.5" y="787.2549">+getCollectableItem(): Collectable</text><!--MD5=[c5149b4909ffd2688ff51a939867f774]
class Warehouse--><rect codeLine="191" fill="#FEFECE" filter="url(#f1a9h76ccg0tmw)" height="75.6719" id="Warehouse" style="stroke:#A80036;stroke-width:1.5;" width="170" x="181.5" y="718"/><ellipse cx="230.25" cy="734" fill="#ADD1B2" rx="11" ry="11" style="stroke:#A80036;stroke-width:1.0;"/><path d="M232.25,730.5 Q232.4531,730 232.6875,729.75 Q232.9219,729.5 233.1875,729.5 Q233.6563,729.5 233.9531,729.7813 Q234.25,730.0625 234.25,730.7188 L234.25,732.2813 Q234.25,732.9375 233.9688,733.2188 Q233.6875,733.5 233.25,733.5 Q232.8594,733.5 232.6094,733.3281 Q232.3594,733.1563 232.25,732.7031 Q232.2031,732.3906 232.0313,732.2188 Q231.7188,731.8906 231.1563,731.7031 Q230.5938,731.5 230.0313,731.5 Q229.3281,731.5 228.7344,731.7813 Q228.1563,732.0625 227.7031,732.6875 Q227.25,733.3125 227.25,734.1719 L227.25,735.0938 Q227.25,736.125 228.0938,736.8125 Q228.9375,737.5 230.4375,737.5 Q231.3281,737.5 231.9531,737.2969 Q232.3125,737.1875 232.7188,736.8281 Q232.9844,736.625 233.125,736.5625 Q233.2656,736.5 233.4375,736.5 Q233.7656,736.5 234,736.7656 Q234.25,737.0156 234.25,737.375 Q234.25,737.7188 233.9063,738.125 Q233.4063,738.7188 232.6094,739.0469 Q231.5625,739.5 230.2813,739.5 Q228.7813,739.5 227.5781,738.9063 Q226.6094,738.4375 225.9219,737.4219 Q225.25,736.4063 225.25,735.2031 L225.25,734.1094 Q225.25,732.8594 225.8438,731.7656 Q226.4531,730.6719 227.5,730.0938 Q228.5625,729.5 229.75,729.5 Q230.4688,729.5 231.0938,729.75 Q231.7188,730 232.25,730.5 Z " fill="#000000"/><text fill="#000000" font-family="sans-serif" font-size="12" lengthAdjust="spacing" textLength="64" x="250.75" y="738.9102">Warehouse</text><line style="stroke:#A80036;stroke-width:1.5;" x1="182.5" x2="350.5" y1="750" y2="750"/><line style="stroke:#A80036;stroke-width:1.5;" x1="182.5" x2="350.5" y1="758" y2="758"/><text fill="#000000" font-family="sans-serif" font-size="11" lengthAdjust="spacing" textLength="129" x="187.5" y="773.4189">+collectItem(inv: Inventory)</text><text fill="#000000" font-family="sans-serif" font-size="11" lengthAdjust="spacing" textLength="158" x="187.5" y="787.2549">+getCollectableItem(): Collectable</text><!--MD5=[1abb7632e34a21a5ebaa58d0e04b6303]
class EmptyTile--><rect codeLine="195" fill="#FEFECE" filter="url(#f1a9h76ccg0tmw)" height="75.6719" id="EmptyTile" style="stroke:#A80036;stroke-width:1.5;" width="170" x="658.5" y="718"/><ellipse cx="712.25" cy="734" fill="#ADD1B2" rx="11" ry="11" style="stroke:#A80036;stroke-width:1.0;"/><path d="M714.25,730.5 Q714.4531,730 714.6875,729.75 Q714.9219,729.5 715.1875,729.5 Q715.6563,729.5 715.9531,729.7813 Q716.25,730.0625 716.25,730.7188 L716.25,732.2813 Q716.25,732.9375 715.9688,733.2188 Q715.6875,733.5 715.25,733.5 Q714.8594,733.5 714.6094,733.3281 Q714.3594,733.1563 714.25,732.7031 Q714.2031,732.3906 714.0313,732.2188 Q713.7188,731.8906 713.1563,731.7031 Q712.5938,731.5 712.0313,731.5 Q711.3281,731.5 710.7344,731.7813 Q710.1563,732.0625 709.7031,732.6875 Q709.25,733.3125 709.25,734.1719 L709.25,735.0938 Q709.25,736.125 710.0938,736.8125 Q710.9375,737.5 712.4375,737.5 Q713.3281,737.5 713.9531,737.2969 Q714.3125,737.1875 714.7188,736.8281 Q714.9844,736.625 715.125,736.5625 Q715.2656,736.5 715.4375,736.5 Q715.7656,736.5 716,736.7656 Q716.25,737.0156 716.25,737.375 Q716.25,737.7188 715.9063,738.125 Q715.4063,738.7188 714.6094,739.0469 Q713.5625,739.5 712.2813,739.5 Q710.7813,739.5 709.5781,738.9063 Q708.6094,738.4375 707.9219,737.4219 Q707.25,736.4063 707.25,735.2031 L707.25,734.1094 Q707.25,732.8594 707.8438,731.7656 Q708.4531,730.6719 709.5,730.0938 Q710.5625,729.5 711.75,729.5 Q712.4688,729.5 713.0938,729.75 Q713.7188,730 714.25,730.5 Z " fill="#000000"/><text fill="#000000" font-family="sans-serif" font-size="12" lengthAdjust="spacing" textLength="54" x="732.75" y="738.9102">EmptyTile</text><line style="stroke:#A80036;stroke-width:1.5;" x1="659.5" x2="827.5" y1="750" y2="750"/><line style="stroke:#A80036;stroke-width:1.5;" x1="659.5" x2="827.5" y1="758" y2="758"/><text fill="#000000" font-family="sans-serif" font-size="11" lengthAdjust="spacing" textLength="129" x="664.5" y="773.4189">+collectItem(inv: Inventory)</text><text fill="#000000" font-family="sans-serif" font-size="11" lengthAdjust="spacing" textLength="158" x="664.5" y="787.2549">+getCollectableItem(): Collectable</text><!--MD5=[4dfc6a72b8dd60daa1b635d583ff79da]
class Map--><rect codeLine="200" fill="#FEFECE" filter="url(#f1a9h76ccg0tmw)" height="61.8359" id="Map" style="stroke:#A80036;stroke-width:1.5;" width="77" x="917" y="287.5"/><ellipse cx="941.9" cy="303.5" fill="#ADD1B2" rx="11" ry="11" style="stroke:#A80036;stroke-width:1.0;"/><path d="M943.9,300 Q944.1031,299.5 944.3375,299.25 Q944.5719,299 944.8375,299 Q945.3063,299 945.6031,299.2813 Q945.9,299.5625 945.9,300.2188 L945.9,301.7813 Q945.9,302.4375 945.6188,302.7188 Q945.3375,303 944.9,303 Q944.5094,303 944.2594,302.8281 Q944.0094,302.6563 943.9,302.2031 Q943.8531,301.8906 943.6813,301.7188 Q943.3688,301.3906 942.8063,301.2031 Q942.2438,301 941.6813,301 Q940.9781,301 940.3844,301.2813 Q939.8063,301.5625 939.3531,302.1875 Q938.9,302.8125 938.9,303.6719 L938.9,304.5938 Q938.9,305.625 939.7438,306.3125 Q940.5875,307 942.0875,307 Q942.9781,307 943.6031,306.7969 Q943.9625,306.6875 944.3688,306.3281 Q944.6344,306.125 944.775,306.0625 Q944.9156,306 945.0875,306 Q945.4156,306 945.65,306.2656 Q945.9,306.5156 945.9,306.875 Q945.9,307.2188 945.5563,307.625 Q945.0563,308.2188 944.2594,308.5469 Q943.2125,309 941.9313,309 Q940.4313,309 939.2281,308.4063 Q938.2594,307.9375 937.5719,306.9219 Q936.9,305.9063 936.9,304.7031 L936.9,303.6094 Q936.9,302.3594 937.4938,301.2656 Q938.1031,300.1719 939.15,299.5938 Q940.2125,299 941.4,299 Q942.1188,299 942.7438,299.25 Q943.3688,299.5 943.9,300 Z " fill="#000000"/><text fill="#000000" font-family="sans-serif" font-size="12" lengthAdjust="spacing" textLength="23" x="958.1" y="308.4102">Map</text><line style="stroke:#A80036;stroke-width:1.5;" x1="918" x2="993" y1="319.5" y2="319.5"/><line style="stroke:#A80036;stroke-width:1.5;" x1="918" x2="993" y1="327.5" y2="327.5"/><text fill="#000000" font-family="sans-serif" font-size="11" lengthAdjust="spacing" textLength="65" x="923" y="342.9189">+createMap()</text><!--MD5=[1d7ba1c7002d54515419844fbd155368]
class Controller--><rect codeLine="211" fill="#FEFECE" filter="url(#f1a9h76ccg0tmw)" height="117.1797" id="Controller" style="stroke:#A80036;stroke-width:1.5;" width="172" x="1094.5" y="7"/><ellipse cx="1149.25" cy="23" fill="#ADD1B2" rx="11" ry="11" style="stroke:#A80036;stroke-width:1.0;"/><path d="M1151.25,19.5 Q1151.4531,19 1151.6875,18.75 Q1151.9219,18.5 1152.1875,18.5 Q1152.6563,18.5 1152.9531,18.7813 Q1153.25,19.0625 1153.25,19.7188 L1153.25,21.2813 Q1153.25,21.9375 1152.9688,22.2188 Q1152.6875,22.5 1152.25,22.5 Q1151.8594,22.5 1151.6094,22.3281 Q1151.3594,22.1563 1151.25,21.7031 Q1151.2031,21.3906 1151.0313,21.2188 Q1150.7188,20.8906 1150.1563,20.7031 Q1149.5938,20.5 1149.0313,20.5 Q1148.3281,20.5 1147.7344,20.7813 Q1147.1563,21.0625 1146.7031,21.6875 Q1146.25,22.3125 1146.25,23.1719 L1146.25,24.0938 Q1146.25,25.125 1147.0938,25.8125 Q1147.9375,26.5 1149.4375,26.5 Q1150.3281,26.5 1150.9531,26.2969 Q1151.3125,26.1875 1151.7188,25.8281 Q1151.9844,25.625 1152.125,25.5625 Q1152.2656,25.5 1152.4375,25.5 Q1152.7656,25.5 1153,25.7656 Q1153.25,26.0156 1153.25,26.375 Q1153.25,26.7188 1152.9063,27.125 Q1152.4063,27.7188 1151.6094,28.0469 Q1150.5625,28.5 1149.2813,28.5 Q1147.7813,28.5 1146.5781,27.9063 Q1145.6094,27.4375 1144.9219,26.4219 Q1144.25,25.4063 1144.25,24.2031 L1144.25,23.1094 Q1144.25,21.8594 1144.8438,20.7656 Q1145.4531,19.6719 1146.5,19.0938 Q1147.5625,18.5 1148.75,18.5 Q1149.4688,18.5 1150.0938,18.75 Q1150.7188,19 1151.25,19.5 Z " fill="#000000"/><text fill="#000000" font-family="sans-serif" font-size="12" lengthAdjust="spacing" textLength="54" x="1169.75" y="27.9102">Controller</text><line style="stroke:#A80036;stroke-width:1.5;" x1="1095.5" x2="1265.5" y1="39" y2="39"/><text fill="#000000" font-family="sans-serif" font-size="11" lengthAdjust="spacing" textLength="80" x="1100.5" y="54.4189">-activePlayer: int</text><line style="stroke:#A80036;stroke-width:1.5;" x1="1095.5" x2="1265.5" y1="60.8359" y2="60.8359"/><text fill="#000000" font-family="sans-serif" font-size="11" lengthAdjust="spacing" textLength="90" x="1100.5" y="76.2549">+startGame(): void</text><text fill="#000000" font-family="sans-serif" font-size="11" lengthAdjust="spacing" textLength="160" x="1100.5" y="90.0908">+checkWinner(v: Virologist): void</text><text fill="#000000" font-family="sans-serif" font-size="11" lengthAdjust="spacing" textLength="90" x="1100.5" y="103.9268">-nextRound(): void</text><text fill="#000000" font-family="sans-serif" font-size="11" lengthAdjust="spacing" textLength="152" x="1100.5" y="117.7627">+removeVirologist(v: Virologist)</text><!--MD5=[0f8b194217655d332f3f52885d0189ea]
reverse link Collectable to Resource--><path d="M852.39,797.3 C824.3,813.87 792.25,833.88 764.5,854 C613.19,963.71 574.18,992.45 445.5,1128 C362.04,1215.92 278.71,1330.96 233.68,1395.98 " fill="none" id="Collectable-backto-Resource" style="stroke:#A80036;stroke-width:1.0;stroke-dasharray:7.0,7.0;"/><polygon fill="none" points="848.94,791.21,869.75,787.2,855.98,803.31,848.94,791.21" style="stroke:#A80036;stroke-width:1.0;"/><!--MD5=[0c40b94a56bef4ba20da66d27b28221b]
link Resource to ResourceType--><path codeLine="17" d="M199.5,1499.2 C199.5,1534.9 199.5,1581.9 199.5,1614.19 " fill="none" id="Resource-ResourceType" style="stroke:#FFFFFF;stroke-width:1.0;"/><!--MD5=[48a32b381bd0478f9c278840f73d7611]
reverse link Effect to Agent--><path d="M1431.06,1044.02 C1481.02,1132.06 1560.04,1271.28 1610.82,1360.73 " fill="none" id="Effect-backto-Agent" style="stroke:#A80036;stroke-width:1.0;stroke-dasharray:7.0,7.0;"/><polygon fill="none" points="1424.94,1047.44,1421.16,1026.59,1437.12,1040.53,1424.94,1047.44" style="stroke:#A80036;stroke-width:1.0;"/><!--MD5=[a7d5ccfb9088b8210a90e968e7801d3a]
reverse link Agent to AmnesiaVirus--><path d="M1659.5,1554.23 C1659.5,1575.83 1659.5,1597.17 1659.5,1614.34 " fill="none" id="Agent-backto-AmnesiaVirus" style="stroke:#A80036;stroke-width:1.0;"/><polygon fill="none" points="1652.5,1554,1659.5,1534,1666.5,1554,1652.5,1554" style="stroke:#A80036;stroke-width:1.0;"/><!--MD5=[a8a6346d9cc26ede44f4b6e24045c557]
reverse link Agent to StunVirus--><path d="M1751.49,1548.9 C1770.32,1569.45 1789.2,1590.05 1805.04,1607.35 " fill="none" id="Agent-backto-StunVirus" style="stroke:#A80036;stroke-width:1.0;"/><polygon fill="none" points="1746.19,1553.48,1737.84,1534,1756.51,1544.02,1746.19,1553.48" style="stroke:#A80036;stroke-width:1.0;"/><!--MD5=[931b35c9023dd3974f651c4f19c832dd]
reverse link Agent to VitusDanceVirus--><path d="M1827.95,1533.82 C1864.66,1553.11 1903.1,1573.86 1938.5,1594 C1949.72,1600.38 1961.54,1607.43 1972.85,1614.34 " fill="none" id="Agent-backto-VitusDanceVirus" style="stroke:#A80036;stroke-width:1.0;"/><polygon fill="none" points="1824.56,1539.95,1810.09,1524.47,1831.05,1527.54,1824.56,1539.95" style="stroke:#A80036;stroke-width:1.0;"/><!--MD5=[10c7e9c8d3e11b8e61eecf4730588be4]
reverse link Agent to BearDanceVirus--><path d="M1489.74,1534.13 C1375.9,1573.4 1339.15,1563.01 1230.5,1594 C1224.87,1595.61 1219.15,1597.29 1213.38,1599.03 " fill="none" id="Agent-backto-BearDanceVirus" style="stroke:#A80036;stroke-width:1.0;"/><polygon fill="none" points="1487.51,1527.5,1508.7,1527.39,1492.2,1540.69,1487.51,1527.5" style="stroke:#A80036;stroke-width:1.0;"/><!--MD5=[a6904c6eaa961520987307df4c488bce]
reverse link Agent to Vaccine--><path d="M1533.4,1546.58 C1502.34,1570.74 1470.95,1595.15 1446.28,1614.34 " fill="none" id="Agent-backto-Vaccine" style="stroke:#A80036;stroke-width:1.0;"/><polygon fill="none" points="1529.48,1540.76,1549.57,1534,1538.08,1551.81,1529.48,1540.76" style="stroke:#A80036;stroke-width:1.0;"/><!--MD5=[a9bf2fda0d22136215a837471dd366cb]
reverse link Collectable to GeneticCode--><path d="M1003.16,795.39 C1028.34,810.76 1054.56,830.48 1073.5,854 C1137.27,933.22 1093.7,986.48 1154.5,1068 C1164.16,1080.95 1232.14,1131.56 1284.28,1169.47 " fill="none" id="Collectable-backto-GeneticCode" style="stroke:#A80036;stroke-width:1.0;stroke-dasharray:7.0,7.0;"/><polygon fill="none" points="999.37,801.28,985.57,785.2,1006.38,789.16,999.37,801.28" style="stroke:#A80036;stroke-width:1.0;"/><!--MD5=[b6f67d9bb96388ca5a8941ecc491e681]
link Tile to Collectable--><path codeLine="114" d="M924.5,658.45 C924.5,679.52 924.5,701.65 924.5,719.4 " fill="none" id="Tile-to-Collectable" style="stroke:#A80036;stroke-width:1.0;stroke-dasharray:7.0,7.0;"/><polygon fill="#A80036" points="924.5,724.76,928.5,715.76,924.5,719.76,920.5,715.76,924.5,724.76" style="stroke:#A80036;stroke-width:1.0;"/><!--MD5=[11265872cfee522af2695b44c5b87e0c]
link Collectable to Inventory--><path codeLine="115" d="M926.15,787.39 C927.06,804.15 928.25,826.11 929.47,848.73 " fill="none" id="Collectable-to-Inventory" style="stroke:#A80036;stroke-width:1.0;stroke-dasharray:7.0,7.0;"/><polygon fill="#A80036" points="929.75,853.87,933.2563,844.6664,929.479,848.8774,925.268,845.1001,929.75,853.87" style="stroke:#A80036;stroke-width:1.0;"/><!--MD5=[a1dfe37600535fde98007b1f9d24b7df]
link Virologist to GeneticCode--><path codeLine="116" d="M1161,453.31 C1144.28,607.64 1134.25,866.03 1216.5,1068 C1231.73,1105.4 1260.89,1139.62 1287.64,1165.46 " fill="none" id="Virologist-to-GeneticCode" style="stroke:#A80036;stroke-width:1.0;stroke-dasharray:7.0,7.0;"/><polygon fill="#A80036" points="1291.57,1169.21,1287.8311,1160.0984,1287.9568,1165.7539,1282.3013,1165.8796,1291.57,1169.21" style="stroke:#A80036;stroke-width:1.0;"/><!--MD5=[bdbe34e6d9a750cd1752d63814bf99ac]
link Virologist to Agent--><path codeLine="117" d="M1298.18,453.24 C1382.1,555.92 1490.64,704.94 1552.5,854 C1622.37,1022.38 1646.7,1236.34 1655.11,1355.62 " fill="none" id="Virologist-to-Agent" style="stroke:#A80036;stroke-width:1.0;stroke-dasharray:7.0,7.0;"/><polygon fill="#A80036" points="1655.48,1360.87,1658.8267,1351.6072,1655.1227,1355.8828,1650.8472,1352.1788,1655.48,1360.87" style="stroke:#A80036;stroke-width:1.0;"/><!--MD5=[d03a49ab3870be4550990707d9d87bb6]
link Equipment to Agent--><path codeLine="118" d="M978.04,1295.17 C983.88,1297.28 989.71,1299.24 995.5,1301 C1207.92,1365.68 1279.08,1296.32 1491.5,1361 C1495.66,1362.27 1499.85,1363.63 1504.04,1365.09 " fill="none" id="Equipment-to-Agent" style="stroke:#A80036;stroke-width:1.0;stroke-dasharray:7.0,7.0;"/><polygon fill="#A80036" points="1508.96,1366.83,1501.814,1360.0525,1504.2474,1365.1592,1499.1407,1367.5926,1508.96,1366.83" style="stroke:#A80036;stroke-width:1.0;"/><!--MD5=[c7feed02f19a13230698e5d952c2a497]
link Virologist to Inventory--><path codeLine="120" d="M1132.44,453.25 C1109.79,515.62 1082.16,590.76 1056.5,658 C1033.31,718.76 1026.67,733.62 1002.5,794 C994.76,813.33 986.48,833.91 978.48,853.77 " fill="none" id="Virologist-Inventory" style="stroke:#A80036;stroke-width:1.0;"/><text fill="#000000" font-family="sans-serif" font-size="13" lengthAdjust="spacing" textLength="69" x="1058.667" y="474.9972">-virologist, 1</text><text fill="#000000" font-family="sans-serif" font-size="13" lengthAdjust="spacing" textLength="70" x="909.0411" y="843.1743">-inventory, 1</text><!--MD5=[ce4c7899d3f1528f67a831a102741450]
reverse link Virologist to Effect--><path codeLine="121" d="M1227.11,465.85 C1270.13,600.93 1332.02,795.24 1363.86,895.18 " fill="none" id="Virologist-backto-Effect" style="stroke:#A80036;stroke-width:1.0;"/><polygon fill="#A80036" points="1223.14,453.38,1221.1485,460.3107,1226.7801,464.8146,1228.7716,457.8839,1223.14,453.38" style="stroke:#A80036;stroke-width:1.0;"/><text fill="#000000" font-family="sans-serif" font-size="13" lengthAdjust="spacing" textLength="105" x="1250.8603" y="884.6194">-activeEffects, 0..*</text><!--MD5=[830b2f6f82d2e699b299ff1dd58a454b]
reverse link Inventory to GeneticCode--><path codeLine="123" d="M1067.22,1058.47 C1072.66,1061.78 1078.1,1064.97 1083.5,1068 C1142.87,1101.36 1165.02,1094.83 1224.5,1128 C1246.18,1140.09 1268.71,1155.21 1288.36,1169.37 " fill="none" id="Inventory-backto-GeneticCode" style="stroke:#A80036;stroke-width:1.0;"/><polygon fill="#A80036" points="1056.06,1051.54,1059.0471,1058.1033,1066.2545,1057.8703,1063.2673,1051.307,1056.06,1051.54" style="stroke:#A80036;stroke-width:1.0;"/><text fill="#000000" font-family="sans-serif" font-size="13" lengthAdjust="spacing" textLength="101" x="1170.8776" y="1158.7942">-learntCodes, 0..*</text><!--MD5=[505f9e055db18b409b654428cce0a1c2]
link Inventory to Equipment--><path codeLine="124" d="M889.85,1068.29 C882.07,1086.43 874.04,1105.12 866.45,1122.8 " fill="none" id="Inventory-to-Equipment" style="stroke:#A80036;stroke-width:1.0;"/><polygon fill="#A80036" points="864.32,1127.76,871.5419,1121.0634,866.2896,1123.1643,864.1887,1117.912,864.32,1127.76" style="stroke:#A80036;stroke-width:1.0;"/><text fill="#000000" font-family="sans-serif" font-size="13" lengthAdjust="spacing" textLength="155" x="705.8241" y="1117.149">-pickedUpEquipments, 0..*</text><!--MD5=[2ec960a51115a2f753496f46ba2c1290]
link Inventory to Agent--><path codeLine="125" d="M1056.19,1061.27 C1059.31,1063.56 1062.42,1065.8 1065.5,1068 C1106.79,1097.41 1129.63,1089.41 1162.5,1128 C1216.51,1191.4 1170.96,1247.16 1234.5,1301 C1323.99,1376.82 1381.32,1320.77 1491.5,1361 C1495.59,1362.49 1499.7,1364.06 1503.83,1365.69 " fill="none" id="Inventory-to-Agent" style="stroke:#A80036;stroke-width:1.0;"/><polygon fill="#A80036" points="1508.69,1367.64,1501.8193,1360.5836,1504.0476,1365.783,1498.8481,1368.0114,1508.69,1367.64" style="stroke:#A80036;stroke-width:1.0;"/><text fill="#000000" font-family="sans-serif" font-size="13" lengthAdjust="spacing" textLength="112" x="1389.2578" y="1361.9925">-craftedAgents, 0..*</text><!--MD5=[c81027f0028008fca17562df89505904]
link Inventory to Resource--><path codeLine="126" d="M814.87,1029.35 C765.64,1058.15 708.81,1093.14 659.5,1128 C560.75,1197.8 548.75,1231.92 449.5,1301 C401.69,1334.28 345.87,1367.28 299.12,1393.41 " fill="none" id="Inventory-to-Resource" style="stroke:#A80036;stroke-width:1.0;"/><polygon fill="#A80036" points="294.63,1395.92,304.4388,1395.0322,298.9974,1393.4857,300.5439,1388.0444,294.63,1395.92" style="stroke:#A80036;stroke-width:1.0;"/><text fill="#000000" font-family="sans-serif" font-size="13" lengthAdjust="spacing" textLength="78" x="224.5233" y="1385.0372">-resources, N</text><!--MD5=[7a4c21b2d2faa4b4ddf9fcc5e3748c7e]
reverse link GeneticCode to Resource--><path codeLine="128" d="M1255.5,1265.34 C1226.61,1279.19 1193.94,1292.69 1162.5,1301 C837.91,1386.76 736.15,1283.45 409.5,1361 C374.74,1369.25 338.24,1382.4 305.59,1395.93 " fill="none" id="GeneticCode-backto-Resource" style="stroke:#A80036;stroke-width:1.0;"/><polygon fill="#A80036" points="1267.21,1259.61,1260.0623,1258.6558,1256.4324,1264.8867,1263.5801,1265.8409,1267.21,1259.61" style="stroke:#A80036;stroke-width:1.0;"/><text fill="#000000" font-family="sans-serif" font-size="13" lengthAdjust="spacing" textLength="49" x="323.9542" y="1385.0486">-price, N</text><!--MD5=[7f2e90b36e87ddda7eb383d1b5361eb1]
reverse link GeneticCode to Agent--><path codeLine="129" d="M1416.46,1267.7 C1453.87,1295.22 1500.71,1329.68 1543.26,1360.98 " fill="none" id="GeneticCode-backto-Agent" style="stroke:#A80036;stroke-width:1.0;"/><polygon fill="#A80036" points="1405.67,1259.77,1408.1342,1266.547,1415.3376,1266.8789,1412.8735,1260.1019,1405.67,1259.77" style="stroke:#A80036;stroke-width:1.0;"/><text fill="#000000" font-family="sans-serif" font-size="13" lengthAdjust="spacing" textLength="51" x="1535.1785" y="1350.0938">-agent, 1</text><!--MD5=[ed3e0a97bd33a5164104b3d64a78201c]
link Virologist to Tile--><path codeLine="131" d="M1059.25,445.02 C1036.76,468.29 1014,491.86 993.74,512.83 " fill="none" id="Virologist-Tile" style="stroke:#A80036;stroke-width:1.0;"/><text fill="#000000" font-family="sans-serif" font-size="13" lengthAdjust="spacing" textLength="74" x="977.5848" y="448.2554">-players, 0..*</text><text fill="#000000" font-family="sans-serif" font-size="13" lengthAdjust="spacing" textLength="72" x="1004.5929" y="502.0318">-activeTile, 1</text><!--MD5=[ee5d11a555f13a68b9537ad812a541a7]
reverse link Effect to Equipment--><path d="M1215.24,1031.31 C1146.58,1060.18 1066.8,1094.69 995.5,1128 C989.87,1130.63 984.14,1133.34 978.38,1136.11 " fill="none" id="Effect-backto-Equipment" style="stroke:#A80036;stroke-width:1.0;stroke-dasharray:7.0,7.0;"/><polygon fill="none" points="1212.68,1024.79,1233.83,1023.51,1218.09,1037.7,1212.68,1024.79" style="stroke:#A80036;stroke-width:1.0;"/><!--MD5=[20e3e2d17064009f1531e1f50cb0e83a]
reverse link Collectable to Equipment--><path d="M847.15,798.5 C827.32,813.21 808.5,831.75 797.5,854 C754.95,940.03 774.1,1051.89 796.32,1127.83 " fill="none" id="Collectable-backto-Equipment" style="stroke:#A80036;stroke-width:1.0;stroke-dasharray:7.0,7.0;"/><polygon fill="none" points="843.44,792.56,863.9,787.05,851.34,804.11,843.44,792.56" style="stroke:#A80036;stroke-width:1.0;"/><!--MD5=[6b3722415a383bd74dd1bdc3e0e2a09f]
reverse link Equipment to ProtectiveCloak--><path d="M956.35,1313.41 C1005.25,1350.57 1057.43,1390.22 1091.99,1416.48 " fill="none" id="Equipment-backto-ProtectiveCloak" style="stroke:#A80036;stroke-width:1.0;"/><polygon fill="none" points="951.96,1318.86,940.27,1301.19,960.43,1307.71,951.96,1318.86" style="stroke:#A80036;stroke-width:1.0;"/><!--MD5=[466911e97685cb26f098cd232a5d4f54]
reverse link Equipment to Bag--><path d="M691.85,1313.17 C670.23,1329.03 648.18,1345.37 627.5,1361 C606.87,1376.59 584.35,1394.16 565.16,1409.3 " fill="none" id="Equipment-backto-Bag" style="stroke:#A80036;stroke-width:1.0;"/><polygon fill="none" points="687.99,1307.32,708.27,1301.16,696.26,1318.62,687.99,1307.32" style="stroke:#A80036;stroke-width:1.0;"/><!--MD5=[6427eaf747e5babacb8dcce1da559e51]
reverse link Equipment to Glove--><path d="M812.87,1321.14 C808.5,1352.69 803.99,1385.22 800.66,1409.23 " fill="none" id="Equipment-backto-Glove" style="stroke:#A80036;stroke-width:1.0;"/><polygon fill="none" points="805.95,1320.04,815.63,1301.19,819.82,1321.96,805.95,1320.04" style="stroke:#A80036;stroke-width:1.0;"/><!--MD5=[230916196323f7b7a9cccea576cbb596]
reverse link Equipment to Axe--><path d="M997.52,1300.97 C1130.35,1342.05 1181.71,1302.46 1299.5,1361 C1320.09,1371.23 1339.65,1387.07 1355.68,1402.35 " fill="none" id="Equipment-backto-Axe" style="stroke:#A80036;stroke-width:1.0;"/><polygon fill="none" points="995.03,1307.52,978.22,1294.62,999.41,1294.22,995.03,1307.52" style="stroke:#A80036;stroke-width:1.0;"/><!--MD5=[3cd3429bc1a0559fbf15c08b83a78d9f]
reverse link UsableEquipment to Axe--><path d="M1122.38,1259.96 C1137.41,1274.13 1154.94,1289.18 1172.5,1301 C1224.29,1335.86 1247.44,1326.55 1299.5,1361 C1317.56,1372.95 1335.71,1388.11 1351.3,1402.35 " fill="none" id="UsableEquipment-backto-Axe" style="stroke:#A80036;stroke-width:1.0;stroke-dasharray:7.0,7.0;"/><polygon fill="none" points="1117.16,1264.65,1107.72,1245.68,1126.93,1254.62,1117.16,1264.65" style="stroke:#A80036;stroke-width:1.0;"/><!--MD5=[d3b639eb352b9bd26202150644ff3fbf]
reverse link Tile to Laboratory--><path d="M1040.43,635.65 C1166.51,689.16 1373.96,777.35 1552.5,854 C1605.63,876.81 1665.15,902.56 1712.23,922.97 " fill="none" id="Tile-backto-Laboratory" style="stroke:#A80036;stroke-width:1.0;"/><polygon fill="none" points="1037.34,641.94,1021.67,627.69,1042.81,629.06,1037.34,641.94" style="stroke:#A80036;stroke-width:1.0;"/><!--MD5=[30e6998d564eb22539a02b783a3a5efe]
reverse link Laboratory to InfectedLaboratory--><path d="M1797.5,1019.15 C1797.5,1070.16 1797.5,1142.86 1797.5,1183.34 " fill="none" id="Laboratory-backto-InfectedLaboratory" style="stroke:#A80036;stroke-width:1.0;"/><polygon fill="none" points="1790.5,1019.11,1797.5,999.11,1804.5,1019.11,1790.5,1019.11" style="stroke:#A80036;stroke-width:1.0;"/><!--MD5=[c80720f88904a4796a8fc4d44b53d932]
reverse link Agent to InfectedLaboratory--><path codeLine="185" d="M1717.56,1349.32 C1739.83,1312.03 1763.67,1272.13 1779.46,1245.7 " fill="none" id="Agent-backto-InfectedLaboratory" style="stroke:#A80036;stroke-width:1.0;"/><polygon fill="#A80036" points="1710.7,1360.79,1717.2076,1357.6834,1716.8429,1350.4815,1710.3353,1353.5881,1710.7,1360.79" style="stroke:#A80036;stroke-width:1.0;"/><text fill="#000000" font-family="sans-serif" font-size="13" lengthAdjust="spacing" textLength="51" x="1661.7367" y="1350.1816">-agent, 1</text><!--MD5=[d06935ba1ab126300bd5b463f41b0931]
reverse link Tile to Safehouse--><path d="M808.62,637.09 C749.06,663.08 677.78,694.2 623.4,717.94 " fill="none" id="Tile-backto-Safehouse" style="stroke:#A80036;stroke-width:1.0;"/><polygon fill="none" points="805.97,630.61,827.1,629.02,811.57,643.44,805.97,630.61" style="stroke:#A80036;stroke-width:1.0;"/><!--MD5=[f678b4eb16223263a0988bbd3a1b9d61]
reverse link Tile to Warehouse--><path d="M807.91,616.36 C677.09,649.86 468.03,703.39 351.68,733.19 " fill="none" id="Tile-backto-Warehouse" style="stroke:#A80036;stroke-width:1.0;"/><polygon fill="none" points="806.3,609.54,827.41,611.36,809.77,623.11,806.3,609.54" style="stroke:#A80036;stroke-width:1.0;"/><!--MD5=[ce00ed01a024100edddc6e8f253b8d16]
reverse link Tile to EmptyTile--><path d="M832.72,671.94 C815.5,687.97 798.34,703.95 783.73,717.54 " fill="none" id="Tile-backto-EmptyTile" style="stroke:#A80036;stroke-width:1.0;"/><polygon fill="none" points="828.07,666.71,847.48,658.2,837.61,676.95,828.07,666.71" style="stroke:#A80036;stroke-width:1.0;"/><!--MD5=[ebdac7d12228737842a18d4b55f78902]
reverse link Laboratory to GeneticCode--><path codeLine="204" d="M1723.23,1005.68 C1690.08,1025 1650.46,1047.86 1614.5,1068 C1552.54,1102.69 1481.89,1140.85 1428.55,1169.38 " fill="none" id="Laboratory-backto-GeneticCode" style="stroke:#A80036;stroke-width:1.0;"/><polygon fill="#A80036" points="1734.66,999,1727.4616,998.5715,1724.2975,1005.0514,1731.4959,1005.4798,1734.66,999" style="stroke:#A80036;stroke-width:1.0;"/><text fill="#000000" font-family="sans-serif" font-size="13" lengthAdjust="spacing" textLength="50" x="1387.1327" y="1158.8057">#code, 1</text><!--MD5=[553a3a0eb6f4fdb8440293f0eb924568]
reverse link Safehouse to Equipment--><path codeLine="205" d="M569.25,805.58 C617.85,882.34 713.05,1032.72 773.3,1127.89 " fill="none" id="Safehouse-backto-Equipment" style="stroke:#A80036;stroke-width:1.0;"/><polygon fill="#A80036" points="562.15,794.36,561.9808,801.5691,568.5703,804.498,568.7395,797.2889,562.15,794.36" style="stroke:#A80036;stroke-width:1.0;"/><text fill="#000000" font-family="sans-serif" font-size="13" lengthAdjust="spacing" textLength="79" x="686.5405" y="1100.9366">-equipment, 1</text><text fill="#000000" font-family="sans-serif" font-size="13" lengthAdjust="spacing" textLength="0" x="728.0405" y="1117.2881"/><!--MD5=[90ae5e806468a0d95b80e6d6fe9732bc]
reverse link Warehouse to Resource--><path codeLine="206" d="M261.63,807.12 C249.28,934.19 216.85,1267.92 204.44,1395.71 " fill="none" id="Warehouse-backto-Resource" style="stroke:#A80036;stroke-width:1.0;"/><polygon fill="#A80036" points="262.9,794.07,258.3387,799.6552,261.7399,806.0138,266.3012,800.4286,262.9,794.07" style="stroke:#A80036;stroke-width:1.0;"/><text fill="#000000" font-family="sans-serif" font-size="13" lengthAdjust="spacing" textLength="81" x="118.6616" y="1385.1714">-collectable, 1</text><!--MD5=[ff53eace86c1d97199ea61ea19204bfe]
reverse link Map to Tile--><path codeLine="208" d="M950.46,362.55 C945.71,403.15 938.51,464.77 932.89,512.79 " fill="none" id="Map-backto-Tile" style="stroke:#A80036;stroke-width:1.0;"/><polygon fill="#A80036" points="951.97,349.64,947.2985,355.1333,950.5725,361.5583,955.244,356.065,951.97,349.64" style="stroke:#A80036;stroke-width:1.0;"/><text fill="#000000" font-family="sans-serif" font-size="13" lengthAdjust="spacing" textLength="43" x="888.538" y="501.9877">-tiles, L</text><!--MD5=[a176ebf06cb10ddd6ba1768217facd81]
reverse link Tile to Tile--><path codeLine="209" d="M1026.86,555.74 C1044.37,559.8 1056.5,569.72 1056.5,585.5 C1056.5,602.77 1041.98,613.02 1021.78,616.25 " fill="none" id="Tile-backto-Tile" style="stroke:#A80036;stroke-width:1.0;"/><polygon fill="#A80036" points="1021.78,554.75,1029.8462,560.4012,1026.6873,555.7086,1031.3799,552.5496,1021.78,554.75" style="stroke:#A80036;stroke-width:1.0;"/><text fill="#000000" font-family="sans-serif" font-size="13" lengthAdjust="spacing" textLength="99" x="1029.3483" y="614.9311">-neighbours, 1..K</text><!--MD5=[c8b51f9ece8bab65c50df5b2725acd37]
reverse link Inventory to UsableEquipment--><path codeLine="223" d="M1002.85,1079.63 C1024.84,1118.04 1047.41,1157.46 1062.32,1183.49 " fill="none" id="Inventory-backto-UsableEquipment" style="stroke:#A80036;stroke-width:1.0;"/><polygon fill="#A80036" points="996.36,1068.29,995.8746,1075.4847,1002.3293,1078.7,1002.8146,1071.5052,996.36,1068.29" style="stroke:#A80036;stroke-width:1.0;"/><text fill="#000000" font-family="sans-serif" font-size="13" lengthAdjust="spacing" textLength="139" x="1073.765" y="1172.5081">-usableEquipments, 0..*</text><!--MD5=[c500f5464b9dc4a96a985056f627131e]
reverse link Controller to Map--><path codeLine="225" d="M1093.82,132.89 C1075.59,148.69 1057.16,166.17 1041.5,184 C1013.03,216.42 987.23,259.09 971.47,287.37 " fill="none" id="Controller-backto-Map" style="stroke:#A80036;stroke-width:1.0;"/><polygon fill="#A80036" points="1103.91,124.29,1096.7484,125.1338,1094.7729,132.0691,1101.9345,131.2252,1103.91,124.29" style="stroke:#A80036;stroke-width:1.0;"/><text fill="#000000" font-family="sans-serif" font-size="13" lengthAdjust="spacing" textLength="44" x="926.2263" y="276.8477">-map, 1</text><!--MD5=[3376a3f55cb4a31cb5ab837910487bb3]
link Controller to Virologist--><path codeLine="226" d="M1180.5,124.08 C1180.5,142.1 1180.5,162.8 1180.5,183.8 " fill="none" id="Controller-Virologist" style="stroke:#A80036;stroke-width:1.0;"/><text fill="#000000" font-family="sans-serif" font-size="13" lengthAdjust="spacing" textLength="57" x="1120.0266" y="145.7">-controller</text><text fill="#000000" font-family="sans-serif" font-size="13" lengthAdjust="spacing" textLength="80" x="1098.1875" y="173.0446">-players, 2..M</text><!--MD5=[a4b40ac3fa88b8b481ea2d5df8bf623d]
reverse link Controller to GeneticCode--><path codeLine="227" d="M1277.25,129.14 C1397.91,215.72 1588.5,384.2 1588.5,584.5 C1588.5,584.5 1588.5,584.5 1588.5,757 C1588.5,896.15 1623.64,948.42 1552.5,1068 C1526.22,1112.17 1480.73,1146.36 1439.07,1170.46 " fill="none" id="Controller-backto-GeneticCode" style="stroke:#A80036;stroke-width:1.0;"/><polygon fill="#A80036" points="1266.53,121.52,1269.1055,128.2555,1276.3135,128.4686,1273.738,121.7332,1266.53,121.52" style="stroke:#A80036;stroke-width:1.0;"/><text fill="#000000" font-family="sans-serif" font-size="13" lengthAdjust="spacing" textLength="53" x="1447.1372" y="1164.487">-codes, J</text><!--MD5=[0d3df727ed3530155b4a88dae14b7759]
@startuml
'https://plantuml.com/class-diagram
skinparam classAttributeIconSize 0

class Resource implements Collectable {
    -amount: int
    -type: ResourceType
    +collect(inv: Inventory)
    {static} getResourceByType(resources: Resource[], type: ResourceType): Resource

}

enum ResourceType {
    AminoAcid
    Nucleotide
}

Resource - - ResourceType #line:white

abstract class Agent implements Effect {

    #roundsLeft: int
    +use(from: Virologist, to: Virologist)
    {static} {abstract} +create(): Agent
    /'             Effect interface            '/
    +onTurnImpact(to: Virologist): void
    +endTurnImpact(to: Virologist): void
    +counterImpact(agent: Agent, from: Virologist, to: Virologist)
    +allowStealing(): boolean
    +decrement(v: Virologist): void
    +infect(infector: Virologist)
}

class AmnesiaVirus extends Agent{
    {static} +create(): Agent
    +onTurnImpact(to: Virologist)
}

class StunVirus extends Agent{
    {static} +create(): Agent
    +onTurnImpact(to: Virologist)
    +allowStealing(): boolean
}
class VitusDanceVirus extends Agent{
    {static} +create(): Agent
    +onTurnImpact(to: Virologist)
}
class BearDanceVirus extends Agent {
    {static} +create(): Agent
    +onTurnImpact(to: Virologist)
    +counterImpact(agent: Agent, from: Virologist, to: Virologist)
    +infect(infector: Virologist)
    +decrement(v: Virologist)
}
class Vaccine extends Agent{
    {static} +create(): Agent
    +counterImpact(agent: Agent, from: Virologist, to: Virologist)
}

class Virologist {
    -actionsLeft: int
    +addEffect(effect: Effect)
    +removeEffect(effect:Effect)
    'default useCases:
    -moveTo(newTile: Tile)
    -pickUp()
    -craft(code: GeneticCode)
    -dropEquipment(eq: Equipment)
    -useAgent(agent: Agent, v: Virologist)
    -steal(Virologist v)
    +pass()
    'useCase wrappers
    -getNeighbours(): Tile[]
    -getCraftables(): GeneticCode[]
    -getCraftedAgents(): Agent[]
    -getNearbyVirologists(): Virologist[]
    -getNearbyVirologistsToStealFrom(): Virologist[]
    +myTurn()
}

class Inventory {
    -maxResourceAmount: int
    +addGeneticCode(gc: GeneticCode)
    +addEquipment(eq: Equipment)
    +addCraftedAgent(agent: Agent)
    +addResource(res: Resource)
    +addUsableEquipment(UsableEquipment ue)
    +removeGeneticCode(gc: GeneticCode)
    +removeEquipment(eq: Equipment): boolean
    +removeCraftedAgent(agent: Agent)
    +removeResource(res: Resource)
    +removeUsableEquipment(UsableEquipment ue)
    +steal(from: Inventory, what: Equipment)
}


interface Effect {
    +onTurnImpact(to: Virologist)
    +endTurnImpact(to: Virologist)
    +counterImpact(agent: Agent, from: Virologist, to: Virologist)
    +allowStealing(): boolean
    +decrement(v: Virologist)
    +infect(infector: Virologist)
}
class GeneticCode implements Collectable {
    +collect(inv: Inventory) /'Collectable'/
    +isCraftable(inv: Inventory): boolean
    +craft(inv: Inventory)
}

interface Collectable {
    +collect(inv: Inventory)
}

Tile ..> Collectable
Collectable ..> Inventory
Virologist ..> GeneticCode
Virologist ..> Agent
Equipment ..> Agent

Virologist "-virologist, 1" - - "-inventory, 1" Inventory
Virologist *- - "-activeEffects, 0..*" Effect

Inventory *- - "-learntCodes, 0..*" GeneticCode
Inventory - -> "-pickedUpEquipments, 0..*" Equipment
Inventory - -> "-craftedAgents, 0..*" Agent
Inventory - -> "-resources, N" Resource

GeneticCode *- - "-price, N" Resource
GeneticCode *- - "-agent, 1" Agent

Virologist "-players, 0..*" - - "-activeTile, 1" Tile

abstract class Equipment implements Effect, Collectable {
    #usesLeft: int
    +collect(inv: Inventory)
    /'             Effect interface            '/
    +onTurnImpact(to: Virologist)
    +endTurnImpact(to: Virologist)
    +infect(infector: Virologist)
    +counterImpact(agent: Agent, from: Virologist, to: Virologist)
    +allowStealing(): boolean
    +decrement(Virologist v)
    +durabilityDecreases(v: Virologist)
}
class ProtectiveCloak extends Equipment {
    +counterImpact(agent: Agent, from: Virologist, to: Virologist) /'Equipment'/
}

class Bag extends Equipment{
    +onTurnImpact(to: Virologist): void /'Equipment'/
    +endTurnImpact(to: Virologist): void /'Equipment'/
}
class Glove extends Equipment {
    +counterImpact(agent: Agent, from: Virologist, to: Virologist) /'Equipment'/
    +durabilityDecreases(v: Virologist)
}
'new
class Axe extends Equipment implements UsableEquipment {
    +use(v: Virologist)
    +onTurnImpact(to: Virologist
    +endTurnImpact(to: Virologist)
}

abstract class Tile {
    #id: int
    #name: string
    +getPlayersToStealFrom(): Virologist[]
    {abstract} +collectItem(inv: Inventory)
    {abstract} +getCollectableItem(): Collectable
    +addVirologist(player: Virologist)
    +removeVirologist(player: Virologist)
}

together {
    class Laboratory extends Tile {
        +collectItem(inv: Inventory)
        +getCollectableItem(): Collectable
    }

    class InfectedLaboratory extends Laboratory {
         +addVirologist(player: Virologist)
    }
}

Agent " -agent, 1" *- - InfectedLaboratory

class Safehouse extends Tile {
    +collectItem(inv: Inventory)
    +getCollectableItem(): Collectable
}
class Warehouse extends Tile {
    +collectItem(inv: Inventory)
    +getCollectableItem(): Collectable
}
class EmptyTile extends Tile {
    +collectItem(inv: Inventory)
    +getCollectableItem(): Collectable
}

class Map {
    +createMap()
}

Laboratory *- - " #code, 1" GeneticCode
Safehouse *- - "-equipment, 1\n" Equipment
Warehouse *- - "-collectable, 1" Resource

Map  *- - "-tiles, L" Tile
Tile <- - "-neighbours, 1..K" Tile

class Controller {
    -activePlayer: int
    +startGame(): void
    +checkWinner(v: Virologist): void
    -nextRound(): void
    +removeVirologist(v: Virologist)
}

interface UsableEquipment {
    use(v: Virologist)
}

Inventory *- - "-usableEquipments, 0..*" UsableEquipment

Controller *- - "-map, 1" Map
Controller "-controller" - - "-players, 2..M" Virologist
Controller *- - "-codes, J" GeneticCode

@enduml

@startuml
skinparam classAttributeIconSize 0

class Resource implements Collectable {
    -amount: int
    -type: ResourceType
    +collect(inv: Inventory)
    {static} getResourceByType(resources: Resource[], type: ResourceType): Resource

}

enum ResourceType {
    AminoAcid
    Nucleotide
}

Resource - - ResourceType #line:white

abstract class Agent implements Effect {

    #roundsLeft: int
    +use(from: Virologist, to: Virologist)
    {static} {abstract} +create(): Agent
    +onTurnImpact(to: Virologist): void
    +endTurnImpact(to: Virologist): void
    +counterImpact(agent: Agent, from: Virologist, to: Virologist)
    +allowStealing(): boolean
    +decrement(v: Virologist): void
    +infect(infector: Virologist)
}

class AmnesiaVirus extends Agent{
    {static} +create(): Agent
    +onTurnImpact(to: Virologist)
}

class StunVirus extends Agent{
    {static} +create(): Agent
    +onTurnImpact(to: Virologist)
    +allowStealing(): boolean
}
class VitusDanceVirus extends Agent{
    {static} +create(): Agent
    +onTurnImpact(to: Virologist)
}
class BearDanceVirus extends Agent {
    {static} +create(): Agent
    +onTurnImpact(to: Virologist)
    +counterImpact(agent: Agent, from: Virologist, to: Virologist)
    +infect(infector: Virologist)
    +decrement(v: Virologist)
}
class Vaccine extends Agent{
    {static} +create(): Agent
    +counterImpact(agent: Agent, from: Virologist, to: Virologist)
}

class Virologist {
    -actionsLeft: int
    +addEffect(effect: Effect)
    +removeEffect(effect:Effect)
    -moveTo(newTile: Tile)
    -pickUp()
    -craft(code: GeneticCode)
    -dropEquipment(eq: Equipment)
    -useAgent(agent: Agent, v: Virologist)
    -steal(Virologist v)
    +pass()
    -getNeighbours(): Tile[]
    -getCraftables(): GeneticCode[]
    -getCraftedAgents(): Agent[]
    -getNearbyVirologists(): Virologist[]
    -getNearbyVirologistsToStealFrom(): Virologist[]
    +myTurn()
}

class Inventory {
    -maxResourceAmount: int
    +addGeneticCode(gc: GeneticCode)
    +addEquipment(eq: Equipment)
    +addCraftedAgent(agent: Agent)
    +addResource(res: Resource)
    +addUsableEquipment(UsableEquipment ue)
    +removeGeneticCode(gc: GeneticCode)
    +removeEquipment(eq: Equipment): boolean
    +removeCraftedAgent(agent: Agent)
    +removeResource(res: Resource)
    +removeUsableEquipment(UsableEquipment ue)
    +steal(from: Inventory, what: Equipment)
}


interface Effect {
    +onTurnImpact(to: Virologist)
    +endTurnImpact(to: Virologist)
    +counterImpact(agent: Agent, from: Virologist, to: Virologist)
    +allowStealing(): boolean
    +decrement(v: Virologist)
    +infect(infector: Virologist)
}
class GeneticCode implements Collectable {
    +collect(inv: Inventory)
    +isCraftable(inv: Inventory): boolean
    +craft(inv: Inventory)
}

interface Collectable {
    +collect(inv: Inventory)
}

Tile ..> Collectable
Collectable ..> Inventory
Virologist ..> GeneticCode
Virologist ..> Agent
Equipment ..> Agent

Virologist "-virologist, 1" - - "-inventory, 1" Inventory
Virologist *- - "-activeEffects, 0..*" Effect

Inventory *- - "-learntCodes, 0..*" GeneticCode
Inventory - -> "-pickedUpEquipments, 0..*" Equipment
Inventory - -> "-craftedAgents, 0..*" Agent
Inventory - -> "-resources, N" Resource

GeneticCode *- - "-price, N" Resource
GeneticCode *- - "-agent, 1" Agent

Virologist "-players, 0..*" - - "-activeTile, 1" Tile

abstract class Equipment implements Effect, Collectable {
    #usesLeft: int
    +collect(inv: Inventory)
    +onTurnImpact(to: Virologist)
    +endTurnImpact(to: Virologist)
    +infect(infector: Virologist)
    +counterImpact(agent: Agent, from: Virologist, to: Virologist)
    +allowStealing(): boolean
    +decrement(Virologist v)
    +durabilityDecreases(v: Virologist)
}
class ProtectiveCloak extends Equipment {
    +counterImpact(agent: Agent, from: Virologist, to: Virologist)
}

class Bag extends Equipment{
    +onTurnImpact(to: Virologist): void
    +endTurnImpact(to: Virologist): void
}
class Glove extends Equipment {
    +counterImpact(agent: Agent, from: Virologist, to: Virologist)
    +durabilityDecreases(v: Virologist)
}
class Axe extends Equipment implements UsableEquipment {
    +use(v: Virologist)
    +onTurnImpact(to: Virologist
    +endTurnImpact(to: Virologist)
}

abstract class Tile {
    #id: int
    #name: string
    +getPlayersToStealFrom(): Virologist[]
    {abstract} +collectItem(inv: Inventory)
    {abstract} +getCollectableItem(): Collectable
    +addVirologist(player: Virologist)
    +removeVirologist(player: Virologist)
}

together {
    class Laboratory extends Tile {
        +collectItem(inv: Inventory)
        +getCollectableItem(): Collectable
    }

    class InfectedLaboratory extends Laboratory {
         +addVirologist(player: Virologist)
    }
}

Agent " -agent, 1" *- - InfectedLaboratory

class Safehouse extends Tile {
    +collectItem(inv: Inventory)
    +getCollectableItem(): Collectable
}
class Warehouse extends Tile {
    +collectItem(inv: Inventory)
    +getCollectableItem(): Collectable
}
class EmptyTile extends Tile {
    +collectItem(inv: Inventory)
    +getCollectableItem(): Collectable
}

class Map {
    +createMap()
}

Laboratory *- - " #code, 1" GeneticCode
Safehouse *- - "-equipment, 1\n" Equipment
Warehouse *- - "-collectable, 1" Resource

Map  *- - "-tiles, L" Tile
Tile <- - "-neighbours, 1..K" Tile

class Controller {
    -activePlayer: int
    +startGame(): void
    +checkWinner(v: Virologist): void
    -nextRound(): void
    +removeVirologist(v: Virologist)
}

interface UsableEquipment {
    use(v: Virologist)
}

Inventory *- - "-usableEquipments, 0..*" UsableEquipment

Controller *- - "-map, 1" Map
Controller "-controller" - - "-players, 2..M" Virologist
Controller *- - "-codes, J" GeneticCode

@enduml

PlantUML version 1.2022.1(Tue Feb 01 19:19:58 CET 2022)
(GPL source distribution)
Java Runtime: OpenJDK Runtime Environment
JVM: OpenJDK 64-Bit Server VM
Default Encoding: Cp1252
Language: en
Country: US
--></g></svg>