<?xml version="1.0" encoding="UTF-8" standalone="no"?><svg xmlns="http://www.w3.org/2000/svg" xmlns:xlink="http://www.w3.org/1999/xlink" contentScriptType="application/ecmascript" contentStyleType="text/css" height="1573px" preserveAspectRatio="none" style="width:1760px;height:1573px;background:#FFFFFF;" version="1.1" viewBox="0 0 1760 1573" width="1760px" zoomAndPan="magnify"><defs><filter height="300%" id="f75b2alaintxm" width="300%" x="-1" y="-1"><feGaussianBlur result="blurOut" stdDeviation="2.0"/><feColorMatrix in="blurOut" result="blurOut2" type="matrix" values="0 0 0 0 0 0 0 0 0 0 0 0 0 0 0 0 0 0 .4 0"/><feOffset dx="4.0" dy="4.0" in="blurOut2" result="blurOut3"/><feBlend in="SourceGraphic" in2="blurOut3" mode="normal"/></filter></defs><g><!--MD5=[6b13f1b330d33795af281e5c1dfe1e98]
class Resource--><rect codeLine="4" fill="#FEFECE" filter="url(#f75b2alaintxm)" height="103.3438" id="Resource" style="stroke:#A80036;stroke-width:1.5;" width="385" x="1313" y="1279"/><ellipse cx="1474.25" cy="1295" fill="#ADD1B2" rx="11" ry="11" style="stroke:#A80036;stroke-width:1.0;"/><path d="M1476.25,1291.5 Q1476.4531,1291 1476.6875,1290.75 Q1476.9219,1290.5 1477.1875,1290.5 Q1477.6563,1290.5 1477.9531,1290.7813 Q1478.25,1291.0625 1478.25,1291.7188 L1478.25,1293.2813 Q1478.25,1293.9375 1477.9688,1294.2188 Q1477.6875,1294.5 1477.25,1294.5 Q1476.8594,1294.5 1476.6094,1294.3281 Q1476.3594,1294.1563 1476.25,1293.7031 Q1476.2031,1293.3906 1476.0313,1293.2188 Q1475.7188,1292.8906 1475.1563,1292.7031 Q1474.5938,1292.5 1474.0313,1292.5 Q1473.3281,1292.5 1472.7344,1292.7813 Q1472.1563,1293.0625 1471.7031,1293.6875 Q1471.25,1294.3125 1471.25,1295.1719 L1471.25,1296.0938 Q1471.25,1297.125 1472.0938,1297.8125 Q1472.9375,1298.5 1474.4375,1298.5 Q1475.3281,1298.5 1475.9531,1298.2969 Q1476.3125,1298.1875 1476.7188,1297.8281 Q1476.9844,1297.625 1477.125,1297.5625 Q1477.2656,1297.5 1477.4375,1297.5 Q1477.7656,1297.5 1478,1297.7656 Q1478.25,1298.0156 1478.25,1298.375 Q1478.25,1298.7188 1477.9063,1299.125 Q1477.4063,1299.7188 1476.6094,1300.0469 Q1475.5625,1300.5 1474.2813,1300.5 Q1472.7813,1300.5 1471.5781,1299.9063 Q1470.6094,1299.4375 1469.9219,1298.4219 Q1469.25,1297.4063 1469.25,1296.2031 L1469.25,1295.1094 Q1469.25,1293.8594 1469.8438,1292.7656 Q1470.4531,1291.6719 1471.5,1291.0938 Q1472.5625,1290.5 1473.75,1290.5 Q1474.4688,1290.5 1475.0938,1290.75 Q1475.7188,1291 1476.25,1291.5 Z " fill="#000000"/><text fill="#000000" font-family="sans-serif" font-size="12" lengthAdjust="spacing" textLength="54" x="1494.75" y="1299.9102">Resource</text><line style="stroke:#A80036;stroke-width:1.5;" x1="1314" x2="1697" y1="1311" y2="1311"/><text fill="#000000" font-family="sans-serif" font-size="11" lengthAdjust="spacing" textLength="56" x="1319" y="1326.4189">-amount: int</text><text fill="#000000" font-family="sans-serif" font-size="11" lengthAdjust="spacing" textLength="102" x="1319" y="1340.2549">-type: ResourceType</text><line style="stroke:#A80036;stroke-width:1.5;" x1="1314" x2="1697" y1="1346.6719" y2="1346.6719"/><text fill="#000000" font-family="sans-serif" font-size="11" lengthAdjust="spacing" textLength="110" x="1319" y="1362.0908">+collect(inv: Inventory)</text><text fill="#000000" font-family="sans-serif" font-size="11" lengthAdjust="spacing" text-decoration="underline" textLength="373" x="1319" y="1375.9268">getResourceByType(resources: Resource[], type: ResourceType): Resource</text><!--MD5=[b9dabdda4f25f9168d749d6d9e332bee]
class Collectable--><rect codeLine="96" fill="#FEFECE" filter="url(#f75b2alaintxm)" height="61.8359" id="Collectable" style="stroke:#A80036;stroke-width:1.5;" width="122" x="1005.5" y="685"/><ellipse cx="1032.65" cy="701" fill="#B4A7E5" rx="11" ry="11" style="stroke:#A80036;stroke-width:1.0;"/><path d="M1033.65,698 L1033.65,704 L1035.65,704 L1036.1344,704 L1036.65,704.625 L1036.65,705 L1036.65,705.375 L1036.1344,706 L1035.65,706 L1029.65,706 L1029.1656,706 L1028.65,705.375 L1028.65,705 L1028.65,704.625 L1029.1656,704 L1029.65,704 L1031.65,704 L1031.65,698 L1029.65,698 L1029.1656,698 L1028.65,697.375 L1028.65,697 L1028.65,696.625 L1029.1656,696 L1029.65,696 L1035.65,696 L1036.1344,696 L1036.65,696.625 L1036.65,697 L1036.65,697.375 L1036.1344,698 L1035.65,698 L1033.65,698 Z " fill="#000000"/><text fill="#000000" font-family="sans-serif" font-size="12" font-style="italic" lengthAdjust="spacing" textLength="63" x="1049.35" y="705.9102">Collectable</text><line style="stroke:#A80036;stroke-width:1.5;" x1="1006.5" x2="1126.5" y1="717" y2="717"/><line style="stroke:#A80036;stroke-width:1.5;" x1="1006.5" x2="1126.5" y1="725" y2="725"/><text fill="#000000" font-family="sans-serif" font-size="11" lengthAdjust="spacing" textLength="110" x="1011.5" y="740.4189">+collect(inv: Inventory)</text><!--MD5=[047ad69fa5569e11f99d9c52b6049560]
class ResourceType--><rect codeLine="12" fill="#FEFECE" filter="url(#f75b2alaintxm)" height="75.6719" id="ResourceType" style="stroke:#A80036;stroke-width:1.5;" width="112" x="1449.5" y="1477"/><ellipse cx="1464.5" cy="1493" fill="#EB937F" rx="11" ry="11" style="stroke:#A80036;stroke-width:1.0;"/><path d="M1463,1494 L1463,1496 L1467,1496 L1467,1495 L1467,1494.5156 L1467.625,1494 L1468,1494 L1468.375,1494 L1469,1494.5156 L1469,1495 L1469,1498 L1461,1498 L1460.5156,1498 L1460,1497.375 L1460,1497 L1460,1496.625 L1460.5156,1496 L1461,1496 L1461,1496 L1461,1490 L1461,1490 L1460.5156,1490 L1460,1489.375 L1460,1489 L1460,1488.625 L1460.5156,1488 L1461,1488 L1469,1488 L1469,1491 L1469,1491.4844 L1468.375,1492 L1468,1492 L1467.625,1492 L1467,1491.4844 L1467,1491 L1467,1490 L1463,1490 L1463,1492 L1464,1492 L1464,1491.5156 L1464,1491.5156 L1464.625,1491 L1465,1491 L1465.375,1491 L1466,1491.5156 L1466,1492 L1466,1494 L1466,1494.4844 L1465.375,1495 L1465.375,1495 L1465,1495 L1464.625,1495 L1464,1494.4844 L1464,1494.4844 L1464,1494 L1463,1494 Z " fill="#000000"/><text fill="#000000" font-family="sans-serif" font-size="12" lengthAdjust="spacing" textLength="80" x="1478.5" y="1497.9102">ResourceType</text><line style="stroke:#A80036;stroke-width:1.5;" x1="1450.5" x2="1560.5" y1="1509" y2="1509"/><text fill="#000000" font-family="sans-serif" font-size="11" lengthAdjust="spacing" textLength="52" x="1455.5" y="1524.4189">AminoAcid</text><text fill="#000000" font-family="sans-serif" font-size="11" lengthAdjust="spacing" textLength="50" x="1455.5" y="1538.2549">Nucleotide</text><line style="stroke:#A80036;stroke-width:1.5;" x1="1450.5" x2="1560.5" y1="1544.6719" y2="1544.6719"/><!--MD5=[9d44916250b776386006c440668bcfbb]
class Agent--><rect codeLine="19" fill="#FEFECE" filter="url(#f75b2alaintxm)" height="158.6875" id="Agent" style="stroke:#A80036;stroke-width:1.5;" width="301" x="361" y="1251"/><ellipse cx="491.25" cy="1267" fill="#A9DCDF" rx="11" ry="11" style="stroke:#A80036;stroke-width:1.0;"/><path d="M493,1268.5 L489.7031,1268.5 L489.2656,1269.5 L489.2656,1269.5 L489.7344,1269.5 L490.25,1270.125 L490.25,1270.5 L490.25,1270.875 L489.7344,1271.5 L489.2656,1271.5 L487.375,1271.5 L486.7656,1271.5 L486.25,1270.875 L486.25,1270.5 L486.25,1270.125 L486.7656,1269.5 L487.375,1269.5 L489.6875,1263.5 L488.8125,1263.5 L487.7656,1263.5 L487.25,1262.875 L487.25,1262.5 L487.25,1262.125 L487.7656,1261.5 L488.8125,1261.5 L492.4844,1261.5 L495.1719,1269.5 L495.7344,1269.5 L495.7344,1269.5 L496.25,1270.125 L496.25,1270.5 L496.25,1270.875 L495.7344,1271.5 L495.1719,1271.5 L493.2813,1271.5 L492.7656,1271.5 L492.25,1270.875 L492.25,1270.5 L492.25,1270.125 L492.7656,1269.5 L493.2813,1269.5 L493.2813,1269.5 L493,1268.5 Z M492.4531,1266.5 L491.25,1262.9219 L490.2188,1266.5 L492.4531,1266.5 Z " fill="#000000"/><text fill="#000000" font-family="sans-serif" font-size="12" font-style="italic" lengthAdjust="spacing" textLength="32" x="511.75" y="1271.9102">Agent</text><line style="stroke:#A80036;stroke-width:1.5;" x1="362" x2="661" y1="1283" y2="1283"/><text fill="#000000" font-family="sans-serif" font-size="11" lengthAdjust="spacing" textLength="76" x="367" y="1298.4189">#roundsLeft: int</text><line style="stroke:#A80036;stroke-width:1.5;" x1="362" x2="661" y1="1304.8359" y2="1304.8359"/><text fill="#000000" font-family="sans-serif" font-size="11" lengthAdjust="spacing" textLength="171" x="367" y="1320.2549">+use(from: Virologist, to: Virologist)</text><text fill="#000000" font-family="sans-serif" font-size="11" font-style="italic" lengthAdjust="spacing" text-decoration="underline" textLength="79" x="367" y="1334.0908">+create(): Agent</text><text fill="#000000" font-family="sans-serif" font-size="11" lengthAdjust="spacing" textLength="165" x="367" y="1347.9268">+onTurnImpact(to: Virologist): void</text><text fill="#000000" font-family="sans-serif" font-size="11" lengthAdjust="spacing" textLength="171" x="367" y="1361.7627">+endTurnImpact(to: Virologist): void</text><text fill="#000000" font-family="sans-serif" font-size="11" lengthAdjust="spacing" textLength="289" x="367" y="1375.5986">+counterImpact(agent: Agent, from: Virologist, to: Virologist)</text><text fill="#000000" font-family="sans-serif" font-size="11" lengthAdjust="spacing" textLength="122" x="367" y="1389.4346">+allowStealing(): boolean</text><text fill="#000000" font-family="sans-serif" font-size="11" lengthAdjust="spacing" textLength="145" x="367" y="1403.2705">+decrement(Virologist v): void</text><!--MD5=[354ba6fe2710e9f7c691253c66156a32]
class Effect--><rect codeLine="83" fill="#FEFECE" filter="url(#f75b2alaintxm)" height="117.1797" id="Effect" style="stroke:#A80036;stroke-width:1.5;" width="301" x="343" y="848.5"/><ellipse cx="474.25" cy="864.5" fill="#B4A7E5" rx="11" ry="11" style="stroke:#A80036;stroke-width:1.0;"/><path d="M475.25,861.5 L475.25,867.5 L477.25,867.5 L477.7344,867.5 L478.25,868.125 L478.25,868.5 L478.25,868.875 L477.7344,869.5 L477.25,869.5 L471.25,869.5 L470.7656,869.5 L470.25,868.875 L470.25,868.5 L470.25,868.125 L470.7656,867.5 L471.25,867.5 L473.25,867.5 L473.25,861.5 L471.25,861.5 L470.7656,861.5 L470.25,860.875 L470.25,860.5 L470.25,860.125 L470.7656,859.5 L471.25,859.5 L477.25,859.5 L477.7344,859.5 L478.25,860.125 L478.25,860.5 L478.25,860.875 L477.7344,861.5 L477.25,861.5 L475.25,861.5 Z " fill="#000000"/><text fill="#000000" font-family="sans-serif" font-size="12" font-style="italic" lengthAdjust="spacing" textLength="30" x="494.75" y="869.4102">Effect</text><line style="stroke:#A80036;stroke-width:1.5;" x1="344" x2="643" y1="880.5" y2="880.5"/><line style="stroke:#A80036;stroke-width:1.5;" x1="344" x2="643" y1="888.5" y2="888.5"/><text fill="#000000" font-family="sans-serif" font-size="11" lengthAdjust="spacing" textLength="139" x="349" y="903.9189">+onTurnImpact(to: Virologist)</text><text fill="#000000" font-family="sans-serif" font-size="11" lengthAdjust="spacing" textLength="145" x="349" y="917.7549">+endTurnImpact(to: Virologist)</text><text fill="#000000" font-family="sans-serif" font-size="11" lengthAdjust="spacing" textLength="289" x="349" y="931.5908">+counterImpact(agent: Agent, from: Virologist, to: Virologist)</text><text fill="#000000" font-family="sans-serif" font-size="11" lengthAdjust="spacing" textLength="122" x="349" y="945.4268">+allowStealing(): boolean</text><text fill="#000000" font-family="sans-serif" font-size="11" lengthAdjust="spacing" textLength="145" x="349" y="959.2627">+decrement(Virologist v): void</text><!--MD5=[3a682b83b50cc9e2f5b9d4b8f90493ad]
class AmnesiaVirus--><rect codeLine="32" fill="#FEFECE" filter="url(#f75b2alaintxm)" height="75.6719" id="AmnesiaVirus" style="stroke:#A80036;stroke-width:1.5;" width="151" x="343" y="1477"/><ellipse cx="376.9" cy="1493" fill="#ADD1B2" rx="11" ry="11" style="stroke:#A80036;stroke-width:1.0;"/><path d="M378.9,1489.5 Q379.1031,1489 379.3375,1488.75 Q379.5719,1488.5 379.8375,1488.5 Q380.3063,1488.5 380.6031,1488.7813 Q380.9,1489.0625 380.9,1489.7188 L380.9,1491.2813 Q380.9,1491.9375 380.6188,1492.2188 Q380.3375,1492.5 379.9,1492.5 Q379.5094,1492.5 379.2594,1492.3281 Q379.0094,1492.1563 378.9,1491.7031 Q378.8531,1491.3906 378.6813,1491.2188 Q378.3688,1490.8906 377.8063,1490.7031 Q377.2438,1490.5 376.6813,1490.5 Q375.9781,1490.5 375.3844,1490.7813 Q374.8063,1491.0625 374.3531,1491.6875 Q373.9,1492.3125 373.9,1493.1719 L373.9,1494.0938 Q373.9,1495.125 374.7438,1495.8125 Q375.5875,1496.5 377.0875,1496.5 Q377.9781,1496.5 378.6031,1496.2969 Q378.9625,1496.1875 379.3688,1495.8281 Q379.6344,1495.625 379.775,1495.5625 Q379.9156,1495.5 380.0875,1495.5 Q380.4156,1495.5 380.65,1495.7656 Q380.9,1496.0156 380.9,1496.375 Q380.9,1496.7188 380.5563,1497.125 Q380.0563,1497.7188 379.2594,1498.0469 Q378.2125,1498.5 376.9313,1498.5 Q375.4313,1498.5 374.2281,1497.9063 Q373.2594,1497.4375 372.5719,1496.4219 Q371.9,1495.4063 371.9,1494.2031 L371.9,1493.1094 Q371.9,1491.8594 372.4938,1490.7656 Q373.1031,1489.6719 374.15,1489.0938 Q375.2125,1488.5 376.4,1488.5 Q377.1188,1488.5 377.7438,1488.75 Q378.3688,1489 378.9,1489.5 Z " fill="#000000"/><text fill="#000000" font-family="sans-serif" font-size="12" lengthAdjust="spacing" textLength="77" x="395.1" y="1497.9102">AmnesiaVirus</text><line style="stroke:#A80036;stroke-width:1.5;" x1="344" x2="493" y1="1509" y2="1509"/><line style="stroke:#A80036;stroke-width:1.5;" x1="344" x2="493" y1="1517" y2="1517"/><text fill="#000000" font-family="sans-serif" font-size="11" lengthAdjust="spacing" text-decoration="underline" textLength="80" x="349" y="1532.4189">+create(): Agent</text><text fill="#000000" font-family="sans-serif" font-size="11" lengthAdjust="spacing" textLength="139" x="349" y="1546.2549">+onTurnImpact(to: Virologist)</text><!--MD5=[41e2e1e42c2a6e0ed10a6a018adf955b]
class StunVirus--><rect codeLine="37" fill="#FEFECE" filter="url(#f75b2alaintxm)" height="89.5078" id="StunVirus" style="stroke:#A80036;stroke-width:1.5;" width="151" x="529" y="1470"/><ellipse cx="573.75" cy="1486" fill="#ADD1B2" rx="11" ry="11" style="stroke:#A80036;stroke-width:1.0;"/><path d="M575.75,1482.5 Q575.9531,1482 576.1875,1481.75 Q576.4219,1481.5 576.6875,1481.5 Q577.1563,1481.5 577.4531,1481.7813 Q577.75,1482.0625 577.75,1482.7188 L577.75,1484.2813 Q577.75,1484.9375 577.4688,1485.2188 Q577.1875,1485.5 576.75,1485.5 Q576.3594,1485.5 576.1094,1485.3281 Q575.8594,1485.1563 575.75,1484.7031 Q575.7031,1484.3906 575.5313,1484.2188 Q575.2188,1483.8906 574.6563,1483.7031 Q574.0938,1483.5 573.5313,1483.5 Q572.8281,1483.5 572.2344,1483.7813 Q571.6563,1484.0625 571.2031,1484.6875 Q570.75,1485.3125 570.75,1486.1719 L570.75,1487.0938 Q570.75,1488.125 571.5938,1488.8125 Q572.4375,1489.5 573.9375,1489.5 Q574.8281,1489.5 575.4531,1489.2969 Q575.8125,1489.1875 576.2188,1488.8281 Q576.4844,1488.625 576.625,1488.5625 Q576.7656,1488.5 576.9375,1488.5 Q577.2656,1488.5 577.5,1488.7656 Q577.75,1489.0156 577.75,1489.375 Q577.75,1489.7188 577.4063,1490.125 Q576.9063,1490.7188 576.1094,1491.0469 Q575.0625,1491.5 573.7813,1491.5 Q572.2813,1491.5 571.0781,1490.9063 Q570.1094,1490.4375 569.4219,1489.4219 Q568.75,1488.4063 568.75,1487.2031 L568.75,1486.1094 Q568.75,1484.8594 569.3438,1483.7656 Q569.9531,1482.6719 571,1482.0938 Q572.0625,1481.5 573.25,1481.5 Q573.9688,1481.5 574.5938,1481.75 Q575.2188,1482 575.75,1482.5 Z " fill="#000000"/><text fill="#000000" font-family="sans-serif" font-size="12" lengthAdjust="spacing" textLength="53" x="594.25" y="1490.9102">StunVirus</text><line style="stroke:#A80036;stroke-width:1.5;" x1="530" x2="679" y1="1502" y2="1502"/><line style="stroke:#A80036;stroke-width:1.5;" x1="530" x2="679" y1="1510" y2="1510"/><text fill="#000000" font-family="sans-serif" font-size="11" lengthAdjust="spacing" text-decoration="underline" textLength="80" x="535" y="1525.4189">+create(): Agent</text><text fill="#000000" font-family="sans-serif" font-size="11" lengthAdjust="spacing" textLength="139" x="535" y="1539.2549">+onTurnImpact(to: Virologist)</text><text fill="#000000" font-family="sans-serif" font-size="11" lengthAdjust="spacing" textLength="122" x="535" y="1553.0908">+allowStealing(): boolean</text><!--MD5=[b95407c940de934d839e4cd6fd328c70]
class VitusDanceVirus--><rect codeLine="42" fill="#FEFECE" filter="url(#f75b2alaintxm)" height="75.6719" id="VitusDanceVirus" style="stroke:#A80036;stroke-width:1.5;" width="151" x="715" y="1477"/><ellipse cx="742.6" cy="1493" fill="#ADD1B2" rx="11" ry="11" style="stroke:#A80036;stroke-width:1.0;"/><path d="M744.6,1489.5 Q744.8031,1489 745.0375,1488.75 Q745.2719,1488.5 745.5375,1488.5 Q746.0063,1488.5 746.3031,1488.7813 Q746.6,1489.0625 746.6,1489.7188 L746.6,1491.2813 Q746.6,1491.9375 746.3188,1492.2188 Q746.0375,1492.5 745.6,1492.5 Q745.2094,1492.5 744.9594,1492.3281 Q744.7094,1492.1563 744.6,1491.7031 Q744.5531,1491.3906 744.3813,1491.2188 Q744.0688,1490.8906 743.5063,1490.7031 Q742.9438,1490.5 742.3813,1490.5 Q741.6781,1490.5 741.0844,1490.7813 Q740.5063,1491.0625 740.0531,1491.6875 Q739.6,1492.3125 739.6,1493.1719 L739.6,1494.0938 Q739.6,1495.125 740.4438,1495.8125 Q741.2875,1496.5 742.7875,1496.5 Q743.6781,1496.5 744.3031,1496.2969 Q744.6625,1496.1875 745.0688,1495.8281 Q745.3344,1495.625 745.475,1495.5625 Q745.6156,1495.5 745.7875,1495.5 Q746.1156,1495.5 746.35,1495.7656 Q746.6,1496.0156 746.6,1496.375 Q746.6,1496.7188 746.2563,1497.125 Q745.7563,1497.7188 744.9594,1498.0469 Q743.9125,1498.5 742.6313,1498.5 Q741.1313,1498.5 739.9281,1497.9063 Q738.9594,1497.4375 738.2719,1496.4219 Q737.6,1495.4063 737.6,1494.2031 L737.6,1493.1094 Q737.6,1491.8594 738.1938,1490.7656 Q738.8031,1489.6719 739.85,1489.0938 Q740.9125,1488.5 742.1,1488.5 Q742.8188,1488.5 743.4438,1488.75 Q744.0688,1489 744.6,1489.5 Z " fill="#000000"/><text fill="#000000" font-family="sans-serif" font-size="12" lengthAdjust="spacing" textLength="91" x="759.4" y="1497.9102">VitusDanceVirus</text><line style="stroke:#A80036;stroke-width:1.5;" x1="716" x2="865" y1="1509" y2="1509"/><line style="stroke:#A80036;stroke-width:1.5;" x1="716" x2="865" y1="1517" y2="1517"/><text fill="#000000" font-family="sans-serif" font-size="11" lengthAdjust="spacing" text-decoration="underline" textLength="80" x="721" y="1532.4189">+create(): Agent</text><text fill="#000000" font-family="sans-serif" font-size="11" lengthAdjust="spacing" textLength="139" x="721" y="1546.2549">+onTurnImpact(to: Virologist)</text><!--MD5=[19e445fc4d3b48519cbe33da05496394]
class Vaccine--><rect codeLine="46" fill="#FEFECE" filter="url(#f75b2alaintxm)" height="75.6719" id="Vaccine" style="stroke:#A80036;stroke-width:1.5;" width="301" x="7" y="1477"/><ellipse cx="131.75" cy="1493" fill="#ADD1B2" rx="11" ry="11" style="stroke:#A80036;stroke-width:1.0;"/><path d="M133.75,1489.5 Q133.9531,1489 134.1875,1488.75 Q134.4219,1488.5 134.6875,1488.5 Q135.1563,1488.5 135.4531,1488.7813 Q135.75,1489.0625 135.75,1489.7188 L135.75,1491.2813 Q135.75,1491.9375 135.4688,1492.2188 Q135.1875,1492.5 134.75,1492.5 Q134.3594,1492.5 134.1094,1492.3281 Q133.8594,1492.1563 133.75,1491.7031 Q133.7031,1491.3906 133.5313,1491.2188 Q133.2188,1490.8906 132.6563,1490.7031 Q132.0938,1490.5 131.5313,1490.5 Q130.8281,1490.5 130.2344,1490.7813 Q129.6563,1491.0625 129.2031,1491.6875 Q128.75,1492.3125 128.75,1493.1719 L128.75,1494.0938 Q128.75,1495.125 129.5938,1495.8125 Q130.4375,1496.5 131.9375,1496.5 Q132.8281,1496.5 133.4531,1496.2969 Q133.8125,1496.1875 134.2188,1495.8281 Q134.4844,1495.625 134.625,1495.5625 Q134.7656,1495.5 134.9375,1495.5 Q135.2656,1495.5 135.5,1495.7656 Q135.75,1496.0156 135.75,1496.375 Q135.75,1496.7188 135.4063,1497.125 Q134.9063,1497.7188 134.1094,1498.0469 Q133.0625,1498.5 131.7813,1498.5 Q130.2813,1498.5 129.0781,1497.9063 Q128.1094,1497.4375 127.4219,1496.4219 Q126.75,1495.4063 126.75,1494.2031 L126.75,1493.1094 Q126.75,1491.8594 127.3438,1490.7656 Q127.9531,1489.6719 129,1489.0938 Q130.0625,1488.5 131.25,1488.5 Q131.9688,1488.5 132.5938,1488.75 Q133.2188,1489 133.75,1489.5 Z " fill="#000000"/><text fill="#000000" font-family="sans-serif" font-size="12" lengthAdjust="spacing" textLength="43" x="152.25" y="1497.9102">Vaccine</text><line style="stroke:#A80036;stroke-width:1.5;" x1="8" x2="307" y1="1509" y2="1509"/><line style="stroke:#A80036;stroke-width:1.5;" x1="8" x2="307" y1="1517" y2="1517"/><text fill="#000000" font-family="sans-serif" font-size="11" lengthAdjust="spacing" text-decoration="underline" textLength="80" x="13" y="1532.4189">+create(): Agent</text><text fill="#000000" font-family="sans-serif" font-size="11" lengthAdjust="spacing" textLength="289" x="13" y="1546.2549">+counterImpact(agent: Agent, from: Virologist, to: Virologist)</text><!--MD5=[1a9529180566655e8adcb11068a11cb8]
class Virologist--><rect codeLine="51" fill="#FEFECE" filter="url(#f75b2alaintxm)" height="255.5391" id="Virologist" style="stroke:#A80036;stroke-width:1.5;" width="242" x="809.5" y="157"/><ellipse cx="900.75" cy="173" fill="#ADD1B2" rx="11" ry="11" style="stroke:#A80036;stroke-width:1.0;"/><path d="M902.75,169.5 Q902.9531,169 903.1875,168.75 Q903.4219,168.5 903.6875,168.5 Q904.1563,168.5 904.4531,168.7813 Q904.75,169.0625 904.75,169.7188 L904.75,171.2813 Q904.75,171.9375 904.4688,172.2188 Q904.1875,172.5 903.75,172.5 Q903.3594,172.5 903.1094,172.3281 Q902.8594,172.1563 902.75,171.7031 Q902.7031,171.3906 902.5313,171.2188 Q902.2188,170.8906 901.6563,170.7031 Q901.0938,170.5 900.5313,170.5 Q899.8281,170.5 899.2344,170.7813 Q898.6563,171.0625 898.2031,171.6875 Q897.75,172.3125 897.75,173.1719 L897.75,174.0938 Q897.75,175.125 898.5938,175.8125 Q899.4375,176.5 900.9375,176.5 Q901.8281,176.5 902.4531,176.2969 Q902.8125,176.1875 903.2188,175.8281 Q903.4844,175.625 903.625,175.5625 Q903.7656,175.5 903.9375,175.5 Q904.2656,175.5 904.5,175.7656 Q904.75,176.0156 904.75,176.375 Q904.75,176.7188 904.4063,177.125 Q903.9063,177.7188 903.1094,178.0469 Q902.0625,178.5 900.7813,178.5 Q899.2813,178.5 898.0781,177.9063 Q897.1094,177.4375 896.4219,176.4219 Q895.75,175.4063 895.75,174.2031 L895.75,173.1094 Q895.75,171.8594 896.3438,170.7656 Q896.9531,169.6719 898,169.0938 Q899.0625,168.5 900.25,168.5 Q900.9688,168.5 901.5938,168.75 Q902.2188,169 902.75,169.5 Z " fill="#000000"/><text fill="#000000" font-family="sans-serif" font-size="12" lengthAdjust="spacing" textLength="51" x="921.25" y="177.9102">Virologist</text><line style="stroke:#A80036;stroke-width:1.5;" x1="810.5" x2="1050.5" y1="189" y2="189"/><text fill="#000000" font-family="sans-serif" font-size="11" lengthAdjust="spacing" textLength="75" x="815.5" y="204.4189">-actionsLeft: int</text><line style="stroke:#A80036;stroke-width:1.5;" x1="810.5" x2="1050.5" y1="210.8359" y2="210.8359"/><text fill="#000000" font-family="sans-serif" font-size="11" lengthAdjust="spacing" textLength="125" x="815.5" y="226.2549">+addEffect(effect: Effect)</text><text fill="#000000" font-family="sans-serif" font-size="11" lengthAdjust="spacing" textLength="140" x="815.5" y="240.0908">+removeEffect(effect:Effect)</text><text fill="#000000" font-family="sans-serif" font-size="11" lengthAdjust="spacing" textLength="110" x="815.5" y="253.9268">-moveTo(newTile: Tile)</text><text fill="#000000" font-family="sans-serif" font-size="11" lengthAdjust="spacing" textLength="44" x="815.5" y="267.7627">-pickUp()</text><text fill="#000000" font-family="sans-serif" font-size="11" lengthAdjust="spacing" textLength="127" x="815.5" y="281.5986">-craft(code: GeneticCode)</text><text fill="#000000" font-family="sans-serif" font-size="11" lengthAdjust="spacing" textLength="184" x="815.5" y="295.4346">-useAgent(agent: Agent, v: Virologist)</text><text fill="#000000" font-family="sans-serif" font-size="11" lengthAdjust="spacing" textLength="89" x="815.5" y="309.2705">-steal(Virologist v)</text><text fill="#000000" font-family="sans-serif" font-size="11" lengthAdjust="spacing" textLength="38" x="815.5" y="323.1064">+pass()</text><text fill="#000000" font-family="sans-serif" font-size="11" lengthAdjust="spacing" textLength="110" x="815.5" y="336.9424">-getNeighbours(): Tile[]</text><text fill="#000000" font-family="sans-serif" font-size="11" lengthAdjust="spacing" textLength="151" x="815.5" y="350.7783">-getCraftables(): GeneticCode[]</text><text fill="#000000" font-family="sans-serif" font-size="11" lengthAdjust="spacing" textLength="139" x="815.5" y="364.6143">-getCraftedAgents(): Agent[]</text><text fill="#000000" font-family="sans-serif" font-size="11" lengthAdjust="spacing" textLength="170" x="815.5" y="378.4502">-getNearbyVirologists(): Virologist[]</text><text fill="#000000" font-family="sans-serif" font-size="11" lengthAdjust="spacing" textLength="230" x="815.5" y="392.2861">-getNearbyVirologistsToStealFrom(): Virologist[]</text><text fill="#000000" font-family="sans-serif" font-size="11" lengthAdjust="spacing" textLength="50" x="815.5" y="406.1221">+myTurn()</text><!--MD5=[ee084734eb3a5ffad99a0de9980f769b]
class Inventory--><rect codeLine="71" fill="#FEFECE" filter="url(#f75b2alaintxm)" height="186.3594" id="Inventory" style="stroke:#A80036;stroke-width:1.5;" width="222" x="955.5" y="814"/><ellipse cx="1038.25" cy="830" fill="#ADD1B2" rx="11" ry="11" style="stroke:#A80036;stroke-width:1.0;"/><path d="M1040.25,826.5 Q1040.4531,826 1040.6875,825.75 Q1040.9219,825.5 1041.1875,825.5 Q1041.6563,825.5 1041.9531,825.7813 Q1042.25,826.0625 1042.25,826.7188 L1042.25,828.2813 Q1042.25,828.9375 1041.9688,829.2188 Q1041.6875,829.5 1041.25,829.5 Q1040.8594,829.5 1040.6094,829.3281 Q1040.3594,829.1563 1040.25,828.7031 Q1040.2031,828.3906 1040.0313,828.2188 Q1039.7188,827.8906 1039.1563,827.7031 Q1038.5938,827.5 1038.0313,827.5 Q1037.3281,827.5 1036.7344,827.7813 Q1036.1563,828.0625 1035.7031,828.6875 Q1035.25,829.3125 1035.25,830.1719 L1035.25,831.0938 Q1035.25,832.125 1036.0938,832.8125 Q1036.9375,833.5 1038.4375,833.5 Q1039.3281,833.5 1039.9531,833.2969 Q1040.3125,833.1875 1040.7188,832.8281 Q1040.9844,832.625 1041.125,832.5625 Q1041.2656,832.5 1041.4375,832.5 Q1041.7656,832.5 1042,832.7656 Q1042.25,833.0156 1042.25,833.375 Q1042.25,833.7188 1041.9063,834.125 Q1041.4063,834.7188 1040.6094,835.0469 Q1039.5625,835.5 1038.2813,835.5 Q1036.7813,835.5 1035.5781,834.9063 Q1034.6094,834.4375 1033.9219,833.4219 Q1033.25,832.4063 1033.25,831.2031 L1033.25,830.1094 Q1033.25,828.8594 1033.8438,827.7656 Q1034.4531,826.6719 1035.5,826.0938 Q1036.5625,825.5 1037.75,825.5 Q1038.4688,825.5 1039.0938,825.75 Q1039.7188,826 1040.25,826.5 Z " fill="#000000"/><text fill="#000000" font-family="sans-serif" font-size="12" lengthAdjust="spacing" textLength="48" x="1058.75" y="834.9102">Inventory</text><line style="stroke:#A80036;stroke-width:1.5;" x1="956.5" x2="1176.5" y1="846" y2="846"/><text fill="#000000" font-family="sans-serif" font-size="11" lengthAdjust="spacing" textLength="125" x="961.5" y="861.4189">-maxResourceAmount: int</text><line style="stroke:#A80036;stroke-width:1.5;" x1="956.5" x2="1176.5" y1="867.8359" y2="867.8359"/><text fill="#000000" font-family="sans-serif" font-size="11" lengthAdjust="spacing" textLength="174" x="961.5" y="883.2549">+addGeneticCode(gc: GeneticCode)</text><text fill="#000000" font-family="sans-serif" font-size="11" lengthAdjust="spacing" textLength="148" x="961.5" y="897.0908">+addEquipment(eq: Equipment)</text><text fill="#000000" font-family="sans-serif" font-size="11" lengthAdjust="spacing" textLength="159" x="961.5" y="910.9268">+addCraftedAgent(agent: Agent)</text><text fill="#000000" font-family="sans-serif" font-size="11" lengthAdjust="spacing" textLength="148" x="961.5" y="924.7627">+addResource(res: Resource)</text><text fill="#000000" font-family="sans-serif" font-size="11" lengthAdjust="spacing" textLength="192" x="961.5" y="938.5986">+removeGeneticCode(gc: GeneticCode)</text><text fill="#000000" font-family="sans-serif" font-size="11" lengthAdjust="spacing" textLength="210" x="961.5" y="952.4346">+removeEquipment(eq: Equipment): boolean</text><text fill="#000000" font-family="sans-serif" font-size="11" lengthAdjust="spacing" textLength="177" x="961.5" y="966.2705">+removeCraftedAgent(agent: Agent)</text><text fill="#000000" font-family="sans-serif" font-size="11" lengthAdjust="spacing" textLength="166" x="961.5" y="980.1064">+removeResource(res: Resource)</text><text fill="#000000" font-family="sans-serif" font-size="11" lengthAdjust="spacing" textLength="196" x="961.5" y="993.9424">+steal(from: Inventory, what: Equipment)</text><!--MD5=[e9ef9b1f56f2c4beba1690ce0114dda5]
class GeneticCode--><rect codeLine="90" fill="#FEFECE" filter="url(#f75b2alaintxm)" height="89.5078" id="GeneticCode" style="stroke:#A80036;stroke-width:1.5;" width="187" x="1208" y="1080.5"/><ellipse cx="1261.25" cy="1096.5" fill="#ADD1B2" rx="11" ry="11" style="stroke:#A80036;stroke-width:1.0;"/><path d="M1263.25,1093 Q1263.4531,1092.5 1263.6875,1092.25 Q1263.9219,1092 1264.1875,1092 Q1264.6563,1092 1264.9531,1092.2813 Q1265.25,1092.5625 1265.25,1093.2188 L1265.25,1094.7813 Q1265.25,1095.4375 1264.9688,1095.7188 Q1264.6875,1096 1264.25,1096 Q1263.8594,1096 1263.6094,1095.8281 Q1263.3594,1095.6563 1263.25,1095.2031 Q1263.2031,1094.8906 1263.0313,1094.7188 Q1262.7188,1094.3906 1262.1563,1094.2031 Q1261.5938,1094 1261.0313,1094 Q1260.3281,1094 1259.7344,1094.2813 Q1259.1563,1094.5625 1258.7031,1095.1875 Q1258.25,1095.8125 1258.25,1096.6719 L1258.25,1097.5938 Q1258.25,1098.625 1259.0938,1099.3125 Q1259.9375,1100 1261.4375,1100 Q1262.3281,1100 1262.9531,1099.7969 Q1263.3125,1099.6875 1263.7188,1099.3281 Q1263.9844,1099.125 1264.125,1099.0625 Q1264.2656,1099 1264.4375,1099 Q1264.7656,1099 1265,1099.2656 Q1265.25,1099.5156 1265.25,1099.875 Q1265.25,1100.2188 1264.9063,1100.625 Q1264.4063,1101.2188 1263.6094,1101.5469 Q1262.5625,1102 1261.2813,1102 Q1259.7813,1102 1258.5781,1101.4063 Q1257.6094,1100.9375 1256.9219,1099.9219 Q1256.25,1098.9063 1256.25,1097.7031 L1256.25,1096.6094 Q1256.25,1095.3594 1256.8438,1094.2656 Q1257.4531,1093.1719 1258.5,1092.5938 Q1259.5625,1092 1260.75,1092 Q1261.4688,1092 1262.0938,1092.25 Q1262.7188,1092.5 1263.25,1093 Z " fill="#000000"/><text fill="#000000" font-family="sans-serif" font-size="12" lengthAdjust="spacing" textLength="72" x="1281.75" y="1101.4102">GeneticCode</text><line style="stroke:#A80036;stroke-width:1.5;" x1="1209" x2="1394" y1="1112.5" y2="1112.5"/><line style="stroke:#A80036;stroke-width:1.5;" x1="1209" x2="1394" y1="1120.5" y2="1120.5"/><text fill="#000000" font-family="sans-serif" font-size="11" lengthAdjust="spacing" textLength="110" x="1214" y="1135.9189">+collect(inv: Inventory)</text><text fill="#000000" font-family="sans-serif" font-size="11" lengthAdjust="spacing" textLength="175" x="1214" y="1149.7549">+isCraftable(inv: Inventory): boolean</text><text fill="#000000" font-family="sans-serif" font-size="11" lengthAdjust="spacing" textLength="102" x="1214" y="1163.5908">+craft(inv: Inventory)</text><!--MD5=[18e4d9ca2a6cdced7b66e5fef94ef6f6]
class Tile--><rect codeLine="140" fill="#FEFECE" filter="url(#f75b2alaintxm)" height="144.8516" id="Tile" style="stroke:#A80036;stroke-width:1.5;" width="194" x="1089.5" y="473"/><ellipse cx="1172.25" cy="489" fill="#A9DCDF" rx="11" ry="11" style="stroke:#A80036;stroke-width:1.0;"/><path d="M1174,490.5 L1170.7031,490.5 L1170.2656,491.5 L1170.2656,491.5 L1170.7344,491.5 L1171.25,492.125 L1171.25,492.5 L1171.25,492.875 L1170.7344,493.5 L1170.2656,493.5 L1168.375,493.5 L1167.7656,493.5 L1167.25,492.875 L1167.25,492.5 L1167.25,492.125 L1167.7656,491.5 L1168.375,491.5 L1170.6875,485.5 L1169.8125,485.5 L1168.7656,485.5 L1168.25,484.875 L1168.25,484.5 L1168.25,484.125 L1168.7656,483.5 L1169.8125,483.5 L1173.4844,483.5 L1176.1719,491.5 L1176.7344,491.5 L1176.7344,491.5 L1177.25,492.125 L1177.25,492.5 L1177.25,492.875 L1176.7344,493.5 L1176.1719,493.5 L1174.2813,493.5 L1173.7656,493.5 L1173.25,492.875 L1173.25,492.5 L1173.25,492.125 L1173.7656,491.5 L1174.2813,491.5 L1174.2813,491.5 L1174,490.5 Z M1173.4531,488.5 L1172.25,484.9219 L1171.2188,488.5 L1173.4531,488.5 Z " fill="#000000"/><text fill="#000000" font-family="sans-serif" font-size="12" font-style="italic" lengthAdjust="spacing" textLength="20" x="1192.75" y="493.9102">Tile</text><line style="stroke:#A80036;stroke-width:1.5;" x1="1090.5" x2="1282.5" y1="505" y2="505"/><text fill="#000000" font-family="sans-serif" font-size="11" lengthAdjust="spacing" textLength="31" x="1095.5" y="520.4189">#id: int</text><text fill="#000000" font-family="sans-serif" font-size="11" lengthAdjust="spacing" textLength="65" x="1095.5" y="534.2549">#name: string</text><line style="stroke:#A80036;stroke-width:1.5;" x1="1090.5" x2="1282.5" y1="540.6719" y2="540.6719"/><text fill="#000000" font-family="sans-serif" font-size="11" lengthAdjust="spacing" textLength="182" x="1095.5" y="556.0908">+getPlayersToStealFrom(): Virologist[]</text><text fill="#000000" font-family="sans-serif" font-size="11" font-style="italic" lengthAdjust="spacing" textLength="132" x="1095.5" y="569.9268">+collectItem(inv: Inventory)</text><text fill="#000000" font-family="sans-serif" font-size="11" font-style="italic" lengthAdjust="spacing" textLength="170" x="1095.5" y="583.7627">+getCollectableItem(): Collectable</text><text fill="#000000" font-family="sans-serif" font-size="11" lengthAdjust="spacing" textLength="158" x="1095.5" y="597.5986">+addVirologist(player: Virologist)</text><text fill="#000000" font-family="sans-serif" font-size="11" lengthAdjust="spacing" textLength="176" x="1095.5" y="611.4346">+removeVirologist(player: Virologist)</text><!--MD5=[ffbe56a7748d828ba7d90b566e12a2a0]
class Equipment--><rect codeLine="119" fill="#FEFECE" filter="url(#f75b2alaintxm)" height="131.0156" id="Equipment" style="stroke:#A80036;stroke-width:1.5;" width="301" x="626" y="1060"/><ellipse cx="742.25" cy="1076" fill="#A9DCDF" rx="11" ry="11" style="stroke:#A80036;stroke-width:1.0;"/><path d="M744,1077.5 L740.7031,1077.5 L740.2656,1078.5 L740.2656,1078.5 L740.7344,1078.5 L741.25,1079.125 L741.25,1079.5 L741.25,1079.875 L740.7344,1080.5 L740.2656,1080.5 L738.375,1080.5 L737.7656,1080.5 L737.25,1079.875 L737.25,1079.5 L737.25,1079.125 L737.7656,1078.5 L738.375,1078.5 L740.6875,1072.5 L739.8125,1072.5 L738.7656,1072.5 L738.25,1071.875 L738.25,1071.5 L738.25,1071.125 L738.7656,1070.5 L739.8125,1070.5 L743.4844,1070.5 L746.1719,1078.5 L746.7344,1078.5 L746.7344,1078.5 L747.25,1079.125 L747.25,1079.5 L747.25,1079.875 L746.7344,1080.5 L746.1719,1080.5 L744.2813,1080.5 L743.7656,1080.5 L743.25,1079.875 L743.25,1079.5 L743.25,1079.125 L743.7656,1078.5 L744.2813,1078.5 L744.2813,1078.5 L744,1077.5 Z M743.4531,1075.5 L742.25,1071.9219 L741.2188,1075.5 L743.4531,1075.5 Z " fill="#000000"/><text fill="#000000" font-family="sans-serif" font-size="12" font-style="italic" lengthAdjust="spacing" textLength="60" x="762.75" y="1080.9102">Equipment</text><line style="stroke:#A80036;stroke-width:1.5;" x1="627" x2="926" y1="1092" y2="1092"/><line style="stroke:#A80036;stroke-width:1.5;" x1="627" x2="926" y1="1100" y2="1100"/><text fill="#000000" font-family="sans-serif" font-size="11" lengthAdjust="spacing" textLength="110" x="632" y="1115.4189">+collect(inv: Inventory)</text><text fill="#000000" font-family="sans-serif" font-size="11" lengthAdjust="spacing" textLength="165" x="632" y="1129.2549">+onTurnImpact(to: Virologist): void</text><text fill="#000000" font-family="sans-serif" font-size="11" lengthAdjust="spacing" textLength="171" x="632" y="1143.0908">+endTurnImpact(to: Virologist): void</text><text fill="#000000" font-family="sans-serif" font-size="11" lengthAdjust="spacing" textLength="289" x="632" y="1156.9268">+counterImpact(agent: Agent, from: Virologist, to: Virologist)</text><text fill="#000000" font-family="sans-serif" font-size="11" lengthAdjust="spacing" textLength="122" x="632" y="1170.7627">+allowStealing(): boolean</text><text fill="#000000" font-family="sans-serif" font-size="11" lengthAdjust="spacing" textLength="145" x="632" y="1184.5986">+decrement(Virologist v): void</text><!--MD5=[a76cd7b5477b13724ac4c55703ca1246]
class ProtectiveCloak--><rect codeLine="128" fill="#FEFECE" filter="url(#f75b2alaintxm)" height="61.8359" id="ProtectiveCloak" style="stroke:#A80036;stroke-width:1.5;" width="301" x="25" y="1299.5"/><ellipse cx="128.75" cy="1315.5" fill="#ADD1B2" rx="11" ry="11" style="stroke:#A80036;stroke-width:1.0;"/><path d="M130.75,1312 Q130.9531,1311.5 131.1875,1311.25 Q131.4219,1311 131.6875,1311 Q132.1563,1311 132.4531,1311.2813 Q132.75,1311.5625 132.75,1312.2188 L132.75,1313.7813 Q132.75,1314.4375 132.4688,1314.7188 Q132.1875,1315 131.75,1315 Q131.3594,1315 131.1094,1314.8281 Q130.8594,1314.6563 130.75,1314.2031 Q130.7031,1313.8906 130.5313,1313.7188 Q130.2188,1313.3906 129.6563,1313.2031 Q129.0938,1313 128.5313,1313 Q127.8281,1313 127.2344,1313.2813 Q126.6563,1313.5625 126.2031,1314.1875 Q125.75,1314.8125 125.75,1315.6719 L125.75,1316.5938 Q125.75,1317.625 126.5938,1318.3125 Q127.4375,1319 128.9375,1319 Q129.8281,1319 130.4531,1318.7969 Q130.8125,1318.6875 131.2188,1318.3281 Q131.4844,1318.125 131.625,1318.0625 Q131.7656,1318 131.9375,1318 Q132.2656,1318 132.5,1318.2656 Q132.75,1318.5156 132.75,1318.875 Q132.75,1319.2188 132.4063,1319.625 Q131.9063,1320.2188 131.1094,1320.5469 Q130.0625,1321 128.7813,1321 Q127.2813,1321 126.0781,1320.4063 Q125.1094,1319.9375 124.4219,1318.9219 Q123.75,1317.9063 123.75,1316.7031 L123.75,1315.6094 Q123.75,1314.3594 124.3438,1313.2656 Q124.9531,1312.1719 126,1311.5938 Q127.0625,1311 128.25,1311 Q128.9688,1311 129.5938,1311.25 Q130.2188,1311.5 130.75,1312 Z " fill="#000000"/><text fill="#000000" font-family="sans-serif" font-size="12" lengthAdjust="spacing" textLength="85" x="149.25" y="1320.4102">ProtectiveCloak</text><line style="stroke:#A80036;stroke-width:1.5;" x1="26" x2="325" y1="1331.5" y2="1331.5"/><line style="stroke:#A80036;stroke-width:1.5;" x1="26" x2="325" y1="1339.5" y2="1339.5"/><text fill="#000000" font-family="sans-serif" font-size="11" lengthAdjust="spacing" textLength="289" x="31" y="1354.9189">+counterImpact(agent: Agent, from: Virologist, to: Virologist)</text><!--MD5=[ce71e8b4822a13f5ea72e94958aa0250]
class Bag--><rect codeLine="132" fill="#FEFECE" filter="url(#f75b2alaintxm)" height="75.6719" id="Bag" style="stroke:#A80036;stroke-width:1.5;" width="183" x="697" y="1292.5"/><ellipse cx="773.25" cy="1308.5" fill="#ADD1B2" rx="11" ry="11" style="stroke:#A80036;stroke-width:1.0;"/><path d="M775.25,1305 Q775.4531,1304.5 775.6875,1304.25 Q775.9219,1304 776.1875,1304 Q776.6563,1304 776.9531,1304.2813 Q777.25,1304.5625 777.25,1305.2188 L777.25,1306.7813 Q777.25,1307.4375 776.9688,1307.7188 Q776.6875,1308 776.25,1308 Q775.8594,1308 775.6094,1307.8281 Q775.3594,1307.6563 775.25,1307.2031 Q775.2031,1306.8906 775.0313,1306.7188 Q774.7188,1306.3906 774.1563,1306.2031 Q773.5938,1306 773.0313,1306 Q772.3281,1306 771.7344,1306.2813 Q771.1563,1306.5625 770.7031,1307.1875 Q770.25,1307.8125 770.25,1308.6719 L770.25,1309.5938 Q770.25,1310.625 771.0938,1311.3125 Q771.9375,1312 773.4375,1312 Q774.3281,1312 774.9531,1311.7969 Q775.3125,1311.6875 775.7188,1311.3281 Q775.9844,1311.125 776.125,1311.0625 Q776.2656,1311 776.4375,1311 Q776.7656,1311 777,1311.2656 Q777.25,1311.5156 777.25,1311.875 Q777.25,1312.2188 776.9063,1312.625 Q776.4063,1313.2188 775.6094,1313.5469 Q774.5625,1314 773.2813,1314 Q771.7813,1314 770.5781,1313.4063 Q769.6094,1312.9375 768.9219,1311.9219 Q768.25,1310.9063 768.25,1309.7031 L768.25,1308.6094 Q768.25,1307.3594 768.8438,1306.2656 Q769.4531,1305.1719 770.5,1304.5938 Q771.5625,1304 772.75,1304 Q773.4688,1304 774.0938,1304.25 Q774.7188,1304.5 775.25,1305 Z " fill="#000000"/><text fill="#000000" font-family="sans-serif" font-size="12" lengthAdjust="spacing" textLength="22" x="793.75" y="1313.4102">Bag</text><line style="stroke:#A80036;stroke-width:1.5;" x1="698" x2="879" y1="1324.5" y2="1324.5"/><line style="stroke:#A80036;stroke-width:1.5;" x1="698" x2="879" y1="1332.5" y2="1332.5"/><text fill="#000000" font-family="sans-serif" font-size="11" lengthAdjust="spacing" textLength="165" x="703" y="1347.9189">+onTurnImpact(to: Virologist): void</text><text fill="#000000" font-family="sans-serif" font-size="11" lengthAdjust="spacing" textLength="171" x="703" y="1361.7549">+endTurnImpact(to: Virologist): void</text><!--MD5=[85e2f7b455e79529a9285138ef9d8711]
class Glove--><rect codeLine="136" fill="#FEFECE" filter="url(#f75b2alaintxm)" height="61.8359" id="Glove" style="stroke:#A80036;stroke-width:1.5;" width="327" x="915" y="1299.5"/><ellipse cx="1058.75" cy="1315.5" fill="#ADD1B2" rx="11" ry="11" style="stroke:#A80036;stroke-width:1.0;"/><path d="M1060.75,1312 Q1060.9531,1311.5 1061.1875,1311.25 Q1061.4219,1311 1061.6875,1311 Q1062.1563,1311 1062.4531,1311.2813 Q1062.75,1311.5625 1062.75,1312.2188 L1062.75,1313.7813 Q1062.75,1314.4375 1062.4688,1314.7188 Q1062.1875,1315 1061.75,1315 Q1061.3594,1315 1061.1094,1314.8281 Q1060.8594,1314.6563 1060.75,1314.2031 Q1060.7031,1313.8906 1060.5313,1313.7188 Q1060.2188,1313.3906 1059.6563,1313.2031 Q1059.0938,1313 1058.5313,1313 Q1057.8281,1313 1057.2344,1313.2813 Q1056.6563,1313.5625 1056.2031,1314.1875 Q1055.75,1314.8125 1055.75,1315.6719 L1055.75,1316.5938 Q1055.75,1317.625 1056.5938,1318.3125 Q1057.4375,1319 1058.9375,1319 Q1059.8281,1319 1060.4531,1318.7969 Q1060.8125,1318.6875 1061.2188,1318.3281 Q1061.4844,1318.125 1061.625,1318.0625 Q1061.7656,1318 1061.9375,1318 Q1062.2656,1318 1062.5,1318.2656 Q1062.75,1318.5156 1062.75,1318.875 Q1062.75,1319.2188 1062.4063,1319.625 Q1061.9063,1320.2188 1061.1094,1320.5469 Q1060.0625,1321 1058.7813,1321 Q1057.2813,1321 1056.0781,1320.4063 Q1055.1094,1319.9375 1054.4219,1318.9219 Q1053.75,1317.9063 1053.75,1316.7031 L1053.75,1315.6094 Q1053.75,1314.3594 1054.3438,1313.2656 Q1054.9531,1312.1719 1056,1311.5938 Q1057.0625,1311 1058.25,1311 Q1058.9688,1311 1059.5938,1311.25 Q1060.2188,1311.5 1060.75,1312 Z " fill="#000000"/><text fill="#000000" font-family="sans-serif" font-size="12" lengthAdjust="spacing" textLength="31" x="1079.25" y="1320.4102">Glove</text><line style="stroke:#A80036;stroke-width:1.5;" x1="916" x2="1241" y1="1331.5" y2="1331.5"/><line style="stroke:#A80036;stroke-width:1.5;" x1="916" x2="1241" y1="1339.5" y2="1339.5"/><text fill="#000000" font-family="sans-serif" font-size="11" lengthAdjust="spacing" textLength="315" x="921" y="1354.9189">+counterImpact(agent: Agent, from: Virologist, to: Virologist): void</text><!--MD5=[0caf3a413731a0de34fc6162fe213ed9]
class Laboratory--><rect codeLine="149" fill="#FEFECE" filter="url(#f75b2alaintxm)" height="75.6719" id="Laboratory" style="stroke:#A80036;stroke-width:1.5;" width="170" x="1162.5" y="678"/><ellipse cx="1214.25" cy="694" fill="#ADD1B2" rx="11" ry="11" style="stroke:#A80036;stroke-width:1.0;"/><path d="M1216.25,690.5 Q1216.4531,690 1216.6875,689.75 Q1216.9219,689.5 1217.1875,689.5 Q1217.6563,689.5 1217.9531,689.7813 Q1218.25,690.0625 1218.25,690.7188 L1218.25,692.2813 Q1218.25,692.9375 1217.9688,693.2188 Q1217.6875,693.5 1217.25,693.5 Q1216.8594,693.5 1216.6094,693.3281 Q1216.3594,693.1563 1216.25,692.7031 Q1216.2031,692.3906 1216.0313,692.2188 Q1215.7188,691.8906 1215.1563,691.7031 Q1214.5938,691.5 1214.0313,691.5 Q1213.3281,691.5 1212.7344,691.7813 Q1212.1563,692.0625 1211.7031,692.6875 Q1211.25,693.3125 1211.25,694.1719 L1211.25,695.0938 Q1211.25,696.125 1212.0938,696.8125 Q1212.9375,697.5 1214.4375,697.5 Q1215.3281,697.5 1215.9531,697.2969 Q1216.3125,697.1875 1216.7188,696.8281 Q1216.9844,696.625 1217.125,696.5625 Q1217.2656,696.5 1217.4375,696.5 Q1217.7656,696.5 1218,696.7656 Q1218.25,697.0156 1218.25,697.375 Q1218.25,697.7188 1217.9063,698.125 Q1217.4063,698.7188 1216.6094,699.0469 Q1215.5625,699.5 1214.2813,699.5 Q1212.7813,699.5 1211.5781,698.9063 Q1210.6094,698.4375 1209.9219,697.4219 Q1209.25,696.4063 1209.25,695.2031 L1209.25,694.1094 Q1209.25,692.8594 1209.8438,691.7656 Q1210.4531,690.6719 1211.5,690.0938 Q1212.5625,689.5 1213.75,689.5 Q1214.4688,689.5 1215.0938,689.75 Q1215.7188,690 1216.25,690.5 Z " fill="#000000"/><text fill="#000000" font-family="sans-serif" font-size="12" lengthAdjust="spacing" textLength="58" x="1234.75" y="698.9102">Laboratory</text><line style="stroke:#A80036;stroke-width:1.5;" x1="1163.5" x2="1331.5" y1="710" y2="710"/><line style="stroke:#A80036;stroke-width:1.5;" x1="1163.5" x2="1331.5" y1="718" y2="718"/><text fill="#000000" font-family="sans-serif" font-size="11" lengthAdjust="spacing" textLength="129" x="1168.5" y="733.4189">+collectItem(inv: Inventory)</text><text fill="#000000" font-family="sans-serif" font-size="11" lengthAdjust="spacing" textLength="158" x="1168.5" y="747.2549">+getCollectableItem(): Collectable</text><!--MD5=[4f7b1328bb9e016e53c6771c8cbf71a3]
class Safehouse--><rect codeLine="154" fill="#FEFECE" filter="url(#f75b2alaintxm)" height="75.6719" id="Safehouse" style="stroke:#A80036;stroke-width:1.5;" width="170" x="679.5" y="869"/><ellipse cx="730.25" cy="885" fill="#ADD1B2" rx="11" ry="11" style="stroke:#A80036;stroke-width:1.0;"/><path d="M732.25,881.5 Q732.4531,881 732.6875,880.75 Q732.9219,880.5 733.1875,880.5 Q733.6563,880.5 733.9531,880.7813 Q734.25,881.0625 734.25,881.7188 L734.25,883.2813 Q734.25,883.9375 733.9688,884.2188 Q733.6875,884.5 733.25,884.5 Q732.8594,884.5 732.6094,884.3281 Q732.3594,884.1563 732.25,883.7031 Q732.2031,883.3906 732.0313,883.2188 Q731.7188,882.8906 731.1563,882.7031 Q730.5938,882.5 730.0313,882.5 Q729.3281,882.5 728.7344,882.7813 Q728.1563,883.0625 727.7031,883.6875 Q727.25,884.3125 727.25,885.1719 L727.25,886.0938 Q727.25,887.125 728.0938,887.8125 Q728.9375,888.5 730.4375,888.5 Q731.3281,888.5 731.9531,888.2969 Q732.3125,888.1875 732.7188,887.8281 Q732.9844,887.625 733.125,887.5625 Q733.2656,887.5 733.4375,887.5 Q733.7656,887.5 734,887.7656 Q734.25,888.0156 734.25,888.375 Q734.25,888.7188 733.9063,889.125 Q733.4063,889.7188 732.6094,890.0469 Q731.5625,890.5 730.2813,890.5 Q728.7813,890.5 727.5781,889.9063 Q726.6094,889.4375 725.9219,888.4219 Q725.25,887.4063 725.25,886.2031 L725.25,885.1094 Q725.25,883.8594 725.8438,882.7656 Q726.4531,881.6719 727.5,881.0938 Q728.5625,880.5 729.75,880.5 Q730.4688,880.5 731.0938,880.75 Q731.7188,881 732.25,881.5 Z " fill="#000000"/><text fill="#000000" font-family="sans-serif" font-size="12" lengthAdjust="spacing" textLength="60" x="750.75" y="889.9102">Safehouse</text><line style="stroke:#A80036;stroke-width:1.5;" x1="680.5" x2="848.5" y1="901" y2="901"/><line style="stroke:#A80036;stroke-width:1.5;" x1="680.5" x2="848.5" y1="909" y2="909"/><text fill="#000000" font-family="sans-serif" font-size="11" lengthAdjust="spacing" textLength="129" x="685.5" y="924.4189">+collectItem(inv: Inventory)</text><text fill="#000000" font-family="sans-serif" font-size="11" lengthAdjust="spacing" textLength="158" x="685.5" y="938.2549">+getCollectableItem(): Collectable</text><!--MD5=[c5149b4909ffd2688ff51a939867f774]
class Warehouse--><rect codeLine="158" fill="#FEFECE" filter="url(#f75b2alaintxm)" height="75.6719" id="Warehouse" style="stroke:#A80036;stroke-width:1.5;" width="170" x="1576.5" y="1087.5"/><ellipse cx="1625.25" cy="1103.5" fill="#ADD1B2" rx="11" ry="11" style="stroke:#A80036;stroke-width:1.0;"/><path d="M1627.25,1100 Q1627.4531,1099.5 1627.6875,1099.25 Q1627.9219,1099 1628.1875,1099 Q1628.6563,1099 1628.9531,1099.2813 Q1629.25,1099.5625 1629.25,1100.2188 L1629.25,1101.7813 Q1629.25,1102.4375 1628.9688,1102.7188 Q1628.6875,1103 1628.25,1103 Q1627.8594,1103 1627.6094,1102.8281 Q1627.3594,1102.6563 1627.25,1102.2031 Q1627.2031,1101.8906 1627.0313,1101.7188 Q1626.7188,1101.3906 1626.1563,1101.2031 Q1625.5938,1101 1625.0313,1101 Q1624.3281,1101 1623.7344,1101.2813 Q1623.1563,1101.5625 1622.7031,1102.1875 Q1622.25,1102.8125 1622.25,1103.6719 L1622.25,1104.5938 Q1622.25,1105.625 1623.0938,1106.3125 Q1623.9375,1107 1625.4375,1107 Q1626.3281,1107 1626.9531,1106.7969 Q1627.3125,1106.6875 1627.7188,1106.3281 Q1627.9844,1106.125 1628.125,1106.0625 Q1628.2656,1106 1628.4375,1106 Q1628.7656,1106 1629,1106.2656 Q1629.25,1106.5156 1629.25,1106.875 Q1629.25,1107.2188 1628.9063,1107.625 Q1628.4063,1108.2188 1627.6094,1108.5469 Q1626.5625,1109 1625.2813,1109 Q1623.7813,1109 1622.5781,1108.4063 Q1621.6094,1107.9375 1620.9219,1106.9219 Q1620.25,1105.9063 1620.25,1104.7031 L1620.25,1103.6094 Q1620.25,1102.3594 1620.8438,1101.2656 Q1621.4531,1100.1719 1622.5,1099.5938 Q1623.5625,1099 1624.75,1099 Q1625.4688,1099 1626.0938,1099.25 Q1626.7188,1099.5 1627.25,1100 Z " fill="#000000"/><text fill="#000000" font-family="sans-serif" font-size="12" lengthAdjust="spacing" textLength="64" x="1645.75" y="1108.4102">Warehouse</text><line style="stroke:#A80036;stroke-width:1.5;" x1="1577.5" x2="1745.5" y1="1119.5" y2="1119.5"/><line style="stroke:#A80036;stroke-width:1.5;" x1="1577.5" x2="1745.5" y1="1127.5" y2="1127.5"/><text fill="#000000" font-family="sans-serif" font-size="11" lengthAdjust="spacing" textLength="129" x="1582.5" y="1142.9189">+collectItem(inv: Inventory)</text><text fill="#000000" font-family="sans-serif" font-size="11" lengthAdjust="spacing" textLength="158" x="1582.5" y="1156.7549">+getCollectableItem(): Collectable</text><!--MD5=[1abb7632e34a21a5ebaa58d0e04b6303]
class EmptyTile--><rect codeLine="162" fill="#FEFECE" filter="url(#f75b2alaintxm)" height="75.6719" id="EmptyTile" style="stroke:#A80036;stroke-width:1.5;" width="170" x="1367.5" y="678"/><ellipse cx="1421.25" cy="694" fill="#ADD1B2" rx="11" ry="11" style="stroke:#A80036;stroke-width:1.0;"/><path d="M1423.25,690.5 Q1423.4531,690 1423.6875,689.75 Q1423.9219,689.5 1424.1875,689.5 Q1424.6563,689.5 1424.9531,689.7813 Q1425.25,690.0625 1425.25,690.7188 L1425.25,692.2813 Q1425.25,692.9375 1424.9688,693.2188 Q1424.6875,693.5 1424.25,693.5 Q1423.8594,693.5 1423.6094,693.3281 Q1423.3594,693.1563 1423.25,692.7031 Q1423.2031,692.3906 1423.0313,692.2188 Q1422.7188,691.8906 1422.1563,691.7031 Q1421.5938,691.5 1421.0313,691.5 Q1420.3281,691.5 1419.7344,691.7813 Q1419.1563,692.0625 1418.7031,692.6875 Q1418.25,693.3125 1418.25,694.1719 L1418.25,695.0938 Q1418.25,696.125 1419.0938,696.8125 Q1419.9375,697.5 1421.4375,697.5 Q1422.3281,697.5 1422.9531,697.2969 Q1423.3125,697.1875 1423.7188,696.8281 Q1423.9844,696.625 1424.125,696.5625 Q1424.2656,696.5 1424.4375,696.5 Q1424.7656,696.5 1425,696.7656 Q1425.25,697.0156 1425.25,697.375 Q1425.25,697.7188 1424.9063,698.125 Q1424.4063,698.7188 1423.6094,699.0469 Q1422.5625,699.5 1421.2813,699.5 Q1419.7813,699.5 1418.5781,698.9063 Q1417.6094,698.4375 1416.9219,697.4219 Q1416.25,696.4063 1416.25,695.2031 L1416.25,694.1094 Q1416.25,692.8594 1416.8438,691.7656 Q1417.4531,690.6719 1418.5,690.0938 Q1419.5625,689.5 1420.75,689.5 Q1421.4688,689.5 1422.0938,689.75 Q1422.7188,690 1423.25,690.5 Z " fill="#000000"/><text fill="#000000" font-family="sans-serif" font-size="12" lengthAdjust="spacing" textLength="54" x="1441.75" y="698.9102">EmptyTile</text><line style="stroke:#A80036;stroke-width:1.5;" x1="1368.5" x2="1536.5" y1="710" y2="710"/><line style="stroke:#A80036;stroke-width:1.5;" x1="1368.5" x2="1536.5" y1="718" y2="718"/><text fill="#000000" font-family="sans-serif" font-size="11" lengthAdjust="spacing" textLength="129" x="1373.5" y="733.4189">+collectItem(inv: Inventory)</text><text fill="#000000" font-family="sans-serif" font-size="11" lengthAdjust="spacing" textLength="158" x="1373.5" y="747.2549">+getCollectableItem(): Collectable</text><!--MD5=[4dfc6a72b8dd60daa1b635d583ff79da]
class Map--><rect codeLine="167" fill="#FEFECE" filter="url(#f75b2alaintxm)" height="61.8359" id="Map" style="stroke:#A80036;stroke-width:1.5;" width="77" x="1148" y="254"/><ellipse cx="1172.9" cy="270" fill="#ADD1B2" rx="11" ry="11" style="stroke:#A80036;stroke-width:1.0;"/><path d="M1174.9,266.5 Q1175.1031,266 1175.3375,265.75 Q1175.5719,265.5 1175.8375,265.5 Q1176.3063,265.5 1176.6031,265.7813 Q1176.9,266.0625 1176.9,266.7188 L1176.9,268.2813 Q1176.9,268.9375 1176.6188,269.2188 Q1176.3375,269.5 1175.9,269.5 Q1175.5094,269.5 1175.2594,269.3281 Q1175.0094,269.1563 1174.9,268.7031 Q1174.8531,268.3906 1174.6813,268.2188 Q1174.3688,267.8906 1173.8063,267.7031 Q1173.2438,267.5 1172.6813,267.5 Q1171.9781,267.5 1171.3844,267.7813 Q1170.8063,268.0625 1170.3531,268.6875 Q1169.9,269.3125 1169.9,270.1719 L1169.9,271.0938 Q1169.9,272.125 1170.7438,272.8125 Q1171.5875,273.5 1173.0875,273.5 Q1173.9781,273.5 1174.6031,273.2969 Q1174.9625,273.1875 1175.3688,272.8281 Q1175.6344,272.625 1175.775,272.5625 Q1175.9156,272.5 1176.0875,272.5 Q1176.4156,272.5 1176.65,272.7656 Q1176.9,273.0156 1176.9,273.375 Q1176.9,273.7188 1176.5563,274.125 Q1176.0563,274.7188 1175.2594,275.0469 Q1174.2125,275.5 1172.9313,275.5 Q1171.4313,275.5 1170.2281,274.9063 Q1169.2594,274.4375 1168.5719,273.4219 Q1167.9,272.4063 1167.9,271.2031 L1167.9,270.1094 Q1167.9,268.8594 1168.4938,267.7656 Q1169.1031,266.6719 1170.15,266.0938 Q1171.2125,265.5 1172.4,265.5 Q1173.1188,265.5 1173.7438,265.75 Q1174.3688,266 1174.9,266.5 Z " fill="#000000"/><text fill="#000000" font-family="sans-serif" font-size="12" lengthAdjust="spacing" textLength="23" x="1189.1" y="274.9102">Map</text><line style="stroke:#A80036;stroke-width:1.5;" x1="1149" x2="1224" y1="286" y2="286"/><line style="stroke:#A80036;stroke-width:1.5;" x1="1149" x2="1224" y1="294" y2="294"/><text fill="#000000" font-family="sans-serif" font-size="11" lengthAdjust="spacing" textLength="65" x="1154" y="309.4189">+createMap()</text><!--MD5=[1d7ba1c7002d54515419844fbd155368]
class Controller--><rect codeLine="178" fill="#FEFECE" filter="url(#f75b2alaintxm)" height="89.5078" id="Controller" style="stroke:#A80036;stroke-width:1.5;" width="102" x="1135.5" y="7"/><ellipse cx="1157.7" cy="23" fill="#ADD1B2" rx="11" ry="11" style="stroke:#A80036;stroke-width:1.0;"/><path d="M1159.7,19.5 Q1159.9031,19 1160.1375,18.75 Q1160.3719,18.5 1160.6375,18.5 Q1161.1063,18.5 1161.4031,18.7813 Q1161.7,19.0625 1161.7,19.7188 L1161.7,21.2813 Q1161.7,21.9375 1161.4188,22.2188 Q1161.1375,22.5 1160.7,22.5 Q1160.3094,22.5 1160.0594,22.3281 Q1159.8094,22.1563 1159.7,21.7031 Q1159.6531,21.3906 1159.4813,21.2188 Q1159.1688,20.8906 1158.6063,20.7031 Q1158.0438,20.5 1157.4813,20.5 Q1156.7781,20.5 1156.1844,20.7813 Q1155.6063,21.0625 1155.1531,21.6875 Q1154.7,22.3125 1154.7,23.1719 L1154.7,24.0938 Q1154.7,25.125 1155.5438,25.8125 Q1156.3875,26.5 1157.8875,26.5 Q1158.7781,26.5 1159.4031,26.2969 Q1159.7625,26.1875 1160.1688,25.8281 Q1160.4344,25.625 1160.575,25.5625 Q1160.7156,25.5 1160.8875,25.5 Q1161.2156,25.5 1161.45,25.7656 Q1161.7,26.0156 1161.7,26.375 Q1161.7,26.7188 1161.3563,27.125 Q1160.8563,27.7188 1160.0594,28.0469 Q1159.0125,28.5 1157.7313,28.5 Q1156.2313,28.5 1155.0281,27.9063 Q1154.0594,27.4375 1153.3719,26.4219 Q1152.7,25.4063 1152.7,24.2031 L1152.7,23.1094 Q1152.7,21.8594 1153.2938,20.7656 Q1153.9031,19.6719 1154.95,19.0938 Q1156.0125,18.5 1157.2,18.5 Q1157.9188,18.5 1158.5438,18.75 Q1159.1688,19 1159.7,19.5 Z " fill="#000000"/><text fill="#000000" font-family="sans-serif" font-size="12" lengthAdjust="spacing" textLength="54" x="1173.3" y="27.9102">Controller</text><line style="stroke:#A80036;stroke-width:1.5;" x1="1136.5" x2="1236.5" y1="39" y2="39"/><text fill="#000000" font-family="sans-serif" font-size="11" lengthAdjust="spacing" textLength="80" x="1141.5" y="54.4189">-activePlayer: int</text><line style="stroke:#A80036;stroke-width:1.5;" x1="1136.5" x2="1236.5" y1="60.8359" y2="60.8359"/><text fill="#000000" font-family="sans-serif" font-size="11" lengthAdjust="spacing" textLength="90" x="1141.5" y="76.2549">+startGame(): void</text><text fill="#000000" font-family="sans-serif" font-size="11" lengthAdjust="spacing" textLength="90" x="1141.5" y="90.0908">-nextRound(): void</text><!--MD5=[0f8b194217655d332f3f52885d0189ea]
reverse link Collectable to Resource--><path d="M1146.53,754.02 C1222.03,780.96 1257.21,764.15 1309.5,814 C1445.16,943.33 1487.95,1176.28 1500.58,1278.77 " fill="none" id="Collectable-backto-Resource" style="stroke:#A80036;stroke-width:1.0;stroke-dasharray:7.0,7.0;"/><polygon fill="none" points="1143.67,760.41,1127.57,746.64,1148.75,747.37,1143.67,760.41" style="stroke:#A80036;stroke-width:1.0;"/><!--MD5=[0c40b94a56bef4ba20da66d27b28221b]
link Resource to ResourceType--><path codeLine="17" d="M1505.5,1382.34 C1505.5,1412.29 1505.5,1449.52 1505.5,1476.75 " fill="none" id="Resource-ResourceType" style="stroke:#FFFFFF;stroke-width:1.0;"/><!--MD5=[48a32b381bd0478f9c278840f73d7611]
reverse link Effect to Agent--><path d="M496.83,985.93 C500.05,1061.42 504.91,1175.29 508.15,1250.98 " fill="none" id="Effect-backto-Agent" style="stroke:#A80036;stroke-width:1.0;stroke-dasharray:7.0,7.0;"/><polygon fill="none" points="489.82,986,495.97,965.72,503.81,985.41,489.82,986" style="stroke:#A80036;stroke-width:1.0;"/><!--MD5=[a7d5ccfb9088b8210a90e968e7801d3a]
reverse link Agent to AmnesiaVirus--><path d="M462.2,1428.24 C453.38,1445.54 444.7,1462.58 437.43,1476.86 " fill="none" id="Agent-backto-AmnesiaVirus" style="stroke:#A80036;stroke-width:1.0;"/><polygon fill="none" points="456.07,1424.86,471.38,1410.22,468.54,1431.22,456.07,1424.86" style="stroke:#A80036;stroke-width:1.0;"/><!--MD5=[a8a6346d9cc26ede44f4b6e24045c557]
reverse link Agent to StunVirus--><path d="M560.71,1428.07 C568.17,1442.71 575.54,1457.17 582.04,1469.93 " fill="none" id="Agent-backto-StunVirus" style="stroke:#A80036;stroke-width:1.0;"/><polygon fill="none" points="554.46,1431.22,551.62,1410.22,566.93,1424.86,554.46,1431.22" style="stroke:#A80036;stroke-width:1.0;"/><!--MD5=[931b35c9023dd3974f651c4f19c832dd]
reverse link Agent to VitusDanceVirus--><path d="M648.94,1421.4 C678.92,1441.01 709.02,1460.7 733.71,1476.86 " fill="none" id="Agent-backto-VitusDanceVirus" style="stroke:#A80036;stroke-width:1.0;"/><polygon fill="none" points="644.75,1427.03,631.85,1410.22,652.41,1415.31,644.75,1427.03" style="stroke:#A80036;stroke-width:1.0;"/><!--MD5=[a6904c6eaa961520987307df4c488bce]
reverse link Agent to Vaccine--><path d="M342.89,1418.43 C302.95,1439.02 262.44,1459.9 229.52,1476.87 " fill="none" id="Agent-backto-Vaccine" style="stroke:#A80036;stroke-width:1.0;"/><polygon fill="none" points="339.87,1412.1,360.86,1409.16,346.29,1424.55,339.87,1412.1" style="stroke:#A80036;stroke-width:1.0;"/><!--MD5=[a9bf2fda0d22136215a837471dd366cb]
reverse link Collectable to GeneticCode--><path d="M1145.8,755.43 C1196.22,780.19 1252.73,808.73 1256.5,814 C1313.73,893.94 1312.63,1015.51 1307,1080.27 " fill="none" id="Collectable-backto-GeneticCode" style="stroke:#A80036;stroke-width:1.0;stroke-dasharray:7.0,7.0;"/><polygon fill="none" points="1142.5,761.6,1127.61,746.52,1148.65,749.03,1142.5,761.6" style="stroke:#A80036;stroke-width:1.0;"/><!--MD5=[b6f67d9bb96388ca5a8941ecc491e681]
link Tile to Collectable--><path codeLine="100" d="M1135.26,618.45 C1119.99,639.89 1103.95,662.41 1091.2,680.31 " fill="none" id="Tile-to-Collectable" style="stroke:#A80036;stroke-width:1.0;stroke-dasharray:7.0,7.0;"/><polygon fill="#A80036" points="1088.04,684.76,1096.5194,679.7501,1090.9408,680.6875,1090.0034,675.1088,1088.04,684.76" style="stroke:#A80036;stroke-width:1.0;"/><!--MD5=[11265872cfee522af2695b44c5b87e0c]
link Collectable to Inventory--><path codeLine="101" d="M1066.5,747.37 C1066.5,764.25 1066.5,786.29 1066.5,808.56 " fill="none" id="Collectable-to-Inventory" style="stroke:#A80036;stroke-width:1.0;stroke-dasharray:7.0,7.0;"/><polygon fill="#A80036" points="1066.5,813.62,1070.5,804.62,1066.5,808.62,1062.5,804.62,1066.5,813.62" style="stroke:#A80036;stroke-width:1.0;"/><!--MD5=[a1dfe37600535fde98007b1f9d24b7df]
link Virologist to GeneticCode--><path codeLine="102" d="M930.63,413.04 C933.41,533.78 945.07,704.13 987.5,754 C1049.57,826.96 1126.09,746.95 1194.5,814 C1256.34,874.61 1223.74,918.32 1252.5,1000 C1261.36,1025.16 1272.13,1052.8 1281.32,1075.63 " fill="none" id="Virologist-to-GeneticCode" style="stroke:#A80036;stroke-width:1.0;stroke-dasharray:7.0,7.0;"/><polygon fill="#A80036" points="1283.25,1080.43,1283.5848,1070.5868,1281.3758,1075.7946,1276.1681,1073.5856,1283.25,1080.43" style="stroke:#A80036;stroke-width:1.0;"/><!--MD5=[bdbe34e6d9a750cd1752d63814bf99ac]
link Virologist to Agent--><path codeLine="103" d="M809.18,309.7 C623.35,353.86 289.5,467.6 289.5,715 C289.5,715 289.5,715 289.5,908 C289.5,1037.39 372.41,1166.06 436.9,1246.56 " fill="none" id="Virologist-to-Agent" style="stroke:#A80036;stroke-width:1.0;stroke-dasharray:7.0,7.0;"/><polygon fill="#A80036" points="440.34,1250.83,437.8073,1241.3124,437.2026,1246.9368,431.5782,1246.3322,440.34,1250.83" style="stroke:#A80036;stroke-width:1.0;"/><!--MD5=[d03a49ab3870be4550990707d9d87bb6]
link Equipment to Agent--><path codeLine="104" d="M692.29,1191.01 C668.79,1209.01 642.95,1228.8 618.34,1247.66 " fill="none" id="Equipment-to-Agent" style="stroke:#A80036;stroke-width:1.0;stroke-dasharray:7.0,7.0;"/><polygon fill="#A80036" points="614.08,1250.92,623.6569,1248.6214,618.049,1247.879,618.7913,1242.2711,614.08,1250.92" style="stroke:#A80036;stroke-width:1.0;"/><!--MD5=[c7feed02f19a13230698e5d952c2a497]
link Virologist to Inventory--><path codeLine="106" d="M904.55,413.01 C890.57,509.85 883.84,644.72 926.5,754 C934.85,775.39 947.77,795.58 962.46,813.84 " fill="none" id="Virologist-Inventory" style="stroke:#A80036;stroke-width:1.0;"/><text fill="#000000" font-family="sans-serif" font-size="13" lengthAdjust="spacing" textLength="69" x="832.2441" y="433.9654">-virologist, 1</text><text fill="#000000" font-family="sans-serif" font-size="13" lengthAdjust="spacing" textLength="70" x="881.3803" y="803.2736">-inventory, 1</text><!--MD5=[ce4c7899d3f1528f67a831a102741450]
reverse link Virologist to Effect--><path codeLine="107" d="M833.22,424.02 C739.33,557.23 601.75,752.42 534.11,848.39 " fill="none" id="Virologist-backto-Effect" style="stroke:#A80036;stroke-width:1.0;"/><polygon fill="#A80036" points="840.75,413.34,834.0248,415.9422,833.8402,423.1509,840.5654,420.5487,840.75,413.34" style="stroke:#A80036;stroke-width:1.0;"/><text fill="#000000" font-family="sans-serif" font-size="13" lengthAdjust="spacing" textLength="105" x="427.6609" y="837.7775">-activeEffects, 0..*</text><!--MD5=[830b2f6f82d2e699b299ff1dd58a454b]
reverse link Inventory to GeneticCode--><path codeLine="109" d="M1176.11,1008.98 C1203.37,1034.09 1231.2,1059.73 1253.69,1080.45 " fill="none" id="Inventory-backto-GeneticCode" style="stroke:#A80036;stroke-width:1.0;"/><polygon fill="#A80036" points="1166.5,1000.13,1168.1987,1007.1382,1175.3212,1008.2655,1173.6224,1001.2574,1166.5,1000.13" style="stroke:#A80036;stroke-width:1.0;"/><text fill="#000000" font-family="sans-serif" font-size="13" lengthAdjust="spacing" textLength="101" x="1137.0218" y="1069.5575">-learntCodes, 0..*</text><!--MD5=[505f9e055db18b409b654428cce0a1c2]
link Inventory to Equipment--><path codeLine="110" d="M955.21,991.09 C926.13,1012.79 895.14,1035.93 867.27,1056.74 " fill="none" id="Inventory-to-Equipment" style="stroke:#A80036;stroke-width:1.0;"/><polygon fill="#A80036" points="863.18,1059.79,872.785,1057.612,867.1869,1056.7992,867.9997,1051.201,863.18,1059.79" style="stroke:#A80036;stroke-width:1.0;"/><text fill="#000000" font-family="sans-serif" font-size="13" lengthAdjust="spacing" textLength="155" x="709.1841" y="1049.2415">-pickedUpEquipments, 0..*</text><!--MD5=[2ec960a51115a2f753496f46ba2c1290]
link Inventory to Agent--><path codeLine="111" d="M1049.54,1000.18 C1033.2,1062.99 1002.12,1143.14 944.5,1191 C851.61,1268.17 793.75,1211.88 679.5,1251 C675.45,1252.39 671.37,1253.84 667.27,1255.35 " fill="none" id="Inventory-to-Agent" style="stroke:#A80036;stroke-width:1.0;"/><polygon fill="#A80036" points="662.45,1257.15,672.2799,1257.7615,667.1363,1255.4069,669.4909,1250.2634,662.45,1257.15" style="stroke:#A80036;stroke-width:1.0;"/><text fill="#000000" font-family="sans-serif" font-size="13" lengthAdjust="spacing" textLength="112" x="669.8873" y="1251.7335">-craftedAgents, 0..*</text><!--MD5=[c81027f0028008fca17562df89505904]
link Inventory to Resource--><path codeLine="112" d="M1088.11,1000.23 C1106.48,1061.04 1138.38,1138.81 1190.5,1191 C1227.72,1228.26 1276.65,1256.29 1324.83,1277.01 " fill="none" id="Inventory-to-Resource" style="stroke:#A80036;stroke-width:1.0;"/><polygon fill="#A80036" points="1329.49,1279,1322.7744,1271.7958,1324.8891,1277.0425,1319.6424,1279.1572,1329.49,1279" style="stroke:#A80036;stroke-width:1.0;"/><text fill="#000000" font-family="sans-serif" font-size="13" lengthAdjust="spacing" textLength="78" x="1226.6295" y="1269.6159">-resources, N</text><!--MD5=[7a4c21b2d2faa4b4ddf9fcc5e3748c7e]
reverse link GeneticCode to Resource--><path codeLine="114" d="M1355.04,1179.78 C1385.79,1210.37 1424.18,1248.58 1454.49,1278.74 " fill="none" id="GeneticCode-backto-Resource" style="stroke:#A80036;stroke-width:1.0;"/><polygon fill="#A80036" points="1345.76,1170.55,1347.1907,1177.6178,1354.265,1179.0155,1352.8343,1171.9477,1345.76,1170.55" style="stroke:#A80036;stroke-width:1.0;"/><text fill="#000000" font-family="sans-serif" font-size="13" lengthAdjust="spacing" textLength="49" x="1395.3433" y="1268.2054">-price, N</text><!--MD5=[7f2e90b36e87ddda7eb383d1b5361eb1]
reverse link GeneticCode to Agent--><path codeLine="115" d="M1195.18,1156.11 C1150.69,1167.9 1098.3,1181.01 1050.5,1191 C887,1225.15 839.13,1201.84 679.5,1251 C673.81,1252.75 668.06,1254.66 662.3,1256.7 " fill="none" id="GeneticCode-backto-Agent" style="stroke:#A80036;stroke-width:1.0;"/><polygon fill="#A80036" points="1207.81,1152.74,1200.9811,1150.4235,1196.2163,1155.8361,1203.0452,1158.1526,1207.81,1152.74" style="stroke:#A80036;stroke-width:1.0;"/><text fill="#000000" font-family="sans-serif" font-size="13" lengthAdjust="spacing" textLength="51" x="669.7377" y="1267.4332">-agent, 1</text><!--MD5=[ed3e0a97bd33a5164104b3d64a78201c]
link Virologist to Tile--><path codeLine="117" d="M1051.75,408.44 C1073.59,430.49 1095.7,452.81 1115.51,472.82 " fill="none" id="Virologist-Tile" style="stroke:#A80036;stroke-width:1.0;"/><text fill="#000000" font-family="sans-serif" font-size="13" lengthAdjust="spacing" textLength="74" x="1059.4152" y="411.5464">-players, 0..*</text><text fill="#000000" font-family="sans-serif" font-size="13" lengthAdjust="spacing" textLength="72" x="1032.4767" y="462.0208">-activeTile, 1</text><!--MD5=[ee5d11a555f13a68b9537ad812a541a7]
reverse link Effect to Equipment--><path d="M584.93,977.95 C619.34,1004.27 658.27,1034.05 692.01,1059.87 " fill="none" id="Effect-backto-Equipment" style="stroke:#A80036;stroke-width:1.0;stroke-dasharray:7.0,7.0;"/><polygon fill="none" points="580.6,983.45,568.97,965.73,589.11,972.33,580.6,983.45" style="stroke:#A80036;stroke-width:1.0;"/><!--MD5=[20e3e2d17064009f1531e1f50cb0e83a]
reverse link Collectable to Equipment--><path d="M996.66,758.57 C975.44,773.86 953.53,792.72 937.5,814 C884.28,884.69 908.56,922.15 866.5,1000 C855.54,1020.3 841.7,1041.09 828.2,1059.73 " fill="none" id="Collectable-backto-Equipment" style="stroke:#A80036;stroke-width:1.0;stroke-dasharray:7.0,7.0;"/><polygon fill="none" points="992.95,752.62,1013.41,747.09,1000.87,764.17,992.95,752.62" style="stroke:#A80036;stroke-width:1.0;"/><!--MD5=[6b3722415a383bd74dd1bdc3e0e2a09f]
reverse link Equipment to ProtectiveCloak--><path d="M606.49,1168.75 C525.83,1190.47 428.68,1219.08 343.5,1251 C306.27,1264.95 265.86,1283.71 234.01,1299.39 " fill="none" id="Equipment-backto-ProtectiveCloak" style="stroke:#A80036;stroke-width:1.0;"/><polygon fill="none" points="604.69,1161.98,625.82,1163.59,608.3,1175.51,604.69,1161.98" style="stroke:#A80036;stroke-width:1.0;"/><!--MD5=[466911e97685cb26f098cd232a5d4f54]
reverse link Equipment to Bag--><path d="M781.51,1211.18 C783.18,1239.5 784.96,1269.61 786.31,1292.37 " fill="none" id="Equipment-backto-Bag" style="stroke:#A80036;stroke-width:1.0;"/><polygon fill="none" points="774.51,1211.39,780.31,1191.01,788.48,1210.56,774.51,1211.39" style="stroke:#A80036;stroke-width:1.0;"/><!--MD5=[6427eaf747e5babacb8dcce1da559e51]
reverse link Equipment to Glove--><path d="M889.24,1202.28 C939.49,1236.06 995.79,1273.9 1033.82,1299.47 " fill="none" id="Equipment-backto-Glove" style="stroke:#A80036;stroke-width:1.0;"/><polygon fill="none" points="885.16,1207.98,872.47,1191.01,892.97,1196.36,885.16,1207.98" style="stroke:#A80036;stroke-width:1.0;"/><!--MD5=[d3b639eb352b9bd26202150644ff3fbf]
reverse link Tile to Laboratory--><path d="M1219.52,637.71 C1224.63,651.82 1229.64,665.67 1233.98,677.66 " fill="none" id="Tile-backto-Laboratory" style="stroke:#A80036;stroke-width:1.0;"/><polygon fill="none" points="1212.77,639.64,1212.55,618.45,1225.94,634.87,1212.77,639.64" style="stroke:#A80036;stroke-width:1.0;"/><!--MD5=[d06935ba1ab126300bd5b463f41b0931]
reverse link Tile to Safehouse--><path d="M1072.35,615.95 C1043.78,634.93 1013.8,656.28 987.5,678 C913.64,738.99 837.76,821.67 796.33,868.87 " fill="none" id="Tile-backto-Safehouse" style="stroke:#A80036;stroke-width:1.0;"/><polygon fill="none" points="1068.87,609.86,1089.43,604.76,1076.54,621.57,1068.87,609.86" style="stroke:#A80036;stroke-width:1.0;"/><!--MD5=[f678b4eb16223263a0988bbd3a1b9d61]
reverse link Tile to Warehouse--><path d="M1303.64,558.93 C1385.54,573.79 1491.34,606.42 1555.5,678 C1662.12,796.95 1666.75,1003.46 1663.75,1087.41 " fill="none" id="Tile-backto-Warehouse" style="stroke:#A80036;stroke-width:1.0;"/><polygon fill="none" points="1302.46,565.83,1283.91,555.6,1304.79,552.02,1302.46,565.83" style="stroke:#A80036;stroke-width:1.0;"/><!--MD5=[ce00ed01a024100edddc6e8f253b8d16]
reverse link Tile to EmptyTile--><path d="M1300.78,618.89 C1332.89,639.23 1366.48,660.51 1393.87,677.86 " fill="none" id="Tile-backto-EmptyTile" style="stroke:#A80036;stroke-width:1.0;"/><polygon fill="none" points="1296.81,624.66,1283.66,608.05,1304.3,612.84,1296.81,624.66" style="stroke:#A80036;stroke-width:1.0;"/><!--MD5=[ebdac7d12228737842a18d4b55f78902]
reverse link Laboratory to GeneticCode--><path codeLine="171" d="M1297.01,763.86 C1309.38,778.59 1320.97,795.81 1327.5,814 C1359.96,904.37 1334.91,1018.69 1316.49,1080.31 " fill="none" id="Laboratory-backto-GeneticCode" style="stroke:#A80036;stroke-width:1.0;"/><polygon fill="#A80036" points="1288.38,754.07,1289.3466,761.216,1296.3147,763.0723,1295.3481,755.9263,1288.38,754.07" style="stroke:#A80036;stroke-width:1.0;"/><text fill="#000000" font-family="sans-serif" font-size="13" lengthAdjust="spacing" textLength="47" x="1268.1869" y="1069.725">-code, 1</text><!--MD5=[553a3a0eb6f4fdb8440293f0eb924568]
reverse link Safehouse to Equipment--><path codeLine="172" d="M767.3,958.45 C768.97,988.65 771.12,1027.36 772.91,1059.8 " fill="none" id="Safehouse-backto-Equipment" style="stroke:#A80036;stroke-width:1.0;"/><polygon fill="#A80036" points="766.56,945.22,762.8956,951.4306,767.2191,957.2019,770.8835,950.9913,766.56,945.22" style="stroke:#A80036;stroke-width:1.0;"/><text fill="#000000" font-family="sans-serif" font-size="13" lengthAdjust="spacing" textLength="79" x="689.4663" y="1032.9053">-equipment, 1</text><text fill="#000000" font-family="sans-serif" font-size="13" lengthAdjust="spacing" textLength="0" x="730.9663" y="1049.2568"/><!--MD5=[90ae5e806468a0d95b80e6d6fe9732bc]
reverse link Warehouse to Resource--><path codeLine="173" d="M1624.68,1174.41 C1600.56,1205.8 1569.06,1246.79 1544.51,1278.74 " fill="none" id="Warehouse-backto-Resource" style="stroke:#A80036;stroke-width:1.0;"/><polygon fill="#A80036" points="1632.89,1163.73,1626.0625,1166.0506,1625.5786,1173.2454,1632.4061,1170.9248,1632.89,1163.73" style="stroke:#A80036;stroke-width:1.0;"/><text fill="#000000" font-family="sans-serif" font-size="13" lengthAdjust="spacing" textLength="81" x="1463.3098" y="1268.2054">-collectable, 1</text><!--MD5=[ff53eace86c1d97199ea61ea19204bfe]
reverse link Map to Tile--><path codeLine="175" d="M1186.5,329.4 C1186.5,368.52 1186.5,426.81 1186.5,472.84 " fill="none" id="Map-backto-Tile" style="stroke:#A80036;stroke-width:1.0;"/><polygon fill="#A80036" points="1186.5,316.16,1182.5,322.16,1186.5,328.16,1190.5,322.16,1186.5,316.16" style="stroke:#A80036;stroke-width:1.0;"/><text fill="#000000" font-family="sans-serif" font-size="13" lengthAdjust="spacing" textLength="43" x="1141.2828" y="462.0428">-tiles, L</text><!--MD5=[a176ebf06cb10ddd6ba1768217facd81]
reverse link Tile to Tile--><path codeLine="176" d="M1288.86,515.74 C1306.37,519.8 1318.5,529.72 1318.5,545.5 C1318.5,562.77 1303.98,573.02 1283.78,576.25 " fill="none" id="Tile-backto-Tile" style="stroke:#A80036;stroke-width:1.0;"/><polygon fill="#A80036" points="1283.78,514.75,1291.8462,520.4012,1288.6873,515.7086,1293.3799,512.5496,1283.78,514.75" style="stroke:#A80036;stroke-width:1.0;"/><text fill="#000000" font-family="sans-serif" font-size="13" lengthAdjust="spacing" textLength="99" x="1291.3483" y="574.9311">-neighbours, 1..K</text><!--MD5=[c500f5464b9dc4a96a985056f627131e]
reverse link Controller to Map--><path codeLine="183" d="M1186.5,110.51 C1186.5,155.97 1186.5,217.61 1186.5,253.86 " fill="none" id="Controller-backto-Map" style="stroke:#A80036;stroke-width:1.0;"/><polygon fill="#A80036" points="1186.5,97.27,1182.5,103.27,1186.5,109.27,1190.5,103.27,1186.5,97.27" style="stroke:#A80036;stroke-width:1.0;"/><text fill="#000000" font-family="sans-serif" font-size="13" lengthAdjust="spacing" textLength="44" x="1137.9625" y="243.3357">-map, 1</text><!--MD5=[78646e1ebce6eb7ea4c276a3d84eb704]
reverse link Controller to Virologist--><path codeLine="184" d="M1127.65,106.1 C1104.95,126.58 1078.11,150.81 1051.65,174.68 " fill="none" id="Controller-backto-Virologist" style="stroke:#A80036;stroke-width:1.0;"/><polygon fill="#A80036" points="1137.44,97.27,1130.3065,98.3252,1128.5369,105.3158,1135.6704,104.2606,1137.44,97.27" style="stroke:#A80036;stroke-width:1.0;"/><text fill="#000000" font-family="sans-serif" font-size="13" lengthAdjust="spacing" textLength="80" x="1059.4557" y="166.4637">-players, 2..M</text><!--MD5=[a4b40ac3fa88b8b481ea2d5df8bf623d]
reverse link Controller to GeneticCode--><path codeLine="185" d="M1232.64,107.43 C1316.67,210.56 1491.86,445.02 1555.5,678 C1599.56,839.31 1442.83,1003.85 1355.79,1080.35 " fill="none" id="Controller-backto-GeneticCode" style="stroke:#A80036;stroke-width:1.0;"/><polygon fill="#A80036" points="1224.31,97.28,1225.0247,104.4556,1231.9232,106.5557,1231.2085,99.3801,1224.31,97.28" style="stroke:#A80036;stroke-width:1.0;"/><text fill="#000000" font-family="sans-serif" font-size="13" lengthAdjust="spacing" textLength="53" x="1368.161" y="1069.7711">-codes, J</text><!--MD5=[43b3b1aac424dc16bf67ea3c6e8f755a]
@startuml
'https://plantuml.com/class-diagram
skinparam classAttributeIconSize 0

class Resource implements Collectable {
    -amount: int
    -type: ResourceType
    +collect(inv: Inventory)
    {static} getResourceByType(resources: Resource[], type: ResourceType): Resource

}

enum ResourceType {
    AminoAcid
    Nucleotide
}

Resource - - ResourceType #line:white

abstract class Agent implements Effect {

    #roundsLeft: int
    +use(from: Virologist, to: Virologist)
    {static} {abstract} +create(): Agent
    /'             Effect interface            '/
    +onTurnImpact(to: Virologist): void
    +endTurnImpact(to: Virologist): void
    +counterImpact(agent: Agent, from: Virologist, to: Virologist)
    +allowStealing(): boolean
    +decrement(Virologist v): void
}

class AmnesiaVirus extends Agent{
    {static} +create(): Agent
    +onTurnImpact(to: Virologist)
}

class StunVirus extends Agent{
    {static} +create(): Agent
    +onTurnImpact(to: Virologist)
    +allowStealing(): boolean
}
class VitusDanceVirus extends Agent{
    {static} +create(): Agent
    +onTurnImpact(to: Virologist)
}
class Vaccine extends Agent{
    {static} +create(): Agent
    +counterImpact(agent: Agent, from: Virologist, to: Virologist)
}

class Virologist {
    -actionsLeft: int
    +addEffect(effect: Effect)
    +removeEffect(effect:Effect)
    'az alap useCase-ek:
    -moveTo(newTile: Tile)
    -pickUp()
    -craft(code: GeneticCode)
    -useAgent(agent: Agent, v: Virologist)
    -steal(Virologist v)
    +pass()
    'usecase wrapperek
    -getNeighbours(): Tile[]
    -getCraftables(): GeneticCode[]
    -getCraftedAgents(): Agent[]
    -getNearbyVirologists(): Virologist[]
    -getNearbyVirologistsToStealFrom(): Virologist[]
    +myTurn()        /' A jtkos mikor sorra kerl ezek trtnnek '/
}

class Inventory {
    -maxResourceAmount: int
    +addGeneticCode(gc: GeneticCode)
    +addEquipment(eq: Equipment)
    +addCraftedAgent(agent: Agent)
    +addResource(res: Resource)
    +removeGeneticCode(gc: GeneticCode)
    +removeEquipment(eq: Equipment): boolean
    +removeCraftedAgent(agent: Agent)
    +removeResource(res: Resource)
    +steal(from: Inventory, what: Equipment)
}
interface Effect {
    +onTurnImpact(to: Virologist)
    +endTurnImpact(to: Virologist)
    +counterImpact(agent: Agent, from: Virologist, to: Virologist)
    +allowStealing(): boolean
    +decrement(Virologist v): void
}
class GeneticCode implements Collectable {
    +collect(inv: Inventory) /'Collectable'/
    +isCraftable(inv: Inventory): boolean
    +craft(inv: Inventory)
}

interface Collectable {
    +collect(inv: Inventory)
}

Tile ..> Collectable
Collectable ..> Inventory
Virologist ..> GeneticCode
Virologist ..> Agent
Equipment ..> Agent

Virologist "-virologist, 1" - - "-inventory, 1" Inventory
Virologist *- - "-activeEffects, 0..*" Effect

Inventory *- - "-learntCodes, 0..*" GeneticCode
Inventory - -> "-pickedUpEquipments, 0..*" Equipment
Inventory - -> "-craftedAgents, 0..*" Agent
Inventory - -> "-resources, N" Resource

GeneticCode *- - "-price, N" Resource
GeneticCode *- - "-agent, 1" Agent

Virologist "-players, 0..*" - - "-activeTile, 1" Tile

abstract class Equipment implements Effect, Collectable {
    +collect(inv: Inventory)
    /'             Effekt interface            '/
    +onTurnImpact(to: Virologist): void
    +endTurnImpact(to: Virologist): void
    +counterImpact(agent: Agent, from: Virologist, to: Virologist)
    +allowStealing(): boolean
    +decrement(Virologist v): void
}
class ProtectiveCloak extends Equipment {
    +counterImpact(agent: Agent, from: Virologist, to: Virologist) /'Equipment'/
}

class Bag extends Equipment{
    +onTurnImpact(to: Virologist): void /'Equipment'/
    +endTurnImpact(to: Virologist): void /'Equipment'/
}
class Glove extends Equipment {
    +counterImpact(agent: Agent, from: Virologist, to: Virologist): void /'Equipment'/
}

abstract class Tile {
    #id: int
    #name: string
    +getPlayersToStealFrom(): Virologist[]
    {abstract} +collectItem(inv: Inventory)
    {abstract} +getCollectableItem(): Collectable
    +addVirologist(player: Virologist)
    +removeVirologist(player: Virologist)
}
class Laboratory extends Tile {
    +collectItem(inv: Inventory)
    +getCollectableItem(): Collectable
}

class Safehouse extends Tile {
    +collectItem(inv: Inventory)
    +getCollectableItem(): Collectable
}
class Warehouse extends Tile {
    +collectItem(inv: Inventory)
    +getCollectableItem(): Collectable
}
class EmptyTile extends Tile {
    +collectItem(inv: Inventory)
    +getCollectableItem(): Collectable
}

class Map {
    +createMap()
}

Laboratory *- - "-code, 1" GeneticCode
Safehouse *- - "-equipment, 1\n" Equipment
Warehouse *- - "-collectable, 1" Resource

Map  *- - "-tiles, L" Tile
Tile <- - "-neighbours, 1..K" Tile

class Controller {
    -activePlayer: int
    +startGame(): void
    -nextRound(): void
}
Controller *- - "-map, 1" Map
Controller *- - "-players, 2..M" Virologist
Controller *- - "-codes, J" GeneticCode

@enduml

@startuml
skinparam classAttributeIconSize 0

class Resource implements Collectable {
    -amount: int
    -type: ResourceType
    +collect(inv: Inventory)
    {static} getResourceByType(resources: Resource[], type: ResourceType): Resource

}

enum ResourceType {
    AminoAcid
    Nucleotide
}

Resource - - ResourceType #line:white

abstract class Agent implements Effect {

    #roundsLeft: int
    +use(from: Virologist, to: Virologist)
    {static} {abstract} +create(): Agent
    +onTurnImpact(to: Virologist): void
    +endTurnImpact(to: Virologist): void
    +counterImpact(agent: Agent, from: Virologist, to: Virologist)
    +allowStealing(): boolean
    +decrement(Virologist v): void
}

class AmnesiaVirus extends Agent{
    {static} +create(): Agent
    +onTurnImpact(to: Virologist)
}

class StunVirus extends Agent{
    {static} +create(): Agent
    +onTurnImpact(to: Virologist)
    +allowStealing(): boolean
}
class VitusDanceVirus extends Agent{
    {static} +create(): Agent
    +onTurnImpact(to: Virologist)
}
class Vaccine extends Agent{
    {static} +create(): Agent
    +counterImpact(agent: Agent, from: Virologist, to: Virologist)
}

class Virologist {
    -actionsLeft: int
    +addEffect(effect: Effect)
    +removeEffect(effect:Effect)
    -moveTo(newTile: Tile)
    -pickUp()
    -craft(code: GeneticCode)
    -useAgent(agent: Agent, v: Virologist)
    -steal(Virologist v)
    +pass()
    -getNeighbours(): Tile[]
    -getCraftables(): GeneticCode[]
    -getCraftedAgents(): Agent[]
    -getNearbyVirologists(): Virologist[]
    -getNearbyVirologistsToStealFrom(): Virologist[]
    +myTurn()
}

class Inventory {
    -maxResourceAmount: int
    +addGeneticCode(gc: GeneticCode)
    +addEquipment(eq: Equipment)
    +addCraftedAgent(agent: Agent)
    +addResource(res: Resource)
    +removeGeneticCode(gc: GeneticCode)
    +removeEquipment(eq: Equipment): boolean
    +removeCraftedAgent(agent: Agent)
    +removeResource(res: Resource)
    +steal(from: Inventory, what: Equipment)
}
interface Effect {
    +onTurnImpact(to: Virologist)
    +endTurnImpact(to: Virologist)
    +counterImpact(agent: Agent, from: Virologist, to: Virologist)
    +allowStealing(): boolean
    +decrement(Virologist v): void
}
class GeneticCode implements Collectable {
    +collect(inv: Inventory)
    +isCraftable(inv: Inventory): boolean
    +craft(inv: Inventory)
}

interface Collectable {
    +collect(inv: Inventory)
}

Tile ..> Collectable
Collectable ..> Inventory
Virologist ..> GeneticCode
Virologist ..> Agent
Equipment ..> Agent

Virologist "-virologist, 1" - - "-inventory, 1" Inventory
Virologist *- - "-activeEffects, 0..*" Effect

Inventory *- - "-learntCodes, 0..*" GeneticCode
Inventory - -> "-pickedUpEquipments, 0..*" Equipment
Inventory - -> "-craftedAgents, 0..*" Agent
Inventory - -> "-resources, N" Resource

GeneticCode *- - "-price, N" Resource
GeneticCode *- - "-agent, 1" Agent

Virologist "-players, 0..*" - - "-activeTile, 1" Tile

abstract class Equipment implements Effect, Collectable {
    +collect(inv: Inventory)
    +onTurnImpact(to: Virologist): void
    +endTurnImpact(to: Virologist): void
    +counterImpact(agent: Agent, from: Virologist, to: Virologist)
    +allowStealing(): boolean
    +decrement(Virologist v): void
}
class ProtectiveCloak extends Equipment {
    +counterImpact(agent: Agent, from: Virologist, to: Virologist) 
}

class Bag extends Equipment{
    +onTurnImpact(to: Virologist): void 
    +endTurnImpact(to: Virologist): void 
}
class Glove extends Equipment {
    +counterImpact(agent: Agent, from: Virologist, to: Virologist): void 
}

abstract class Tile {
    #id: int
    #name: string
    +getPlayersToStealFrom(): Virologist[]
    {abstract} +collectItem(inv: Inventory)
    {abstract} +getCollectableItem(): Collectable
    +addVirologist(player: Virologist)
    +removeVirologist(player: Virologist)
}
class Laboratory extends Tile {
    +collectItem(inv: Inventory)
    +getCollectableItem(): Collectable
}

class Safehouse extends Tile {
    +collectItem(inv: Inventory)
    +getCollectableItem(): Collectable
}
class Warehouse extends Tile {
    +collectItem(inv: Inventory)
    +getCollectableItem(): Collectable
}
class EmptyTile extends Tile {
    +collectItem(inv: Inventory)
    +getCollectableItem(): Collectable
}

class Map {
    +createMap()
}

Laboratory *- - "-code, 1" GeneticCode
Safehouse *- - "-equipment, 1\n" Equipment
Warehouse *- - "-collectable, 1" Resource

Map  *- - "-tiles, L" Tile
Tile <- - "-neighbours, 1..K" Tile

class Controller {
    -activePlayer: int
    +startGame(): void
    -nextRound(): void
}
Controller *- - "-map, 1" Map
Controller *- - "-players, 2..M" Virologist
Controller *- - "-codes, J" GeneticCode

@enduml

PlantUML version 1.2022.1(Tue Feb 01 19:19:58 CET 2022)
(GPL source distribution)
Java Runtime: OpenJDK Runtime Environment
JVM: OpenJDK 64-Bit Server VM
Default Encoding: Cp1252
Language: en
Country: US
--></g></svg>